999
dxfrw 0.6.3
  0
SECTION
  2
HEADER
  9
$ACADVER
  1
AC1009
  9
$DWGCODEPAGE
  3
ANSI_1252
  9
$INSBASE
 10
0
 20
0
 30
0
  9
$EXTMIN
 10
0
 20
0
 30
0
  9
$EXTMAX
 10
404.8
 20
128.5874996670228
 30
0
  9
$LIMMIN
 10
0
 20
0
  9
$LIMMAX
 10
12
 20
9
  9
$ORTHOMODE
 70
    0
  9
$REGENMODE
 70
    1
  9
$FILLMODE
 70
    1
  9
$QTEXTMODE
 70
    0
  9
$MIRRTEXT
 70
    0
  9
$DRAGMODE
 70
    2
  9
$LTSCALE
 40
1
  9
$OSMODE
 70
    0
  9
$ATTMODE
 70
    1
  9
$TEXTSIZE
 40
0.2
  9
$TRACEWID
 40
0.05
  9
$TEXTSTYLE
  7
NOTES
  9
$CLAYER
  8
0
  9
$CELTYPE
  6
BYLAYER
  9
$CECOLOR
 62
  256
  9
$DIMSCALE
 40
1
  9
$DIMASZ
 40
3
  9
$DIMEXO
 40
1.5
  9
$DIMDLI
 40
6
  9
$DIMRND
 40
0
  9
$DIMDLE
 40
0
  9
$DIMEXE
 40
3
  9
$DIMTP
 40
0
  9
$DIMTM
 40
0
  9
$DIMTXT
 40
3
  9
$DIMCEN
 40
3
  9
$DIMTSZ
 40
0
  9
$DIMTOL
 70
    0
  9
$DIMLIM
 70
    0
  9
$DIMTIH
 70
    0
  9
$DIMTOH
 70
    0
  9
$DIMSE1
 70
    0
  9
$DIMSE2
 70
    0
  9
$DIMTAD
 70
    1
  9
$DIMZIN
 70
    3
  9
$DIMBLK
  1

  9
$DIMASO
 70
    1
  9
$DIMSHO
 70
    1
  9
$DIMPOST
  1

  9
$DIMAPOST
  1

  9
$DIMALT
 70
    0
  9
$DIMALTD
 70
    2
  9
$DIMALTF
 40
25.4
  9
$DIMLFAC
 40
1
  9
$DIMTOFL
 70
    0
  9
$DIMTVP
 40
0
  9
$DIMTIX
 70
    0
  9
$DIMSOXD
 70
    0
  9
$DIMSAH
 70
    0
  9
$DIMBLK1
  1

  9
$DIMBLK2
  1

  9
$DIMSTYLE
  2
CIVIL-METRIC
  9
$DIMCLRD
 70
    0
  9
$DIMCLRE
 70
    0
  9
$DIMCLRT
 70
    0
  9
$DIMTFAC
 40
1
  9
$DIMGAP
 40
2
  9
$LUNITS
 70
    2
  9
$LUPREC
 70
    4
  9
$SKETCHINC
 40
0.1
  9
$FILLETRAD
 40
0
  9
$AUNITS
 70
    4
  9
$AUPREC
 70
    5
  9
$MENU
  1
.
  9
$ELEVATION
 40
0
  9
$PELEVATION
 40
0
  9
$THICKNESS
 40
0
  9
$LIMCHECK
 70
    0
  9
$BLIPMODE
 70
    0
  9
$CHAMFERA
 40
0
  9
$CHAMFERB
 40
0
  9
$SKPOLY
 70
    0
  9
$USRTIMER
 70
    1
  9
$ANGBASE
 50
0
  9
$ANGDIR
 70
    0
  9
$PDMODE
 70
    0
  9
$PDSIZE
 40
0
  9
$PLINEWID
 40
0
  9
$COORDS
 70
    2
  9
$SPLFRAME
 70
    0
  9
$SPLINETYPE
 70
    6
  9
$SPLINESEGS
 70
    8
  9
$ATTDIA
 70
    1
  9
$ATTREQ
 70
    1
  9
$HANDLING
 70
    1
  9
$HANDSEED
  5
20000
  9
$SURFTAB1
 70
    6
  9
$SURFTAB2
 70
    6
  9
$SURFTYPE
 70
    6
  9
$SURFU
 70
    6
  9
$SURFV
 70
    6
  9
$UCSNAME
  2

  9
$UCSORG
 10
0
 20
0
 30
0
  9
$UCSXDIR
 10
1
 20
0
 30
0
  9
$UCSYDIR
 10
0
 20
1
 30
0
  9
$PUCSNAME
  2

  9
$PUCSORG
 10
0
 20
0
 30
0
  9
$PUCSXDIR
 10
1
 20
0
 30
0
  9
$PUCSYDIR
 10
0
 20
1
 30
0
  9
$USERI1
 70
    0
  9
$USERI2
 70
    0
  9
$USERI3
 70
    0
  9
$USERI4
 70
    0
  9
$USERI5
 70
    0
  9
$USERR1
 40
0
  9
$USERR2
 40
0
  9
$USERR3
 40
0
  9
$USERR4
 40
0
  9
$USERR5
 40
0
  9
$WORLDVIEW
 70
    1
  9
$SHADEDGE
 70
    3
  9
$SHADEDIF
 70
   70
  9
$TILEMODE
 70
    1
  9
$MAXACTVP
 70
   64
  9
$PLIMCHECK
 70
    0
  9
$PEXTMIN
 10
0.62886676639706
 20
0.7999999523162842
 30
0
  9
$PEXTMAX
 10
9.028866384927335
 20
7.199999570846558
 30
0
  9
$SNAPSTYLE
 70
    0
  9
$PLIMMIN
 10
-0.7005418191744587
 20
-0.2281003861915408
  9
$PLIMMAX
 10
10.29945794052965
 20
8.27189937351257
  9
$UNITMODE
 70
    0
  9
$VISRETAIN
 70
    1
  9
$PLINEGEN
 70
    0
  9
$PSLTSCALE
 70
    1
  0
ENDSEC
  0
SECTION
  2
TABLES
  0
TABLE
  2
VPORT
 70
    1
  0
VPORT
  2
*ACTIVE
 70
    0
 10
0
 20
0
 11
1
 21
1
 12
206.5647129099534
 22
123.9898523765797
 13
0
 23
0
 14
10
 24
10
 15
10
 25
10
 16
0
 26
0
 36
1
 17
0
 27
0
 37
0
 40
319.2441055018383
 41
1.856686201385189
 42
50
 43
0
 44
0
 50
0
 51
0
 71
    0
 72
  100
 73
    1
 74
    3
 75
    0
 76
    1
 77
    0
 78
    0
  0
ENDTAB
  0
TABLE
  2
LTYPE
 70
    4
  0
LTYPE
  2
BYBLOCK
 70
    0
  3

 72
   65
 73
    0
 40
0
  0
LTYPE
  2
BYLAYER
 70
    0
  3

 72
   65
 73
    0
 40
0
  0
LTYPE
  2
CONTINUOUS
 70
    0
  3
Solid line
 72
   65
 73
    0
 40
0
  0
LTYPE
  2
DOT
 70
    0
  3
Dot . . . . . . . . . . . . . . . . . . . . . .
 72
   65
 73
    2
 40
6.35
 49
0
 49
-6.35
  0
LTYPE
  2
DOTTINY
 70
    0
  3
Dot (.15x) .....................................
 72
   65
 73
    2
 40
0.9525
 49
0
 49
-0.9525
  0
LTYPE
  2
DOT2
 70
    0
  3
Dot (.5x) .....................................
 72
   65
 73
    2
 40
3.175
 49
0
 49
-3.175
  0
LTYPE
  2
DOTX2
 70
    0
  3
Dot (2x) .  .  .  .  .  .  .  .  .  .  .  .  .
 72
   65
 73
    2
 40
12.7
 49
0
 49
-12.7
  0
LTYPE
  2
DASHED
 70
    0
  3
Dashed _ _ _ _ _ _ _ _ _ _ _ _ _ _ _ _ _
 72
   65
 73
    2
 40
19.05
 49
12.7
 49
-6.35
  0
LTYPE
  2
DASHEDTINY
 70
    0
  3
Dashed (.15x) _ _ _ _ _ _ _ _ _ _ _ _ _ _ _ _ _
 72
   65
 73
    2
 40
2.8575
 49
1.905
 49
-0.9525
  0
LTYPE
  2
DASHED2
 70
    0
  3
Dashed (.5x) _ _ _ _ _ _ _ _ _ _ _ _ _ _ _ _ _
 72
   65
 73
    2
 40
9.524999999999999
 49
6.35
 49
-3.175
  0
LTYPE
  2
DASHEDX2
 70
    0
  3
Dashed (2x) ____  ____  ____  ____  ____  ___
 72
   65
 73
    2
 40
38.09999999999999
 49
25.4
 49
-12.7
  0
LTYPE
  2
DASHDOT
 70
    0
  3
Dash dot __ . __ . __ . __ . __ . __ . __ . __
 72
   65
 73
    4
 40
25.4
 49
12.7
 49
-6.35
 49
0
 49
-6.35
  0
LTYPE
  2
DASHDOTTINY
 70
    0
  3
Dash dot (.15x) _._._._._._._._._._._._._._._.
 72
   65
 73
    4
 40
3.81
 49
1.905
 49
-0.9525
 49
0
 49
-0.9525
  0
LTYPE
  2
DASHDOT2
 70
    0
  3
Dash dot (.5x) _._._._._._._._._._._._._._._.
 72
   65
 73
    4
 40
12.7
 49
6.35
 49
-3.175
 49
0
 49
-3.175
  0
LTYPE
  2
DASHDOTX2
 70
    0
  3
Dash dot (2x) ____  .  ____  .  ____  .  ___
 72
   65
 73
    4
 40
50.8
 49
25.4
 49
-12.7
 49
0
 49
-12.7
  0
LTYPE
  2
DIVIDE
 70
    0
  3
Divide ____ . . ____ . . ____ . . ____ . . ____
 72
   65
 73
    6
 40
31.75
 49
12.7
 49
-6.35
 49
0
 49
-6.35
 49
0
 49
-6.35
  0
LTYPE
  2
DIVIDETINY
 70
    0
  3
Divide (.15x) __..__..__..__..__..__..__..__.._
 72
   65
 73
    6
 40
4.7625
 49
1.905
 49
-0.9525
 49
0
 49
-0.9525
 49
0
 49
-0.9525
  0
LTYPE
  2
DIVIDE2
 70
    0
  3
Divide (.5x) __..__..__..__..__..__..__..__.._
 72
   65
 73
    6
 40
15.875
 49
6.35
 49
-3.175
 49
0
 49
-3.175
 49
0
 49
-3.175
  0
LTYPE
  2
DIVIDEX2
 70
    0
  3
Divide (2x) ________  .  .  ________  .  .  _
 72
   65
 73
    6
 40
63.5
 49
25.4
 49
-12.7
 49
0
 49
-12.7
 49
0
 49
-12.7
  0
LTYPE
  2
BORDER
 70
    0
  3
Border __ __ . __ __ . __ __ . __ __ . __ __ .
 72
   65
 73
    6
 40
44.45
 49
12.7
 49
-6.35
 49
12.7
 49
-6.35
 49
0
 49
-6.35
  0
LTYPE
  2
BORDERTINY
 70
    0
  3
Border (.15x) __.__.__.__.__.__.__.__.__.__.__.
 72
   65
 73
    6
 40
6.6675
 49
1.905
 49
-0.9525
 49
1.905
 49
-0.9525
 49
0
 49
-0.9525
  0
LTYPE
  2
BORDER2
 70
    0
  3
Border (.5x) __.__.__.__.__.__.__.__.__.__.__.
 72
   65
 73
    6
 40
22.225
 49
6.35
 49
-3.175
 49
6.35
 49
-3.175
 49
0
 49
-3.175
  0
LTYPE
  2
BORDERX2
 70
    0
  3
Border (2x) ____  ____  .  ____  ____  .  ___
 72
   65
 73
    6
 40
88.89999999999999
 49
25.4
 49
-12.7
 49
25.4
 49
-12.7
 49
0
 49
-12.7
  0
LTYPE
  2
CENTER
 70
    0
  3
Center ____ _ ____ _ ____ _ ____ _ ____ _ ____
 72
   65
 73
    4
 40
50.8
 49
31.75
 49
-6.35
 49
6.35
 49
-6.35
  0
LTYPE
  2
CENTERTINY
 70
    0
  3
Center (.15x) ___ _ ___ _ ___ _ ___ _ ___ _ ___
 72
   65
 73
    4
 40
7.62
 49
4.7625
 49
-0.9525
 49
0.9525
 49
-0.9525
  0
LTYPE
  2
CENTER2
 70
    0
  3
Center (.5x) ___ _ ___ _ ___ _ ___ _ ___ _ ___
 72
   65
 73
    4
 40
28.575
 49
19.05
 49
-3.175
 49
3.175
 49
-3.175
  0
LTYPE
  2
CENTERX2
 70
    0
  3
Center (2x) ________  __  ________  __  _____
 72
   65
 73
    4
 40
101.6
 49
63.5
 49
-12.7
 49
12.7
 49
-12.7
  0
ENDTAB
  0
TABLE
  2
LAYER
 70
    1
  0
LAYER
  2
0
 70
    0
 62
    7
  6
CONTINUOUS
  0
LAYER
  2
DEFPOINTS
 70
    0
 62
    7
  6
CONTINUOUS
  0
LAYER
  2
VIEW PORT
 70
    0
 62
    7
  6
CONTINUOUS
  0
ENDTAB
  0
TABLE
  2
STYLE
 70
    3
  0
STYLE
  2
STANDARD
 70
    0
 40
0
 41
1
 50
0
 71
    0
 42
1
  3
TXT
  4

  0
ENDTAB
  0
TABLE
  2
VIEW
 70
    0
  0
ENDTAB
  0
TABLE
  2
UCS
 70
    0
  0
ENDTAB
  0
TABLE
  2
APPID
 70
    1
  0
APPID
  2
ACAD
 70
    0
  0
APPID
  2
LIBRECAD
 70
    0
  0
ENDTAB
  0
TABLE
  2
DIMSTYLE
 70
    1
  0
DIMSTYLE
  2
STANDARD
 70
    0
  3

  4

  5

  6

  7

 40
1
 41
3
 42
1.5
 43
0.38
 44
3
 45
0
 46
0
 47
0
 48
0
 49
1
140
3
141
0.09
142
0
143
25.4
144
1
145
0
146
1
147
2
 71
    0
 72
    0
 73
    0
 74
    1
 75
    0
 76
    0
 77
    0
 78
    3
170
    0
171
    2
172
    0
173
    0
174
    0
175
    0
176
    0
177
    0
178
    0
  0
ENDTAB
  0
ENDSEC
  0
SECTION
  2
BLOCKS
  0
BLOCK
  8
0
  2
$MODEL_SPACE
 70
    0
 10
0
 20
0
 30
0
  3
$MODEL_SPACE
  1

  0
ENDBLK
  8
0
  0
BLOCK
  8
0
  2
$PAPER_SPACE
 70
    0
 10
0
 20
0
 30
0
  3
$PAPER_SPACE
  1

  0
ENDBLK
  8
0
  0
BLOCK
  8
0
  2
_ARCHTICK
 70
    0
 10
0
 20
0
  3
_ARCHTICK
  1

  0
POLYLINE
  5
31
  8
0
  6
BYBLOCK
 62
    0
 66
    1
 10
0
 20
0
 30
0
 70
    0
  0
VERTEX
  5
32
  8
0
  6
BYBLOCK
 62
    0
 10
-0.5
 20
-0.5
 30
0
  0
VERTEX
  5
33
  8
0
  6
BYBLOCK
 62
    0
 10
0.5
 20
0.5
 30
0
  0
SEQEND
  5
34
  8
0
  6
BYBLOCK
 62
    0
  0
ENDBLK
  8
0
  0
BLOCK
  8
0
  2
_OPEN30
 70
    0
 10
0
 20
0
  3
_OPEN30
  1

  0
LINE
  5
35
  8
0
  6
BYBLOCK
 62
    0
 10
-1
 20
0.26794919
 11
0
 21
0
  0
LINE
  5
36
  8
0
  6
BYBLOCK
 62
    0
 10
0
 20
0
 11
-1
 21
-0.26794919
  0
LINE
  5
37
  8
0
  6
BYBLOCK
 62
    0
 10
0
 20
0
 11
-1
 21
0
  0
ENDBLK
  8
0
  0
ENDSEC
  0
SECTION
  2
ENTITIES
  0
LINE
  5
38
  8
0
  6
BYLAYER
 62
  256
 10
12.04999843504855
 20
126.0624996670228
 11
26.04999843504855
 21
126.0624996670228
  0
LINE
  5
39
  8
0
  6
BYLAYER
 62
  256
 10
12.04999843504855
 20
112.0624996670228
 11
26.04999843504855
 21
112.0624996670228
  0
LINE
  5
3A
  8
0
  6
BYLAYER
 62
  256
 10
12.04999843504855
 20
126.0624996670228
 11
12.04999843504855
 21
112.0624996670228
  0
LINE
  5
3B
  8
0
  6
BYLAYER
 62
  256
 10
26.04999843504855
 20
126.0624996670228
 11
26.04999843504855
 21
112.0624996670228
  0
ARC
  5
3C
  8
0
  6
BYLAYER
 62
  256
 10
12.04999843504855
 20
126.0624996670228
 40
0
 50
90
 51
180
  0
ARC
  5
3D
  8
0
  6
BYLAYER
 62
  256
 10
26.04999843504855
 20
126.0624996670228
 40
0
 50
0
 51
90
  0
ARC
  5
3E
  8
0
  6
BYLAYER
 62
  256
 10
12.04999843504855
 20
112.0624996670228
 40
0
 50
180
 51
270
  0
ARC
  5
3F
  8
0
  6
BYLAYER
 62
  256
 10
26.04999843504855
 20
112.0624996670228
 40
0
 50
270
 51
360
  0
LINE
  5
40
  8
0
  6
BYLAYER
 62
  256
 10
45.38749843504856
 20
126.0624996670228
 11
59.38749843504856
 21
126.0624996670228
  0
LINE
  5
41
  8
0
  6
BYLAYER
 62
  256
 10
45.38749843504856
 20
112.0624996670228
 11
59.38749843504856
 21
112.0624996670228
  0
LINE
  5
42
  8
0
  6
BYLAYER
 62
  256
 10
45.38749843504856
 20
126.0624996670228
 11
45.38749843504856
 21
112.0624996670228
  0
LINE
  5
43
  8
0
  6
BYLAYER
 62
  256
 10
59.38749843504856
 20
126.0624996670228
 11
59.38749843504856
 21
112.0624996670228
  0
ARC
  5
44
  8
0
  6
BYLAYER
 62
  256
 10
45.38749843504856
 20
126.0624996670228
 40
0
 50
90
 51
180
  0
ARC
  5
45
  8
0
  6
BYLAYER
 62
  256
 10
59.38749843504856
 20
126.0624996670228
 40
0
 50
0
 51
90
  0
ARC
  5
46
  8
0
  6
BYLAYER
 62
  256
 10
45.38749843504856
 20
112.0624996670228
 40
0
 50
180
 51
270
  0
ARC
  5
47
  8
0
  6
BYLAYER
 62
  256
 10
59.38749843504856
 20
112.0624996670228
 40
0
 50
270
 51
360
  0
LINE
  5
48
  8
0
  6
BYLAYER
 62
  256
 10
64.43749843504854
 20
126.0624996670228
 11
78.43749843504854
 21
126.0624996670228
  0
LINE
  5
49
  8
0
  6
BYLAYER
 62
  256
 10
64.43749843504854
 20
112.0624996670228
 11
78.43749843504854
 21
112.0624996670228
  0
LINE
  5
4A
  8
0
  6
BYLAYER
 62
  256
 10
64.43749843504854
 20
126.0624996670228
 11
64.43749843504854
 21
112.0624996670228
  0
LINE
  5
4B
  8
0
  6
BYLAYER
 62
  256
 10
78.43749843504854
 20
126.0624996670228
 11
78.43749843504854
 21
112.0624996670228
  0
ARC
  5
4C
  8
0
  6
BYLAYER
 62
  256
 10
64.43749843504854
 20
126.0624996670228
 40
0
 50
90
 51
180
  0
ARC
  5
4D
  8
0
  6
BYLAYER
 62
  256
 10
78.43749843504854
 20
126.0624996670228
 40
0
 50
0
 51
90
  0
ARC
  5
4E
  8
0
  6
BYLAYER
 62
  256
 10
64.43749843504854
 20
112.0624996670228
 40
0
 50
180
 51
270
  0
ARC
  5
4F
  8
0
  6
BYLAYER
 62
  256
 10
78.43749843504854
 20
112.0624996670228
 40
0
 50
270
 51
360
  0
LINE
  5
50
  8
0
  6
BYLAYER
 62
  256
 10
83.48749843504855
 20
126.0624996670228
 11
97.48749843504855
 21
126.0624996670228
  0
LINE
  5
51
  8
0
  6
BYLAYER
 62
  256
 10
83.48749843504855
 20
112.0624996670228
 11
97.48749843504855
 21
112.0624996670228
  0
LINE
  5
52
  8
0
  6
BYLAYER
 62
  256
 10
83.48749843504855
 20
126.0624996670228
 11
83.48749843504855
 21
112.0624996670228
  0
LINE
  5
53
  8
0
  6
BYLAYER
 62
  256
 10
97.48749843504855
 20
126.0624996670228
 11
97.48749843504855
 21
112.0624996670228
  0
ARC
  5
54
  8
0
  6
BYLAYER
 62
  256
 10
83.48749843504855
 20
126.0624996670228
 40
0
 50
90
 51
180
  0
ARC
  5
55
  8
0
  6
BYLAYER
 62
  256
 10
97.48749843504855
 20
126.0624996670228
 40
0
 50
0
 51
90
  0
ARC
  5
56
  8
0
  6
BYLAYER
 62
  256
 10
83.48749843504855
 20
112.0624996670228
 40
0
 50
180
 51
270
  0
ARC
  5
57
  8
0
  6
BYLAYER
 62
  256
 10
97.48749843504855
 20
112.0624996670228
 40
0
 50
270
 51
360
  0
LINE
  5
58
  8
0
  6
BYLAYER
 62
  256
 10
102.5374984350485
 20
126.0624996670228
 11
116.5374984350485
 21
126.0624996670228
  0
LINE
  5
59
  8
0
  6
BYLAYER
 62
  256
 10
102.5374984350485
 20
112.0624996670228
 11
116.5374984350485
 21
112.0624996670228
  0
LINE
  5
5A
  8
0
  6
BYLAYER
 62
  256
 10
102.5374984350485
 20
126.0624996670228
 11
102.5374984350485
 21
112.0624996670228
  0
LINE
  5
5B
  8
0
  6
BYLAYER
 62
  256
 10
116.5374984350485
 20
126.0624996670228
 11
116.5374984350485
 21
112.0624996670228
  0
ARC
  5
5C
  8
0
  6
BYLAYER
 62
  256
 10
102.5374984350485
 20
126.0624996670228
 40
0
 50
90
 51
180
  0
ARC
  5
5D
  8
0
  6
BYLAYER
 62
  256
 10
116.5374984350485
 20
126.0624996670228
 40
0
 50
0
 51
90
  0
ARC
  5
5E
  8
0
  6
BYLAYER
 62
  256
 10
102.5374984350485
 20
112.0624996670228
 40
0
 50
180
 51
270
  0
ARC
  5
5F
  8
0
  6
BYLAYER
 62
  256
 10
116.5374984350485
 20
112.0624996670228
 40
0
 50
270
 51
360
  0
LINE
  5
60
  8
0
  6
BYLAYER
 62
  256
 10
131.1124984350486
 20
126.0624996670228
 11
145.1124984350486
 21
126.0624996670228
  0
LINE
  5
61
  8
0
  6
BYLAYER
 62
  256
 10
131.1124984350486
 20
112.0624996670228
 11
145.1124984350486
 21
112.0624996670228
  0
LINE
  5
62
  8
0
  6
BYLAYER
 62
  256
 10
131.1124984350486
 20
126.0624996670228
 11
131.1124984350486
 21
112.0624996670228
  0
LINE
  5
63
  8
0
  6
BYLAYER
 62
  256
 10
145.1124984350486
 20
126.0624996670228
 11
145.1124984350486
 21
112.0624996670228
  0
ARC
  5
64
  8
0
  6
BYLAYER
 62
  256
 10
131.1124984350486
 20
126.0624996670228
 40
0
 50
90
 51
180
  0
ARC
  5
65
  8
0
  6
BYLAYER
 62
  256
 10
145.1124984350486
 20
126.0624996670228
 40
0
 50
0
 51
90
  0
ARC
  5
66
  8
0
  6
BYLAYER
 62
  256
 10
131.1124984350486
 20
112.0624996670228
 40
0
 50
180
 51
270
  0
ARC
  5
67
  8
0
  6
BYLAYER
 62
  256
 10
145.1124984350486
 20
112.0624996670228
 40
0
 50
270
 51
360
  0
LINE
  5
68
  8
0
  6
BYLAYER
 62
  256
 10
150.1624984350485
 20
126.0624996670228
 11
164.1624984350485
 21
126.0624996670228
  0
LINE
  5
69
  8
0
  6
BYLAYER
 62
  256
 10
150.1624984350485
 20
112.0624996670228
 11
164.1624984350485
 21
112.0624996670228
  0
LINE
  5
6A
  8
0
  6
BYLAYER
 62
  256
 10
150.1624984350485
 20
126.0624996670228
 11
150.1624984350485
 21
112.0624996670228
  0
LINE
  5
6B
  8
0
  6
BYLAYER
 62
  256
 10
164.1624984350485
 20
126.0624996670228
 11
164.1624984350485
 21
112.0624996670228
  0
ARC
  5
6C
  8
0
  6
BYLAYER
 62
  256
 10
150.1624984350485
 20
126.0624996670228
 40
0
 50
90
 51
180
  0
ARC
  5
6D
  8
0
  6
BYLAYER
 62
  256
 10
164.1624984350485
 20
126.0624996670228
 40
0
 50
0
 51
90
  0
ARC
  5
6E
  8
0
  6
BYLAYER
 62
  256
 10
150.1624984350485
 20
112.0624996670228
 40
0
 50
180
 51
270
  0
ARC
  5
6F
  8
0
  6
BYLAYER
 62
  256
 10
164.1624984350485
 20
112.0624996670228
 40
0
 50
270
 51
360
  0
LINE
  5
70
  8
0
  6
BYLAYER
 62
  256
 10
169.2124984350486
 20
126.0624996670228
 11
183.2124984350486
 21
126.0624996670228
  0
LINE
  5
71
  8
0
  6
BYLAYER
 62
  256
 10
169.2124984350486
 20
112.0624996670228
 11
183.2124984350486
 21
112.0624996670228
  0
LINE
  5
72
  8
0
  6
BYLAYER
 62
  256
 10
169.2124984350486
 20
126.0624996670228
 11
169.2124984350486
 21
112.0624996670228
  0
LINE
  5
73
  8
0
  6
BYLAYER
 62
  256
 10
183.2124984350486
 20
126.0624996670228
 11
183.2124984350486
 21
112.0624996670228
  0
ARC
  5
74
  8
0
  6
BYLAYER
 62
  256
 10
169.2124984350486
 20
126.0624996670228
 40
0
 50
90
 51
180
  0
ARC
  5
75
  8
0
  6
BYLAYER
 62
  256
 10
183.2124984350486
 20
126.0624996670228
 40
0
 50
0
 51
90
  0
ARC
  5
76
  8
0
  6
BYLAYER
 62
  256
 10
169.2124984350486
 20
112.0624996670228
 40
0
 50
180
 51
270
  0
ARC
  5
77
  8
0
  6
BYLAYER
 62
  256
 10
183.2124984350486
 20
112.0624996670228
 40
0
 50
270
 51
360
  0
LINE
  5
78
  8
0
  6
BYLAYER
 62
  256
 10
188.2624984350486
 20
126.0624996670228
 11
202.2624984350486
 21
126.0624996670228
  0
LINE
  5
79
  8
0
  6
BYLAYER
 62
  256
 10
188.2624984350486
 20
112.0624996670228
 11
202.2624984350486
 21
112.0624996670228
  0
LINE
  5
7A
  8
0
  6
BYLAYER
 62
  256
 10
188.2624984350486
 20
126.0624996670228
 11
188.2624984350486
 21
112.0624996670228
  0
LINE
  5
7B
  8
0
  6
BYLAYER
 62
  256
 10
202.2624984350486
 20
126.0624996670228
 11
202.2624984350486
 21
112.0624996670228
  0
ARC
  5
7C
  8
0
  6
BYLAYER
 62
  256
 10
188.2624984350486
 20
126.0624996670228
 40
0
 50
90
 51
180
  0
ARC
  5
7D
  8
0
  6
BYLAYER
 62
  256
 10
202.2624984350486
 20
126.0624996670228
 40
0
 50
0
 51
90
  0
ARC
  5
7E
  8
0
  6
BYLAYER
 62
  256
 10
188.2624984350486
 20
112.0624996670228
 40
0
 50
180
 51
270
  0
ARC
  5
7F
  8
0
  6
BYLAYER
 62
  256
 10
202.2624984350486
 20
112.0624996670228
 40
0
 50
270
 51
360
  0
LINE
  5
80
  8
0
  6
BYLAYER
 62
  256
 10
216.8374984350486
 20
126.0624996670228
 11
230.8374984350486
 21
126.0624996670228
  0
LINE
  5
81
  8
0
  6
BYLAYER
 62
  256
 10
216.8374984350486
 20
112.0624996670228
 11
230.8374984350486
 21
112.0624996670228
  0
LINE
  5
82
  8
0
  6
BYLAYER
 62
  256
 10
216.8374984350486
 20
126.0624996670228
 11
216.8374984350486
 21
112.0624996670228
  0
LINE
  5
83
  8
0
  6
BYLAYER
 62
  256
 10
230.8374984350486
 20
126.0624996670228
 11
230.8374984350486
 21
112.0624996670228
  0
ARC
  5
84
  8
0
  6
BYLAYER
 62
  256
 10
216.8374984350486
 20
126.0624996670228
 40
0
 50
90
 51
180
  0
ARC
  5
85
  8
0
  6
BYLAYER
 62
  256
 10
230.8374984350486
 20
126.0624996670228
 40
0
 50
0
 51
90
  0
ARC
  5
86
  8
0
  6
BYLAYER
 62
  256
 10
216.8374984350486
 20
112.0624996670228
 40
0
 50
180
 51
270
  0
ARC
  5
87
  8
0
  6
BYLAYER
 62
  256
 10
230.8374984350486
 20
112.0624996670228
 40
0
 50
270
 51
360
  0
LINE
  5
88
  8
0
  6
BYLAYER
 62
  256
 10
235.8874984350486
 20
126.0624996670228
 11
249.8874984350486
 21
126.0624996670228
  0
LINE
  5
89
  8
0
  6
BYLAYER
 62
  256
 10
235.8874984350486
 20
112.0624996670228
 11
249.8874984350486
 21
112.0624996670228
  0
LINE
  5
8A
  8
0
  6
BYLAYER
 62
  256
 10
235.8874984350486
 20
126.0624996670228
 11
235.8874984350486
 21
112.0624996670228
  0
LINE
  5
8B
  8
0
  6
BYLAYER
 62
  256
 10
249.8874984350486
 20
126.0624996670228
 11
249.8874984350486
 21
112.0624996670228
  0
ARC
  5
8C
  8
0
  6
BYLAYER
 62
  256
 10
235.8874984350486
 20
126.0624996670228
 40
0
 50
90
 51
180
  0
ARC
  5
8D
  8
0
  6
BYLAYER
 62
  256
 10
249.8874984350486
 20
126.0624996670228
 40
0
 50
0
 51
90
  0
ARC
  5
8E
  8
0
  6
BYLAYER
 62
  256
 10
235.8874984350486
 20
112.0624996670228
 40
0
 50
180
 51
270
  0
ARC
  5
8F
  8
0
  6
BYLAYER
 62
  256
 10
249.8874984350486
 20
112.0624996670228
 40
0
 50
270
 51
360
  0
LINE
  5
90
  8
0
  6
BYLAYER
 62
  256
 10
254.9374984350486
 20
126.0624996670228
 11
268.9374984350486
 21
126.0624996670228
  0
LINE
  5
91
  8
0
  6
BYLAYER
 62
  256
 10
254.9374984350486
 20
112.0624996670228
 11
268.9374984350486
 21
112.0624996670228
  0
LINE
  5
92
  8
0
  6
BYLAYER
 62
  256
 10
254.9374984350486
 20
126.0624996670228
 11
254.9374984350486
 21
112.0624996670228
  0
LINE
  5
93
  8
0
  6
BYLAYER
 62
  256
 10
268.9374984350486
 20
126.0624996670228
 11
268.9374984350486
 21
112.0624996670228
  0
ARC
  5
94
  8
0
  6
BYLAYER
 62
  256
 10
254.9374984350486
 20
126.0624996670228
 40
0
 50
90
 51
180
  0
ARC
  5
95
  8
0
  6
BYLAYER
 62
  256
 10
268.9374984350486
 20
126.0624996670228
 40
0
 50
0
 51
90
  0
ARC
  5
96
  8
0
  6
BYLAYER
 62
  256
 10
254.9374984350486
 20
112.0624996670228
 40
0
 50
180
 51
270
  0
ARC
  5
97
  8
0
  6
BYLAYER
 62
  256
 10
268.9374984350486
 20
112.0624996670228
 40
0
 50
270
 51
360
  0
LINE
  5
98
  8
0
  6
BYLAYER
 62
  256
 10
273.9874984350485
 20
126.0624996670228
 11
287.9874984350485
 21
126.0624996670228
  0
LINE
  5
99
  8
0
  6
BYLAYER
 62
  256
 10
273.9874984350485
 20
112.0624996670228
 11
287.9874984350485
 21
112.0624996670228
  0
LINE
  5
9A
  8
0
  6
BYLAYER
 62
  256
 10
273.9874984350485
 20
126.0624996670228
 11
273.9874984350485
 21
112.0624996670228
  0
LINE
  5
9B
  8
0
  6
BYLAYER
 62
  256
 10
287.9874984350485
 20
126.0624996670228
 11
287.9874984350485
 21
112.0624996670228
  0
ARC
  5
9C
  8
0
  6
BYLAYER
 62
  256
 10
273.9874984350485
 20
126.0624996670228
 40
0
 50
90
 51
180
  0
ARC
  5
9D
  8
0
  6
BYLAYER
 62
  256
 10
287.9874984350485
 20
126.0624996670228
 40
0
 50
0
 51
90
  0
ARC
  5
9E
  8
0
  6
BYLAYER
 62
  256
 10
273.9874984350485
 20
112.0624996670228
 40
0
 50
180
 51
270
  0
ARC
  5
9F
  8
0
  6
BYLAYER
 62
  256
 10
287.9874984350485
 20
112.0624996670228
 40
0
 50
270
 51
360
  0
LINE
  5
A0
  8
0
  6
BYLAYER
 62
  256
 10
297.7999984350485
 20
126.0624996670228
 11
311.7999984350485
 21
126.0624996670228
  0
LINE
  5
A1
  8
0
  6
BYLAYER
 62
  256
 10
297.7999984350485
 20
112.0624996670228
 11
311.7999984350485
 21
112.0624996670228
  0
LINE
  5
A2
  8
0
  6
BYLAYER
 62
  256
 10
297.7999984350485
 20
126.0624996670228
 11
297.7999984350485
 21
112.0624996670228
  0
LINE
  5
A3
  8
0
  6
BYLAYER
 62
  256
 10
311.7999984350485
 20
126.0624996670228
 11
311.7999984350485
 21
112.0624996670228
  0
ARC
  5
A4
  8
0
  6
BYLAYER
 62
  256
 10
297.7999984350485
 20
126.0624996670228
 40
0
 50
90
 51
180
  0
ARC
  5
A5
  8
0
  6
BYLAYER
 62
  256
 10
311.7999984350485
 20
126.0624996670228
 40
0
 50
0
 51
90
  0
ARC
  5
A6
  8
0
  6
BYLAYER
 62
  256
 10
297.7999984350485
 20
112.0624996670228
 40
0
 50
180
 51
270
  0
ARC
  5
A7
  8
0
  6
BYLAYER
 62
  256
 10
311.7999984350485
 20
112.0624996670228
 40
0
 50
270
 51
360
  0
LINE
  5
A8
  8
0
  6
BYLAYER
 62
  256
 10
12.04999843504855
 20
102.2499996670228
 11
26.04999843504855
 21
102.2499996670228
  0
LINE
  5
A9
  8
0
  6
BYLAYER
 62
  256
 10
12.04999843504855
 20
88.24999966702282
 11
26.04999843504855
 21
88.24999966702282
  0
LINE
  5
AA
  8
0
  6
BYLAYER
 62
  256
 10
12.04999843504855
 20
102.2499996670228
 11
12.04999843504855
 21
88.24999966702282
  0
LINE
  5
AB
  8
0
  6
BYLAYER
 62
  256
 10
26.04999843504855
 20
102.2499996670228
 11
26.04999843504855
 21
88.24999966702282
  0
ARC
  5
AC
  8
0
  6
BYLAYER
 62
  256
 10
12.04999843504855
 20
102.2499996670228
 40
0
 50
90
 51
180
  0
ARC
  5
AD
  8
0
  6
BYLAYER
 62
  256
 10
26.04999843504855
 20
102.2499996670228
 40
0
 50
0
 51
90
  0
ARC
  5
AE
  8
0
  6
BYLAYER
 62
  256
 10
12.04999843504855
 20
88.24999966702282
 40
0
 50
180
 51
270
  0
ARC
  5
AF
  8
0
  6
BYLAYER
 62
  256
 10
26.04999843504855
 20
88.24999966702282
 40
0
 50
270
 51
360
  0
LINE
  5
B0
  8
0
  6
BYLAYER
 62
  256
 10
31.09999843504855
 20
102.2499996670228
 11
45.09999843504853
 21
102.2499996670228
  0
LINE
  5
B1
  8
0
  6
BYLAYER
 62
  256
 10
31.09999843504855
 20
88.24999966702282
 11
45.09999843504853
 21
88.24999966702282
  0
LINE
  5
B2
  8
0
  6
BYLAYER
 62
  256
 10
31.09999843504855
 20
102.2499996670228
 11
31.09999843504855
 21
88.24999966702282
  0
LINE
  5
B3
  8
0
  6
BYLAYER
 62
  256
 10
45.09999843504853
 20
102.2499996670228
 11
45.09999843504853
 21
88.24999966702282
  0
ARC
  5
B4
  8
0
  6
BYLAYER
 62
  256
 10
31.09999843504855
 20
102.2499996670228
 40
0
 50
90
 51
180
  0
ARC
  5
B5
  8
0
  6
BYLAYER
 62
  256
 10
45.09999843504853
 20
102.2499996670228
 40
0
 50
0
 51
90
  0
ARC
  5
B6
  8
0
  6
BYLAYER
 62
  256
 10
31.09999843504855
 20
88.24999966702282
 40
0
 50
180
 51
270
  0
ARC
  5
B7
  8
0
  6
BYLAYER
 62
  256
 10
45.09999843504853
 20
88.24999966702282
 40
0
 50
270
 51
360
  0
LINE
  5
B8
  8
0
  6
BYLAYER
 62
  256
 10
50.14999843504854
 20
102.2499996670228
 11
64.14999843504854
 21
102.2499996670228
  0
LINE
  5
B9
  8
0
  6
BYLAYER
 62
  256
 10
50.14999843504854
 20
88.24999966702282
 11
64.14999843504854
 21
88.24999966702282
  0
LINE
  5
BA
  8
0
  6
BYLAYER
 62
  256
 10
50.14999843504854
 20
102.2499996670228
 11
50.14999843504854
 21
88.24999966702282
  0
LINE
  5
BB
  8
0
  6
BYLAYER
 62
  256
 10
64.14999843504854
 20
102.2499996670228
 11
64.14999843504854
 21
88.24999966702282
  0
ARC
  5
BC
  8
0
  6
BYLAYER
 62
  256
 10
50.14999843504854
 20
102.2499996670228
 40
0
 50
90
 51
180
  0
ARC
  5
BD
  8
0
  6
BYLAYER
 62
  256
 10
64.14999843504854
 20
102.2499996670228
 40
0
 50
0
 51
90
  0
ARC
  5
BE
  8
0
  6
BYLAYER
 62
  256
 10
50.14999843504854
 20
88.24999966702282
 40
0
 50
180
 51
270
  0
ARC
  5
BF
  8
0
  6
BYLAYER
 62
  256
 10
64.14999843504854
 20
88.24999966702282
 40
0
 50
270
 51
360
  0
LINE
  5
C0
  8
0
  6
BYLAYER
 62
  256
 10
69.19999843504856
 20
102.2499996670228
 11
83.19999843504856
 21
102.2499996670228
  0
LINE
  5
C1
  8
0
  6
BYLAYER
 62
  256
 10
69.19999843504856
 20
88.24999966702282
 11
83.19999843504856
 21
88.24999966702282
  0
LINE
  5
C2
  8
0
  6
BYLAYER
 62
  256
 10
69.19999843504856
 20
102.2499996670228
 11
69.19999843504856
 21
88.24999966702282
  0
LINE
  5
C3
  8
0
  6
BYLAYER
 62
  256
 10
83.19999843504856
 20
102.2499996670228
 11
83.19999843504856
 21
88.24999966702282
  0
ARC
  5
C4
  8
0
  6
BYLAYER
 62
  256
 10
69.19999843504856
 20
102.2499996670228
 40
0
 50
90
 51
180
  0
ARC
  5
C5
  8
0
  6
BYLAYER
 62
  256
 10
83.19999843504856
 20
102.2499996670228
 40
0
 50
0
 51
90
  0
ARC
  5
C6
  8
0
  6
BYLAYER
 62
  256
 10
69.19999843504856
 20
88.24999966702282
 40
0
 50
180
 51
270
  0
ARC
  5
C7
  8
0
  6
BYLAYER
 62
  256
 10
83.19999843504856
 20
88.24999966702282
 40
0
 50
270
 51
360
  0
LINE
  5
C8
  8
0
  6
BYLAYER
 62
  256
 10
88.24999843504854
 20
102.2499996670228
 11
102.2499984350485
 21
102.2499996670228
  0
LINE
  5
C9
  8
0
  6
BYLAYER
 62
  256
 10
88.24999843504854
 20
88.24999966702282
 11
102.2499984350485
 21
88.24999966702282
  0
LINE
  5
CA
  8
0
  6
BYLAYER
 62
  256
 10
88.24999843504854
 20
102.2499996670228
 11
88.24999843504854
 21
88.24999966702282
  0
LINE
  5
CB
  8
0
  6
BYLAYER
 62
  256
 10
102.2499984350485
 20
102.2499996670228
 11
102.2499984350485
 21
88.24999966702282
  0
ARC
  5
CC
  8
0
  6
BYLAYER
 62
  256
 10
88.24999843504854
 20
102.2499996670228
 40
0
 50
90
 51
180
  0
ARC
  5
CD
  8
0
  6
BYLAYER
 62
  256
 10
102.2499984350485
 20
102.2499996670228
 40
0
 50
0
 51
90
  0
ARC
  5
CE
  8
0
  6
BYLAYER
 62
  256
 10
88.24999843504854
 20
88.24999966702282
 40
0
 50
180
 51
270
  0
ARC
  5
CF
  8
0
  6
BYLAYER
 62
  256
 10
102.2499984350485
 20
88.24999966702282
 40
0
 50
270
 51
360
  0
LINE
  5
D0
  8
0
  6
BYLAYER
 62
  256
 10
107.2999984350486
 20
102.2499996670228
 11
121.2999984350486
 21
102.2499996670228
  0
LINE
  5
D1
  8
0
  6
BYLAYER
 62
  256
 10
107.2999984350486
 20
88.24999966702282
 11
121.2999984350486
 21
88.24999966702282
  0
LINE
  5
D2
  8
0
  6
BYLAYER
 62
  256
 10
107.2999984350486
 20
102.2499996670228
 11
107.2999984350486
 21
88.24999966702282
  0
LINE
  5
D3
  8
0
  6
BYLAYER
 62
  256
 10
121.2999984350486
 20
102.2499996670228
 11
121.2999984350486
 21
88.24999966702282
  0
ARC
  5
D4
  8
0
  6
BYLAYER
 62
  256
 10
107.2999984350486
 20
102.2499996670228
 40
0
 50
90
 51
180
  0
ARC
  5
D5
  8
0
  6
BYLAYER
 62
  256
 10
121.2999984350486
 20
102.2499996670228
 40
0
 50
0
 51
90
  0
ARC
  5
D6
  8
0
  6
BYLAYER
 62
  256
 10
107.2999984350486
 20
88.24999966702282
 40
0
 50
180
 51
270
  0
ARC
  5
D7
  8
0
  6
BYLAYER
 62
  256
 10
121.2999984350486
 20
88.24999966702282
 40
0
 50
270
 51
360
  0
LINE
  5
D8
  8
0
  6
BYLAYER
 62
  256
 10
126.3499984350485
 20
102.2499996670228
 11
140.3499984350485
 21
102.2499996670228
  0
LINE
  5
D9
  8
0
  6
BYLAYER
 62
  256
 10
126.3499984350485
 20
88.24999966702282
 11
140.3499984350485
 21
88.24999966702282
  0
LINE
  5
DA
  8
0
  6
BYLAYER
 62
  256
 10
126.3499984350485
 20
102.2499996670228
 11
126.3499984350485
 21
88.24999966702282
  0
LINE
  5
DB
  8
0
  6
BYLAYER
 62
  256
 10
140.3499984350485
 20
102.2499996670228
 11
140.3499984350485
 21
88.24999966702282
  0
ARC
  5
DC
  8
0
  6
BYLAYER
 62
  256
 10
126.3499984350485
 20
102.2499996670228
 40
0
 50
90
 51
180
  0
ARC
  5
DD
  8
0
  6
BYLAYER
 62
  256
 10
140.3499984350485
 20
102.2499996670228
 40
0
 50
0
 51
90
  0
ARC
  5
DE
  8
0
  6
BYLAYER
 62
  256
 10
126.3499984350485
 20
88.24999966702282
 40
0
 50
180
 51
270
  0
ARC
  5
DF
  8
0
  6
BYLAYER
 62
  256
 10
140.3499984350485
 20
88.24999966702282
 40
0
 50
270
 51
360
  0
LINE
  5
E0
  8
0
  6
BYLAYER
 62
  256
 10
145.3999984350486
 20
102.2499996670228
 11
159.3999984350486
 21
102.2499996670228
  0
LINE
  5
E1
  8
0
  6
BYLAYER
 62
  256
 10
145.3999984350486
 20
88.24999966702282
 11
159.3999984350486
 21
88.24999966702282
  0
LINE
  5
E2
  8
0
  6
BYLAYER
 62
  256
 10
145.3999984350486
 20
102.2499996670228
 11
145.3999984350486
 21
88.24999966702282
  0
LINE
  5
E3
  8
0
  6
BYLAYER
 62
  256
 10
159.3999984350486
 20
102.2499996670228
 11
159.3999984350486
 21
88.24999966702282
  0
ARC
  5
E4
  8
0
  6
BYLAYER
 62
  256
 10
145.3999984350486
 20
102.2499996670228
 40
0
 50
90
 51
180
  0
ARC
  5
E5
  8
0
  6
BYLAYER
 62
  256
 10
159.3999984350486
 20
102.2499996670228
 40
0
 50
0
 51
90
  0
ARC
  5
E6
  8
0
  6
BYLAYER
 62
  256
 10
145.3999984350486
 20
88.24999966702282
 40
0
 50
180
 51
270
  0
ARC
  5
E7
  8
0
  6
BYLAYER
 62
  256
 10
159.3999984350486
 20
88.24999966702282
 40
0
 50
270
 51
360
  0
LINE
  5
E8
  8
0
  6
BYLAYER
 62
  256
 10
164.4499984350486
 20
102.2499996670228
 11
178.4499984350486
 21
102.2499996670228
  0
LINE
  5
E9
  8
0
  6
BYLAYER
 62
  256
 10
164.4499984350486
 20
88.24999966702282
 11
178.4499984350486
 21
88.24999966702282
  0
LINE
  5
EA
  8
0
  6
BYLAYER
 62
  256
 10
164.4499984350486
 20
102.2499996670228
 11
164.4499984350486
 21
88.24999966702282
  0
LINE
  5
EB
  8
0
  6
BYLAYER
 62
  256
 10
178.4499984350486
 20
102.2499996670228
 11
178.4499984350486
 21
88.24999966702282
  0
ARC
  5
EC
  8
0
  6
BYLAYER
 62
  256
 10
164.4499984350486
 20
102.2499996670228
 40
0
 50
90
 51
180
  0
ARC
  5
ED
  8
0
  6
BYLAYER
 62
  256
 10
178.4499984350486
 20
102.2499996670228
 40
0
 50
0
 51
90
  0
ARC
  5
EE
  8
0
  6
BYLAYER
 62
  256
 10
164.4499984350486
 20
88.24999966702282
 40
0
 50
180
 51
270
  0
ARC
  5
EF
  8
0
  6
BYLAYER
 62
  256
 10
178.4499984350486
 20
88.24999966702282
 40
0
 50
270
 51
360
  0
LINE
  5
F0
  8
0
  6
BYLAYER
 62
  256
 10
183.4999984350486
 20
102.2499996670228
 11
197.4999984350486
 21
102.2499996670228
  0
LINE
  5
F1
  8
0
  6
BYLAYER
 62
  256
 10
183.4999984350486
 20
88.24999966702282
 11
197.4999984350486
 21
88.24999966702282
  0
LINE
  5
F2
  8
0
  6
BYLAYER
 62
  256
 10
183.4999984350486
 20
102.2499996670228
 11
183.4999984350486
 21
88.24999966702282
  0
LINE
  5
F3
  8
0
  6
BYLAYER
 62
  256
 10
197.4999984350486
 20
102.2499996670228
 11
197.4999984350486
 21
88.24999966702282
  0
ARC
  5
F4
  8
0
  6
BYLAYER
 62
  256
 10
183.4999984350486
 20
102.2499996670228
 40
0
 50
90
 51
180
  0
ARC
  5
F5
  8
0
  6
BYLAYER
 62
  256
 10
197.4999984350486
 20
102.2499996670228
 40
0
 50
0
 51
90
  0
ARC
  5
F6
  8
0
  6
BYLAYER
 62
  256
 10
183.4999984350486
 20
88.24999966702282
 40
0
 50
180
 51
270
  0
ARC
  5
F7
  8
0
  6
BYLAYER
 62
  256
 10
197.4999984350486
 20
88.24999966702282
 40
0
 50
270
 51
360
  0
LINE
  5
F8
  8
0
  6
BYLAYER
 62
  256
 10
202.5499984350485
 20
102.2499996670228
 11
216.5499984350485
 21
102.2499996670228
  0
LINE
  5
F9
  8
0
  6
BYLAYER
 62
  256
 10
202.5499984350485
 20
88.24999966702282
 11
216.5499984350485
 21
88.24999966702282
  0
LINE
  5
FA
  8
0
  6
BYLAYER
 62
  256
 10
202.5499984350485
 20
102.2499996670228
 11
202.5499984350485
 21
88.24999966702282
  0
LINE
  5
FB
  8
0
  6
BYLAYER
 62
  256
 10
216.5499984350485
 20
102.2499996670228
 11
216.5499984350485
 21
88.24999966702282
  0
ARC
  5
FC
  8
0
  6
BYLAYER
 62
  256
 10
202.5499984350485
 20
102.2499996670228
 40
0
 50
90
 51
180
  0
ARC
  5
FD
  8
0
  6
BYLAYER
 62
  256
 10
216.5499984350485
 20
102.2499996670228
 40
0
 50
0
 51
90
  0
ARC
  5
FE
  8
0
  6
BYLAYER
 62
  256
 10
202.5499984350485
 20
88.24999966702282
 40
0
 50
180
 51
270
  0
ARC
  5
FF
  8
0
  6
BYLAYER
 62
  256
 10
216.5499984350485
 20
88.24999966702282
 40
0
 50
270
 51
360
  0
LINE
  5
100
  8
0
  6
BYLAYER
 62
  256
 10
221.5999984350485
 20
102.2499996670228
 11
235.5999984350485
 21
102.2499996670228
  0
LINE
  5
101
  8
0
  6
BYLAYER
 62
  256
 10
221.5999984350485
 20
88.24999966702282
 11
235.5999984350485
 21
88.24999966702282
  0
LINE
  5
102
  8
0
  6
BYLAYER
 62
  256
 10
221.5999984350485
 20
102.2499996670228
 11
221.5999984350485
 21
88.24999966702282
  0
LINE
  5
103
  8
0
  6
BYLAYER
 62
  256
 10
235.5999984350485
 20
102.2499996670228
 11
235.5999984350485
 21
88.24999966702282
  0
ARC
  5
104
  8
0
  6
BYLAYER
 62
  256
 10
221.5999984350485
 20
102.2499996670228
 40
0
 50
90
 51
180
  0
ARC
  5
105
  8
0
  6
BYLAYER
 62
  256
 10
235.5999984350485
 20
102.2499996670228
 40
0
 50
0
 51
90
  0
ARC
  5
106
  8
0
  6
BYLAYER
 62
  256
 10
221.5999984350485
 20
88.24999966702282
 40
0
 50
180
 51
270
  0
ARC
  5
107
  8
0
  6
BYLAYER
 62
  256
 10
235.5999984350485
 20
88.24999966702282
 40
0
 50
270
 51
360
  0
LINE
  5
108
  8
0
  6
BYLAYER
 62
  256
 10
240.6499984350486
 20
102.2499996670228
 11
254.6499984350486
 21
102.2499996670228
  0
LINE
  5
109
  8
0
  6
BYLAYER
 62
  256
 10
240.6499984350486
 20
88.24999966702282
 11
254.6499984350486
 21
88.24999966702282
  0
LINE
  5
10A
  8
0
  6
BYLAYER
 62
  256
 10
240.6499984350486
 20
102.2499996670228
 11
240.6499984350486
 21
88.24999966702282
  0
LINE
  5
10B
  8
0
  6
BYLAYER
 62
  256
 10
254.6499984350486
 20
102.2499996670228
 11
254.6499984350486
 21
88.24999966702282
  0
ARC
  5
10C
  8
0
  6
BYLAYER
 62
  256
 10
240.6499984350486
 20
102.2499996670228
 40
0
 50
90
 51
180
  0
ARC
  5
10D
  8
0
  6
BYLAYER
 62
  256
 10
254.6499984350486
 20
102.2499996670228
 40
0
 50
0
 51
90
  0
ARC
  5
10E
  8
0
  6
BYLAYER
 62
  256
 10
240.6499984350486
 20
88.24999966702282
 40
0
 50
180
 51
270
  0
ARC
  5
10F
  8
0
  6
BYLAYER
 62
  256
 10
254.6499984350486
 20
88.24999966702282
 40
0
 50
270
 51
360
  0
LINE
  5
110
  8
0
  6
BYLAYER
 62
  256
 10
259.6999984350485
 20
102.2499996670228
 11
273.6999984350485
 21
102.2499996670228
  0
LINE
  5
111
  8
0
  6
BYLAYER
 62
  256
 10
259.6999984350485
 20
88.24999966702282
 11
273.6999984350485
 21
88.24999966702282
  0
LINE
  5
112
  8
0
  6
BYLAYER
 62
  256
 10
259.6999984350485
 20
102.2499996670228
 11
259.6999984350485
 21
88.24999966702282
  0
LINE
  5
113
  8
0
  6
BYLAYER
 62
  256
 10
273.6999984350485
 20
102.2499996670228
 11
273.6999984350485
 21
88.24999966702282
  0
ARC
  5
114
  8
0
  6
BYLAYER
 62
  256
 10
259.6999984350485
 20
102.2499996670228
 40
0
 50
90
 51
180
  0
ARC
  5
115
  8
0
  6
BYLAYER
 62
  256
 10
273.6999984350485
 20
102.2499996670228
 40
0
 50
0
 51
90
  0
ARC
  5
116
  8
0
  6
BYLAYER
 62
  256
 10
259.6999984350485
 20
88.24999966702282
 40
0
 50
180
 51
270
  0
ARC
  5
117
  8
0
  6
BYLAYER
 62
  256
 10
273.6999984350485
 20
88.24999966702282
 40
0
 50
270
 51
360
  0
LINE
  5
118
  8
0
  6
BYLAYER
 62
  256
 10
278.7499984350486
 20
102.2499996670228
 11
292.7499984350486
 21
102.2499996670228
  0
LINE
  5
119
  8
0
  6
BYLAYER
 62
  256
 10
278.7499984350486
 20
88.24999966702282
 11
292.7499984350486
 21
88.24999966702282
  0
LINE
  5
11A
  8
0
  6
BYLAYER
 62
  256
 10
278.7499984350486
 20
102.2499996670228
 11
278.7499984350486
 21
88.24999966702282
  0
LINE
  5
11B
  8
0
  6
BYLAYER
 62
  256
 10
292.7499984350486
 20
102.2499996670228
 11
292.7499984350486
 21
88.24999966702282
  0
ARC
  5
11C
  8
0
  6
BYLAYER
 62
  256
 10
278.7499984350486
 20
102.2499996670228
 40
0
 50
90
 51
180
  0
ARC
  5
11D
  8
0
  6
BYLAYER
 62
  256
 10
292.7499984350486
 20
102.2499996670228
 40
0
 50
0
 51
90
  0
ARC
  5
11E
  8
0
  6
BYLAYER
 62
  256
 10
278.7499984350486
 20
88.24999966702282
 40
0
 50
180
 51
270
  0
ARC
  5
11F
  8
0
  6
BYLAYER
 62
  256
 10
292.7499984350486
 20
88.24999966702282
 40
0
 50
270
 51
360
  0
LINE
  5
120
  8
0
  6
BYLAYER
 62
  256
 10
297.7999984350485
 20
102.2499996670228
 11
311.7999984350485
 21
102.2499996670228
  0
LINE
  5
121
  8
0
  6
BYLAYER
 62
  256
 10
297.7999984350485
 20
88.24999966702282
 11
311.7999984350485
 21
88.24999966702282
  0
LINE
  5
122
  8
0
  6
BYLAYER
 62
  256
 10
297.7999984350485
 20
102.2499996670228
 11
297.7999984350485
 21
88.24999966702282
  0
LINE
  5
123
  8
0
  6
BYLAYER
 62
  256
 10
311.7999984350485
 20
102.2499996670228
 11
311.7999984350485
 21
88.24999966702282
  0
ARC
  5
124
  8
0
  6
BYLAYER
 62
  256
 10
297.7999984350485
 20
102.2499996670228
 40
0
 50
90
 51
180
  0
ARC
  5
125
  8
0
  6
BYLAYER
 62
  256
 10
311.7999984350485
 20
102.2499996670228
 40
0
 50
0
 51
90
  0
ARC
  5
126
  8
0
  6
BYLAYER
 62
  256
 10
297.7999984350485
 20
88.24999966702282
 40
0
 50
180
 51
270
  0
ARC
  5
127
  8
0
  6
BYLAYER
 62
  256
 10
311.7999984350485
 20
88.24999966702282
 40
0
 50
270
 51
360
  0
LINE
  5
128
  8
0
  6
BYLAYER
 62
  256
 10
16.81249843504854
 20
83.19999966702282
 11
30.81249843504854
 21
83.19999966702282
  0
LINE
  5
129
  8
0
  6
BYLAYER
 62
  256
 10
16.81249843504854
 20
69.19999966702282
 11
30.81249843504854
 21
69.19999966702282
  0
LINE
  5
12A
  8
0
  6
BYLAYER
 62
  256
 10
16.81249843504854
 20
83.19999966702282
 11
16.81249843504854
 21
69.19999966702282
  0
LINE
  5
12B
  8
0
  6
BYLAYER
 62
  256
 10
30.81249843504854
 20
83.19999966702282
 11
30.81249843504854
 21
69.19999966702282
  0
ARC
  5
12C
  8
0
  6
BYLAYER
 62
  256
 10
16.81249843504854
 20
83.19999966702282
 40
0
 50
90
 51
180
  0
ARC
  5
12D
  8
0
  6
BYLAYER
 62
  256
 10
30.81249843504854
 20
83.19999966702282
 40
0
 50
0
 51
90
  0
ARC
  5
12E
  8
0
  6
BYLAYER
 62
  256
 10
16.81249843504854
 20
69.19999966702282
 40
0
 50
180
 51
270
  0
ARC
  5
12F
  8
0
  6
BYLAYER
 62
  256
 10
30.81249843504854
 20
69.19999966702282
 40
0
 50
270
 51
360
  0
LINE
  5
130
  8
0
  6
BYLAYER
 62
  256
 10
40.62499843504854
 20
83.19999966702282
 11
54.62499843504854
 21
83.19999966702282
  0
LINE
  5
131
  8
0
  6
BYLAYER
 62
  256
 10
40.62499843504854
 20
69.19999966702282
 11
54.62499843504854
 21
69.19999966702282
  0
LINE
  5
132
  8
0
  6
BYLAYER
 62
  256
 10
40.62499843504854
 20
83.19999966702282
 11
40.62499843504854
 21
69.19999966702282
  0
LINE
  5
133
  8
0
  6
BYLAYER
 62
  256
 10
54.62499843504854
 20
83.19999966702282
 11
54.62499843504854
 21
69.19999966702282
  0
ARC
  5
134
  8
0
  6
BYLAYER
 62
  256
 10
40.62499843504854
 20
83.19999966702282
 40
0
 50
90
 51
180
  0
ARC
  5
135
  8
0
  6
BYLAYER
 62
  256
 10
54.62499843504854
 20
83.19999966702282
 40
0
 50
0
 51
90
  0
ARC
  5
136
  8
0
  6
BYLAYER
 62
  256
 10
40.62499843504854
 20
69.19999966702282
 40
0
 50
180
 51
270
  0
ARC
  5
137
  8
0
  6
BYLAYER
 62
  256
 10
54.62499843504854
 20
69.19999966702282
 40
0
 50
270
 51
360
  0
LINE
  5
138
  8
0
  6
BYLAYER
 62
  256
 10
59.67499843504855
 20
83.19999966702282
 11
73.67499843504855
 21
83.19999966702282
  0
LINE
  5
139
  8
0
  6
BYLAYER
 62
  256
 10
59.67499843504855
 20
69.19999966702282
 11
73.67499843504855
 21
69.19999966702282
  0
LINE
  5
13A
  8
0
  6
BYLAYER
 62
  256
 10
59.67499843504855
 20
83.19999966702282
 11
59.67499843504855
 21
69.19999966702282
  0
LINE
  5
13B
  8
0
  6
BYLAYER
 62
  256
 10
73.67499843504855
 20
83.19999966702282
 11
73.67499843504855
 21
69.19999966702282
  0
ARC
  5
13C
  8
0
  6
BYLAYER
 62
  256
 10
59.67499843504855
 20
83.19999966702282
 40
0
 50
90
 51
180
  0
ARC
  5
13D
  8
0
  6
BYLAYER
 62
  256
 10
73.67499843504855
 20
83.19999966702282
 40
0
 50
0
 51
90
  0
ARC
  5
13E
  8
0
  6
BYLAYER
 62
  256
 10
59.67499843504855
 20
69.19999966702282
 40
0
 50
180
 51
270
  0
ARC
  5
13F
  8
0
  6
BYLAYER
 62
  256
 10
73.67499843504855
 20
69.19999966702282
 40
0
 50
270
 51
360
  0
LINE
  5
140
  8
0
  6
BYLAYER
 62
  256
 10
78.72499843504853
 20
83.19999966702282
 11
92.72499843504853
 21
83.19999966702282
  0
LINE
  5
141
  8
0
  6
BYLAYER
 62
  256
 10
78.72499843504853
 20
69.19999966702282
 11
92.72499843504853
 21
69.19999966702282
  0
LINE
  5
142
  8
0
  6
BYLAYER
 62
  256
 10
78.72499843504853
 20
83.19999966702282
 11
78.72499843504853
 21
69.19999966702282
  0
LINE
  5
143
  8
0
  6
BYLAYER
 62
  256
 10
92.72499843504853
 20
83.19999966702282
 11
92.72499843504853
 21
69.19999966702282
  0
ARC
  5
144
  8
0
  6
BYLAYER
 62
  256
 10
78.72499843504853
 20
83.19999966702282
 40
0
 50
90
 51
180
  0
ARC
  5
145
  8
0
  6
BYLAYER
 62
  256
 10
92.72499843504853
 20
83.19999966702282
 40
0
 50
0
 51
90
  0
ARC
  5
146
  8
0
  6
BYLAYER
 62
  256
 10
78.72499843504853
 20
69.19999966702282
 40
0
 50
180
 51
270
  0
ARC
  5
147
  8
0
  6
BYLAYER
 62
  256
 10
92.72499843504853
 20
69.19999966702282
 40
0
 50
270
 51
360
  0
LINE
  5
148
  8
0
  6
BYLAYER
 62
  256
 10
97.77499843504854
 20
83.19999966702282
 11
111.7749984350485
 21
83.19999966702282
  0
LINE
  5
149
  8
0
  6
BYLAYER
 62
  256
 10
97.77499843504854
 20
69.19999966702282
 11
111.7749984350485
 21
69.19999966702282
  0
LINE
  5
14A
  8
0
  6
BYLAYER
 62
  256
 10
97.77499843504854
 20
83.19999966702282
 11
97.77499843504854
 21
69.19999966702282
  0
LINE
  5
14B
  8
0
  6
BYLAYER
 62
  256
 10
111.7749984350485
 20
83.19999966702282
 11
111.7749984350485
 21
69.19999966702282
  0
ARC
  5
14C
  8
0
  6
BYLAYER
 62
  256
 10
97.77499843504854
 20
83.19999966702282
 40
0
 50
90
 51
180
  0
ARC
  5
14D
  8
0
  6
BYLAYER
 62
  256
 10
111.7749984350485
 20
83.19999966702282
 40
0
 50
0
 51
90
  0
ARC
  5
14E
  8
0
  6
BYLAYER
 62
  256
 10
97.77499843504854
 20
69.19999966702282
 40
0
 50
180
 51
270
  0
ARC
  5
14F
  8
0
  6
BYLAYER
 62
  256
 10
111.7749984350485
 20
69.19999966702282
 40
0
 50
270
 51
360
  0
LINE
  5
150
  8
0
  6
BYLAYER
 62
  256
 10
116.8249984350486
 20
83.19999966702282
 11
130.8249984350486
 21
83.19999966702282
  0
LINE
  5
151
  8
0
  6
BYLAYER
 62
  256
 10
116.8249984350486
 20
69.19999966702282
 11
130.8249984350486
 21
69.19999966702282
  0
LINE
  5
152
  8
0
  6
BYLAYER
 62
  256
 10
116.8249984350486
 20
83.19999966702282
 11
116.8249984350486
 21
69.19999966702282
  0
LINE
  5
153
  8
0
  6
BYLAYER
 62
  256
 10
130.8249984350486
 20
83.19999966702282
 11
130.8249984350486
 21
69.19999966702282
  0
ARC
  5
154
  8
0
  6
BYLAYER
 62
  256
 10
116.8249984350486
 20
83.19999966702282
 40
0
 50
90
 51
180
  0
ARC
  5
155
  8
0
  6
BYLAYER
 62
  256
 10
130.8249984350486
 20
83.19999966702282
 40
0
 50
0
 51
90
  0
ARC
  5
156
  8
0
  6
BYLAYER
 62
  256
 10
116.8249984350486
 20
69.19999966702282
 40
0
 50
180
 51
270
  0
ARC
  5
157
  8
0
  6
BYLAYER
 62
  256
 10
130.8249984350486
 20
69.19999966702282
 40
0
 50
270
 51
360
  0
LINE
  5
158
  8
0
  6
BYLAYER
 62
  256
 10
135.8749984350486
 20
83.19999966702282
 11
149.8749984350486
 21
83.19999966702282
  0
LINE
  5
159
  8
0
  6
BYLAYER
 62
  256
 10
135.8749984350486
 20
69.19999966702282
 11
149.8749984350486
 21
69.19999966702282
  0
LINE
  5
15A
  8
0
  6
BYLAYER
 62
  256
 10
135.8749984350486
 20
83.19999966702282
 11
135.8749984350486
 21
69.19999966702282
  0
LINE
  5
15B
  8
0
  6
BYLAYER
 62
  256
 10
149.8749984350486
 20
83.19999966702282
 11
149.8749984350486
 21
69.19999966702282
  0
ARC
  5
15C
  8
0
  6
BYLAYER
 62
  256
 10
135.8749984350486
 20
83.19999966702282
 40
0
 50
90
 51
180
  0
ARC
  5
15D
  8
0
  6
BYLAYER
 62
  256
 10
149.8749984350486
 20
83.19999966702282
 40
0
 50
0
 51
90
  0
ARC
  5
15E
  8
0
  6
BYLAYER
 62
  256
 10
135.8749984350486
 20
69.19999966702282
 40
0
 50
180
 51
270
  0
ARC
  5
15F
  8
0
  6
BYLAYER
 62
  256
 10
149.8749984350486
 20
69.19999966702282
 40
0
 50
270
 51
360
  0
LINE
  5
160
  8
0
  6
BYLAYER
 62
  256
 10
154.9249984350486
 20
83.19999966702282
 11
168.9249984350485
 21
83.19999966702282
  0
LINE
  5
161
  8
0
  6
BYLAYER
 62
  256
 10
154.9249984350486
 20
69.19999966702282
 11
168.9249984350485
 21
69.19999966702282
  0
LINE
  5
162
  8
0
  6
BYLAYER
 62
  256
 10
154.9249984350486
 20
83.19999966702282
 11
154.9249984350486
 21
69.19999966702282
  0
LINE
  5
163
  8
0
  6
BYLAYER
 62
  256
 10
168.9249984350485
 20
83.19999966702282
 11
168.9249984350485
 21
69.19999966702282
  0
ARC
  5
164
  8
0
  6
BYLAYER
 62
  256
 10
154.9249984350486
 20
83.19999966702282
 40
0
 50
90
 51
180
  0
ARC
  5
165
  8
0
  6
BYLAYER
 62
  256
 10
168.9249984350485
 20
83.19999966702282
 40
0
 50
0
 51
90
  0
ARC
  5
166
  8
0
  6
BYLAYER
 62
  256
 10
154.9249984350486
 20
69.19999966702282
 40
0
 50
180
 51
270
  0
ARC
  5
167
  8
0
  6
BYLAYER
 62
  256
 10
168.9249984350485
 20
69.19999966702282
 40
0
 50
270
 51
360
  0
LINE
  5
168
  8
0
  6
BYLAYER
 62
  256
 10
173.9749984350485
 20
83.19999966702282
 11
187.9749984350485
 21
83.19999966702282
  0
LINE
  5
169
  8
0
  6
BYLAYER
 62
  256
 10
173.9749984350485
 20
69.19999966702282
 11
187.9749984350485
 21
69.19999966702282
  0
LINE
  5
16A
  8
0
  6
BYLAYER
 62
  256
 10
173.9749984350485
 20
83.19999966702282
 11
173.9749984350485
 21
69.19999966702282
  0
LINE
  5
16B
  8
0
  6
BYLAYER
 62
  256
 10
187.9749984350485
 20
83.19999966702282
 11
187.9749984350485
 21
69.19999966702282
  0
ARC
  5
16C
  8
0
  6
BYLAYER
 62
  256
 10
173.9749984350485
 20
83.19999966702282
 40
0
 50
90
 51
180
  0
ARC
  5
16D
  8
0
  6
BYLAYER
 62
  256
 10
187.9749984350485
 20
83.19999966702282
 40
0
 50
0
 51
90
  0
ARC
  5
16E
  8
0
  6
BYLAYER
 62
  256
 10
173.9749984350485
 20
69.19999966702282
 40
0
 50
180
 51
270
  0
ARC
  5
16F
  8
0
  6
BYLAYER
 62
  256
 10
187.9749984350485
 20
69.19999966702282
 40
0
 50
270
 51
360
  0
LINE
  5
170
  8
0
  6
BYLAYER
 62
  256
 10
193.0249984350486
 20
83.19999966702282
 11
207.0249984350486
 21
83.19999966702282
  0
LINE
  5
171
  8
0
  6
BYLAYER
 62
  256
 10
193.0249984350486
 20
69.19999966702282
 11
207.0249984350486
 21
69.19999966702282
  0
LINE
  5
172
  8
0
  6
BYLAYER
 62
  256
 10
193.0249984350486
 20
83.19999966702282
 11
193.0249984350486
 21
69.19999966702282
  0
LINE
  5
173
  8
0
  6
BYLAYER
 62
  256
 10
207.0249984350486
 20
83.19999966702282
 11
207.0249984350486
 21
69.19999966702282
  0
ARC
  5
174
  8
0
  6
BYLAYER
 62
  256
 10
193.0249984350486
 20
83.19999966702282
 40
0
 50
90
 51
180
  0
ARC
  5
175
  8
0
  6
BYLAYER
 62
  256
 10
207.0249984350486
 20
83.19999966702282
 40
0
 50
0
 51
90
  0
ARC
  5
176
  8
0
  6
BYLAYER
 62
  256
 10
193.0249984350486
 20
69.19999966702282
 40
0
 50
180
 51
270
  0
ARC
  5
177
  8
0
  6
BYLAYER
 62
  256
 10
207.0249984350486
 20
69.19999966702282
 40
0
 50
270
 51
360
  0
LINE
  5
178
  8
0
  6
BYLAYER
 62
  256
 10
212.0749984350486
 20
83.19999966702282
 11
226.0749984350486
 21
83.19999966702282
  0
LINE
  5
179
  8
0
  6
BYLAYER
 62
  256
 10
212.0749984350486
 20
69.19999966702282
 11
226.0749984350486
 21
69.19999966702282
  0
LINE
  5
17A
  8
0
  6
BYLAYER
 62
  256
 10
212.0749984350486
 20
83.19999966702282
 11
212.0749984350486
 21
69.19999966702282
  0
LINE
  5
17B
  8
0
  6
BYLAYER
 62
  256
 10
226.0749984350486
 20
83.19999966702282
 11
226.0749984350486
 21
69.19999966702282
  0
ARC
  5
17C
  8
0
  6
BYLAYER
 62
  256
 10
212.0749984350486
 20
83.19999966702282
 40
0
 50
90
 51
180
  0
ARC
  5
17D
  8
0
  6
BYLAYER
 62
  256
 10
226.0749984350486
 20
83.19999966702282
 40
0
 50
0
 51
90
  0
ARC
  5
17E
  8
0
  6
BYLAYER
 62
  256
 10
212.0749984350486
 20
69.19999966702282
 40
0
 50
180
 51
270
  0
ARC
  5
17F
  8
0
  6
BYLAYER
 62
  256
 10
226.0749984350486
 20
69.19999966702282
 40
0
 50
270
 51
360
  0
LINE
  5
180
  8
0
  6
BYLAYER
 62
  256
 10
231.1249984350486
 20
83.19999966702282
 11
245.1249984350486
 21
83.19999966702282
  0
LINE
  5
181
  8
0
  6
BYLAYER
 62
  256
 10
231.1249984350486
 20
69.19999966702282
 11
245.1249984350486
 21
69.19999966702282
  0
LINE
  5
182
  8
0
  6
BYLAYER
 62
  256
 10
231.1249984350486
 20
83.19999966702282
 11
231.1249984350486
 21
69.19999966702282
  0
LINE
  5
183
  8
0
  6
BYLAYER
 62
  256
 10
245.1249984350486
 20
83.19999966702282
 11
245.1249984350486
 21
69.19999966702282
  0
ARC
  5
184
  8
0
  6
BYLAYER
 62
  256
 10
231.1249984350486
 20
83.19999966702282
 40
0
 50
90
 51
180
  0
ARC
  5
185
  8
0
  6
BYLAYER
 62
  256
 10
245.1249984350486
 20
83.19999966702282
 40
0
 50
0
 51
90
  0
ARC
  5
186
  8
0
  6
BYLAYER
 62
  256
 10
231.1249984350486
 20
69.19999966702282
 40
0
 50
180
 51
270
  0
ARC
  5
187
  8
0
  6
BYLAYER
 62
  256
 10
245.1249984350486
 20
69.19999966702282
 40
0
 50
270
 51
360
  0
LINE
  5
188
  8
0
  6
BYLAYER
 62
  256
 10
250.1749984350485
 20
83.19999966702282
 11
264.1749984350485
 21
83.19999966702282
  0
LINE
  5
189
  8
0
  6
BYLAYER
 62
  256
 10
250.1749984350485
 20
69.19999966702282
 11
264.1749984350485
 21
69.19999966702282
  0
LINE
  5
18A
  8
0
  6
BYLAYER
 62
  256
 10
250.1749984350485
 20
83.19999966702282
 11
250.1749984350485
 21
69.19999966702282
  0
LINE
  5
18B
  8
0
  6
BYLAYER
 62
  256
 10
264.1749984350485
 20
83.19999966702282
 11
264.1749984350485
 21
69.19999966702282
  0
ARC
  5
18C
  8
0
  6
BYLAYER
 62
  256
 10
250.1749984350485
 20
83.19999966702282
 40
0
 50
90
 51
180
  0
ARC
  5
18D
  8
0
  6
BYLAYER
 62
  256
 10
264.1749984350485
 20
83.19999966702282
 40
0
 50
0
 51
90
  0
ARC
  5
18E
  8
0
  6
BYLAYER
 62
  256
 10
250.1749984350485
 20
69.19999966702282
 40
0
 50
180
 51
270
  0
ARC
  5
18F
  8
0
  6
BYLAYER
 62
  256
 10
264.1749984350485
 20
69.19999966702282
 40
0
 50
270
 51
360
  0
LINE
  5
190
  8
0
  6
BYLAYER
 62
  256
 10
273.9874984350485
 20
83.19999966702282
 11
287.9874984350485
 21
83.19999966702282
  0
LINE
  5
191
  8
0
  6
BYLAYER
 62
  256
 10
273.9874984350485
 20
69.19999966702282
 11
287.9874984350485
 21
69.19999966702282
  0
LINE
  5
192
  8
0
  6
BYLAYER
 62
  256
 10
273.9874984350485
 20
83.19999966702282
 11
273.9874984350485
 21
69.19999966702282
  0
LINE
  5
193
  8
0
  6
BYLAYER
 62
  256
 10
287.9874984350485
 20
83.19999966702282
 11
287.9874984350485
 21
69.19999966702282
  0
ARC
  5
194
  8
0
  6
BYLAYER
 62
  256
 10
273.9874984350485
 20
83.19999966702282
 40
0
 50
90
 51
180
  0
ARC
  5
195
  8
0
  6
BYLAYER
 62
  256
 10
287.9874984350485
 20
83.19999966702282
 40
0
 50
0
 51
90
  0
ARC
  5
196
  8
0
  6
BYLAYER
 62
  256
 10
273.9874984350485
 20
69.19999966702282
 40
0
 50
180
 51
270
  0
ARC
  5
197
  8
0
  6
BYLAYER
 62
  256
 10
287.9874984350485
 20
69.19999966702282
 40
0
 50
270
 51
360
  0
LINE
  5
198
  8
0
  6
BYLAYER
 62
  256
 10
297.7999984350485
 20
83.19999966702282
 11
311.7999984350485
 21
83.19999966702282
  0
LINE
  5
199
  8
0
  6
BYLAYER
 62
  256
 10
297.7999984350485
 20
69.19999966702282
 11
311.7999984350485
 21
69.19999966702282
  0
LINE
  5
19A
  8
0
  6
BYLAYER
 62
  256
 10
297.7999984350485
 20
83.19999966702282
 11
297.7999984350485
 21
69.19999966702282
  0
LINE
  5
19B
  8
0
  6
BYLAYER
 62
  256
 10
311.7999984350485
 20
83.19999966702282
 11
311.7999984350485
 21
69.19999966702282
  0
ARC
  5
19C
  8
0
  6
BYLAYER
 62
  256
 10
297.7999984350485
 20
83.19999966702282
 40
0
 50
90
 51
180
  0
ARC
  5
19D
  8
0
  6
BYLAYER
 62
  256
 10
311.7999984350485
 20
83.19999966702282
 40
0
 50
0
 51
90
  0
ARC
  5
19E
  8
0
  6
BYLAYER
 62
  256
 10
297.7999984350485
 20
69.19999966702282
 40
0
 50
180
 51
270
  0
ARC
  5
19F
  8
0
  6
BYLAYER
 62
  256
 10
311.7999984350485
 20
69.19999966702282
 40
0
 50
270
 51
360
  0
LINE
  5
1A0
  8
0
  6
BYLAYER
 62
  256
 10
14.43124843504855
 20
64.14999966702283
 11
28.43124843504855
 21
64.14999966702283
  0
LINE
  5
1A1
  8
0
  6
BYLAYER
 62
  256
 10
14.43124843504855
 20
50.14999966702283
 11
28.43124843504855
 21
50.14999966702283
  0
LINE
  5
1A2
  8
0
  6
BYLAYER
 62
  256
 10
14.43124843504855
 20
64.14999966702283
 11
14.43124843504855
 21
50.14999966702283
  0
LINE
  5
1A3
  8
0
  6
BYLAYER
 62
  256
 10
28.43124843504855
 20
64.14999966702283
 11
28.43124843504855
 21
50.14999966702283
  0
ARC
  5
1A4
  8
0
  6
BYLAYER
 62
  256
 10
14.43124843504855
 20
64.14999966702283
 40
0
 50
90
 51
180
  0
ARC
  5
1A5
  8
0
  6
BYLAYER
 62
  256
 10
28.43124843504855
 20
64.14999966702283
 40
0
 50
0
 51
90
  0
ARC
  5
1A6
  8
0
  6
BYLAYER
 62
  256
 10
14.43124843504855
 20
50.14999966702283
 40
0
 50
180
 51
270
  0
ARC
  5
1A7
  8
0
  6
BYLAYER
 62
  256
 10
28.43124843504855
 20
50.14999966702283
 40
0
 50
270
 51
360
  0
LINE
  5
1A8
  8
0
  6
BYLAYER
 62
  256
 10
45.38749843504856
 20
64.14999966702283
 11
59.38749843504856
 21
64.14999966702283
  0
LINE
  5
1A9
  8
0
  6
BYLAYER
 62
  256
 10
45.38749843504856
 20
50.14999966702283
 11
59.38749843504856
 21
50.14999966702283
  0
LINE
  5
1AA
  8
0
  6
BYLAYER
 62
  256
 10
45.38749843504856
 20
64.14999966702283
 11
45.38749843504856
 21
50.14999966702283
  0
LINE
  5
1AB
  8
0
  6
BYLAYER
 62
  256
 10
59.38749843504856
 20
64.14999966702283
 11
59.38749843504856
 21
50.14999966702283
  0
ARC
  5
1AC
  8
0
  6
BYLAYER
 62
  256
 10
45.38749843504856
 20
64.14999966702283
 40
0
 50
90
 51
180
  0
ARC
  5
1AD
  8
0
  6
BYLAYER
 62
  256
 10
59.38749843504856
 20
64.14999966702283
 40
0
 50
0
 51
90
  0
ARC
  5
1AE
  8
0
  6
BYLAYER
 62
  256
 10
45.38749843504856
 20
50.14999966702283
 40
0
 50
180
 51
270
  0
ARC
  5
1AF
  8
0
  6
BYLAYER
 62
  256
 10
59.38749843504856
 20
50.14999966702283
 40
0
 50
270
 51
360
  0
LINE
  5
1B0
  8
0
  6
BYLAYER
 62
  256
 10
64.43749843504854
 20
64.14999966702283
 11
78.43749843504854
 21
64.14999966702283
  0
LINE
  5
1B1
  8
0
  6
BYLAYER
 62
  256
 10
64.43749843504854
 20
50.14999966702283
 11
78.43749843504854
 21
50.14999966702283
  0
LINE
  5
1B2
  8
0
  6
BYLAYER
 62
  256
 10
64.43749843504854
 20
64.14999966702283
 11
64.43749843504854
 21
50.14999966702283
  0
LINE
  5
1B3
  8
0
  6
BYLAYER
 62
  256
 10
78.43749843504854
 20
64.14999966702283
 11
78.43749843504854
 21
50.14999966702283
  0
ARC
  5
1B4
  8
0
  6
BYLAYER
 62
  256
 10
64.43749843504854
 20
64.14999966702283
 40
0
 50
90
 51
180
  0
ARC
  5
1B5
  8
0
  6
BYLAYER
 62
  256
 10
78.43749843504854
 20
64.14999966702283
 40
0
 50
0
 51
90
  0
ARC
  5
1B6
  8
0
  6
BYLAYER
 62
  256
 10
64.43749843504854
 20
50.14999966702283
 40
0
 50
180
 51
270
  0
ARC
  5
1B7
  8
0
  6
BYLAYER
 62
  256
 10
78.43749843504854
 20
50.14999966702283
 40
0
 50
270
 51
360
  0
LINE
  5
1B8
  8
0
  6
BYLAYER
 62
  256
 10
83.48749843504855
 20
64.14999966702283
 11
97.48749843504855
 21
64.14999966702283
  0
LINE
  5
1B9
  8
0
  6
BYLAYER
 62
  256
 10
83.48749843504855
 20
50.14999966702283
 11
97.48749843504855
 21
50.14999966702283
  0
LINE
  5
1BA
  8
0
  6
BYLAYER
 62
  256
 10
83.48749843504855
 20
64.14999966702283
 11
83.48749843504855
 21
50.14999966702283
  0
LINE
  5
1BB
  8
0
  6
BYLAYER
 62
  256
 10
97.48749843504855
 20
64.14999966702283
 11
97.48749843504855
 21
50.14999966702283
  0
ARC
  5
1BC
  8
0
  6
BYLAYER
 62
  256
 10
83.48749843504855
 20
64.14999966702283
 40
0
 50
90
 51
180
  0
ARC
  5
1BD
  8
0
  6
BYLAYER
 62
  256
 10
97.48749843504855
 20
64.14999966702283
 40
0
 50
0
 51
90
  0
ARC
  5
1BE
  8
0
  6
BYLAYER
 62
  256
 10
83.48749843504855
 20
50.14999966702283
 40
0
 50
180
 51
270
  0
ARC
  5
1BF
  8
0
  6
BYLAYER
 62
  256
 10
97.48749843504855
 20
50.14999966702283
 40
0
 50
270
 51
360
  0
LINE
  5
1C0
  8
0
  6
BYLAYER
 62
  256
 10
102.5374984350485
 20
64.14999966702283
 11
116.5374984350485
 21
64.14999966702283
  0
LINE
  5
1C1
  8
0
  6
BYLAYER
 62
  256
 10
102.5374984350485
 20
50.14999966702283
 11
116.5374984350485
 21
50.14999966702283
  0
LINE
  5
1C2
  8
0
  6
BYLAYER
 62
  256
 10
102.5374984350485
 20
64.14999966702283
 11
102.5374984350485
 21
50.14999966702283
  0
LINE
  5
1C3
  8
0
  6
BYLAYER
 62
  256
 10
116.5374984350485
 20
64.14999966702283
 11
116.5374984350485
 21
50.14999966702283
  0
ARC
  5
1C4
  8
0
  6
BYLAYER
 62
  256
 10
102.5374984350485
 20
64.14999966702283
 40
0
 50
90
 51
180
  0
ARC
  5
1C5
  8
0
  6
BYLAYER
 62
  256
 10
116.5374984350485
 20
64.14999966702283
 40
0
 50
0
 51
90
  0
ARC
  5
1C6
  8
0
  6
BYLAYER
 62
  256
 10
102.5374984350485
 20
50.14999966702283
 40
0
 50
180
 51
270
  0
ARC
  5
1C7
  8
0
  6
BYLAYER
 62
  256
 10
116.5374984350485
 20
50.14999966702283
 40
0
 50
270
 51
360
  0
LINE
  5
1C8
  8
0
  6
BYLAYER
 62
  256
 10
121.5874984350485
 20
64.14999966702283
 11
135.5874984350486
 21
64.14999966702283
  0
LINE
  5
1C9
  8
0
  6
BYLAYER
 62
  256
 10
121.5874984350485
 20
50.14999966702283
 11
135.5874984350486
 21
50.14999966702283
  0
LINE
  5
1CA
  8
0
  6
BYLAYER
 62
  256
 10
121.5874984350485
 20
64.14999966702283
 11
121.5874984350485
 21
50.14999966702283
  0
LINE
  5
1CB
  8
0
  6
BYLAYER
 62
  256
 10
135.5874984350486
 20
64.14999966702283
 11
135.5874984350486
 21
50.14999966702283
  0
ARC
  5
1CC
  8
0
  6
BYLAYER
 62
  256
 10
121.5874984350485
 20
64.14999966702283
 40
0
 50
90
 51
180
  0
ARC
  5
1CD
  8
0
  6
BYLAYER
 62
  256
 10
135.5874984350486
 20
64.14999966702283
 40
0
 50
0
 51
90
  0
ARC
  5
1CE
  8
0
  6
BYLAYER
 62
  256
 10
121.5874984350485
 20
50.14999966702283
 40
0
 50
180
 51
270
  0
ARC
  5
1CF
  8
0
  6
BYLAYER
 62
  256
 10
135.5874984350486
 20
50.14999966702283
 40
0
 50
270
 51
360
  0
LINE
  5
1D0
  8
0
  6
BYLAYER
 62
  256
 10
140.6374984350486
 20
64.14999966702283
 11
154.6374984350486
 21
64.14999966702283
  0
LINE
  5
1D1
  8
0
  6
BYLAYER
 62
  256
 10
140.6374984350486
 20
50.14999966702283
 11
154.6374984350486
 21
50.14999966702283
  0
LINE
  5
1D2
  8
0
  6
BYLAYER
 62
  256
 10
140.6374984350486
 20
64.14999966702283
 11
140.6374984350486
 21
50.14999966702283
  0
LINE
  5
1D3
  8
0
  6
BYLAYER
 62
  256
 10
154.6374984350486
 20
64.14999966702283
 11
154.6374984350486
 21
50.14999966702283
  0
ARC
  5
1D4
  8
0
  6
BYLAYER
 62
  256
 10
140.6374984350486
 20
64.14999966702283
 40
0
 50
90
 51
180
  0
ARC
  5
1D5
  8
0
  6
BYLAYER
 62
  256
 10
154.6374984350486
 20
64.14999966702283
 40
0
 50
0
 51
90
  0
ARC
  5
1D6
  8
0
  6
BYLAYER
 62
  256
 10
140.6374984350486
 20
50.14999966702283
 40
0
 50
180
 51
270
  0
ARC
  5
1D7
  8
0
  6
BYLAYER
 62
  256
 10
154.6374984350486
 20
50.14999966702283
 40
0
 50
270
 51
360
  0
LINE
  5
1D8
  8
0
  6
BYLAYER
 62
  256
 10
159.6874984350486
 20
64.14999966702283
 11
173.6874984350486
 21
64.14999966702283
  0
LINE
  5
1D9
  8
0
  6
BYLAYER
 62
  256
 10
159.6874984350486
 20
50.14999966702283
 11
173.6874984350486
 21
50.14999966702283
  0
LINE
  5
1DA
  8
0
  6
BYLAYER
 62
  256
 10
159.6874984350486
 20
64.14999966702283
 11
159.6874984350486
 21
50.14999966702283
  0
LINE
  5
1DB
  8
0
  6
BYLAYER
 62
  256
 10
173.6874984350486
 20
64.14999966702283
 11
173.6874984350486
 21
50.14999966702283
  0
ARC
  5
1DC
  8
0
  6
BYLAYER
 62
  256
 10
159.6874984350486
 20
64.14999966702283
 40
0
 50
90
 51
180
  0
ARC
  5
1DD
  8
0
  6
BYLAYER
 62
  256
 10
173.6874984350486
 20
64.14999966702283
 40
0
 50
0
 51
90
  0
ARC
  5
1DE
  8
0
  6
BYLAYER
 62
  256
 10
159.6874984350486
 20
50.14999966702283
 40
0
 50
180
 51
270
  0
ARC
  5
1DF
  8
0
  6
BYLAYER
 62
  256
 10
173.6874984350486
 20
50.14999966702283
 40
0
 50
270
 51
360
  0
LINE
  5
1E0
  8
0
  6
BYLAYER
 62
  256
 10
178.7374984350485
 20
64.14999966702283
 11
192.7374984350485
 21
64.14999966702283
  0
LINE
  5
1E1
  8
0
  6
BYLAYER
 62
  256
 10
178.7374984350485
 20
50.14999966702283
 11
192.7374984350485
 21
50.14999966702283
  0
LINE
  5
1E2
  8
0
  6
BYLAYER
 62
  256
 10
178.7374984350485
 20
64.14999966702283
 11
178.7374984350485
 21
50.14999966702283
  0
LINE
  5
1E3
  8
0
  6
BYLAYER
 62
  256
 10
192.7374984350485
 20
64.14999966702283
 11
192.7374984350485
 21
50.14999966702283
  0
ARC
  5
1E4
  8
0
  6
BYLAYER
 62
  256
 10
178.7374984350485
 20
64.14999966702283
 40
0
 50
90
 51
180
  0
ARC
  5
1E5
  8
0
  6
BYLAYER
 62
  256
 10
192.7374984350485
 20
64.14999966702283
 40
0
 50
0
 51
90
  0
ARC
  5
1E6
  8
0
  6
BYLAYER
 62
  256
 10
178.7374984350485
 20
50.14999966702283
 40
0
 50
180
 51
270
  0
ARC
  5
1E7
  8
0
  6
BYLAYER
 62
  256
 10
192.7374984350485
 20
50.14999966702283
 40
0
 50
270
 51
360
  0
LINE
  5
1E8
  8
0
  6
BYLAYER
 62
  256
 10
197.7874984350485
 20
64.14999966702283
 11
211.7874984350485
 21
64.14999966702283
  0
LINE
  5
1E9
  8
0
  6
BYLAYER
 62
  256
 10
197.7874984350485
 20
50.14999966702283
 11
211.7874984350485
 21
50.14999966702283
  0
LINE
  5
1EA
  8
0
  6
BYLAYER
 62
  256
 10
197.7874984350485
 20
64.14999966702283
 11
197.7874984350485
 21
50.14999966702283
  0
LINE
  5
1EB
  8
0
  6
BYLAYER
 62
  256
 10
211.7874984350485
 20
64.14999966702283
 11
211.7874984350485
 21
50.14999966702283
  0
ARC
  5
1EC
  8
0
  6
BYLAYER
 62
  256
 10
197.7874984350485
 20
64.14999966702283
 40
0
 50
90
 51
180
  0
ARC
  5
1ED
  8
0
  6
BYLAYER
 62
  256
 10
211.7874984350485
 20
64.14999966702283
 40
0
 50
0
 51
90
  0
ARC
  5
1EE
  8
0
  6
BYLAYER
 62
  256
 10
197.7874984350485
 20
50.14999966702283
 40
0
 50
180
 51
270
  0
ARC
  5
1EF
  8
0
  6
BYLAYER
 62
  256
 10
211.7874984350485
 20
50.14999966702283
 40
0
 50
270
 51
360
  0
LINE
  5
1F0
  8
0
  6
BYLAYER
 62
  256
 10
216.8374984350486
 20
64.14999966702283
 11
230.8374984350486
 21
64.14999966702283
  0
LINE
  5
1F1
  8
0
  6
BYLAYER
 62
  256
 10
216.8374984350486
 20
50.14999966702283
 11
230.8374984350486
 21
50.14999966702283
  0
LINE
  5
1F2
  8
0
  6
BYLAYER
 62
  256
 10
216.8374984350486
 20
64.14999966702283
 11
216.8374984350486
 21
50.14999966702283
  0
LINE
  5
1F3
  8
0
  6
BYLAYER
 62
  256
 10
230.8374984350486
 20
64.14999966702283
 11
230.8374984350486
 21
50.14999966702283
  0
ARC
  5
1F4
  8
0
  6
BYLAYER
 62
  256
 10
216.8374984350486
 20
64.14999966702283
 40
0
 50
90
 51
180
  0
ARC
  5
1F5
  8
0
  6
BYLAYER
 62
  256
 10
230.8374984350486
 20
64.14999966702283
 40
0
 50
0
 51
90
  0
ARC
  5
1F6
  8
0
  6
BYLAYER
 62
  256
 10
216.8374984350486
 20
50.14999966702283
 40
0
 50
180
 51
270
  0
ARC
  5
1F7
  8
0
  6
BYLAYER
 62
  256
 10
230.8374984350486
 20
50.14999966702283
 40
0
 50
270
 51
360
  0
LINE
  5
1F8
  8
0
  6
BYLAYER
 62
  256
 10
235.8874984350486
 20
64.14999966702283
 11
249.8874984350486
 21
64.14999966702283
  0
LINE
  5
1F9
  8
0
  6
BYLAYER
 62
  256
 10
235.8874984350486
 20
50.14999966702283
 11
249.8874984350486
 21
50.14999966702283
  0
LINE
  5
1FA
  8
0
  6
BYLAYER
 62
  256
 10
235.8874984350486
 20
64.14999966702283
 11
235.8874984350486
 21
50.14999966702283
  0
LINE
  5
1FB
  8
0
  6
BYLAYER
 62
  256
 10
249.8874984350486
 20
64.14999966702283
 11
249.8874984350486
 21
50.14999966702283
  0
ARC
  5
1FC
  8
0
  6
BYLAYER
 62
  256
 10
235.8874984350486
 20
64.14999966702283
 40
0
 50
90
 51
180
  0
ARC
  5
1FD
  8
0
  6
BYLAYER
 62
  256
 10
249.8874984350486
 20
64.14999966702283
 40
0
 50
0
 51
90
  0
ARC
  5
1FE
  8
0
  6
BYLAYER
 62
  256
 10
235.8874984350486
 20
50.14999966702283
 40
0
 50
180
 51
270
  0
ARC
  5
1FF
  8
0
  6
BYLAYER
 62
  256
 10
249.8874984350486
 20
50.14999966702283
 40
0
 50
270
 51
360
  0
LINE
  5
200
  8
0
  6
BYLAYER
 62
  256
 10
266.8437484350486
 20
64.14999966702283
 11
280.8437484350486
 21
64.14999966702283
  0
LINE
  5
201
  8
0
  6
BYLAYER
 62
  256
 10
266.8437484350486
 20
50.14999966702283
 11
280.8437484350486
 21
50.14999966702283
  0
LINE
  5
202
  8
0
  6
BYLAYER
 62
  256
 10
266.8437484350486
 20
64.14999966702283
 11
266.8437484350486
 21
50.14999966702283
  0
LINE
  5
203
  8
0
  6
BYLAYER
 62
  256
 10
280.8437484350486
 20
64.14999966702283
 11
280.8437484350486
 21
50.14999966702283
  0
ARC
  5
204
  8
0
  6
BYLAYER
 62
  256
 10
266.8437484350486
 20
64.14999966702283
 40
0
 50
90
 51
180
  0
ARC
  5
205
  8
0
  6
BYLAYER
 62
  256
 10
280.8437484350486
 20
64.14999966702283
 40
0
 50
0
 51
90
  0
ARC
  5
206
  8
0
  6
BYLAYER
 62
  256
 10
266.8437484350486
 20
50.14999966702283
 40
0
 50
180
 51
270
  0
ARC
  5
207
  8
0
  6
BYLAYER
 62
  256
 10
280.8437484350486
 20
50.14999966702283
 40
0
 50
270
 51
360
  0
LINE
  5
208
  8
0
  6
BYLAYER
 62
  256
 10
282.2817484350485
 20
63.14999966702283
 11
289.2817484350485
 21
63.14999966702283
  0
LINE
  5
209
  8
0
  6
BYLAYER
 62
  256
 10
282.2817484350485
 20
48.14999966702283
 11
289.2817484350485
 21
48.14999966702283
  0
LINE
  5
20A
  8
0
  6
BYLAYER
 62
  256
 10
282.2817484350485
 20
63.14999966702283
 11
282.2817484350485
 21
48.14999966702283
  0
LINE
  5
20B
  8
0
  6
BYLAYER
 62
  256
 10
289.2817484350485
 20
63.14999966702283
 11
289.2817484350485
 21
48.14999966702283
  0
ARC
  5
20C
  8
0
  6
BYLAYER
 62
  256
 10
282.2817484350485
 20
63.14999966702283
 40
0
 50
90
 51
180
  0
ARC
  5
20D
  8
0
  6
BYLAYER
 62
  256
 10
289.2817484350485
 20
63.14999966702283
 40
0
 50
0
 51
90
  0
ARC
  5
20E
  8
0
  6
BYLAYER
 62
  256
 10
282.2817484350485
 20
48.14999966702283
 40
0
 50
180
 51
270
  0
ARC
  5
20F
  8
0
  6
BYLAYER
 62
  256
 10
289.2817484350485
 20
48.14999966702283
 40
0
 50
270
 51
360
  0
LINE
  5
210
  8
0
  6
BYLAYER
 62
  256
 10
258.4057484350486
 20
63.14999966702283
 11
265.4057484350486
 21
63.14999966702283
  0
LINE
  5
211
  8
0
  6
BYLAYER
 62
  256
 10
258.4057484350486
 20
48.14999966702283
 11
265.4057484350486
 21
48.14999966702283
  0
LINE
  5
212
  8
0
  6
BYLAYER
 62
  256
 10
258.4057484350486
 20
63.14999966702283
 11
258.4057484350486
 21
48.14999966702283
  0
LINE
  5
213
  8
0
  6
BYLAYER
 62
  256
 10
265.4057484350486
 20
63.14999966702283
 11
265.4057484350486
 21
48.14999966702283
  0
ARC
  5
214
  8
0
  6
BYLAYER
 62
  256
 10
258.4057484350486
 20
63.14999966702283
 40
0
 50
90
 51
180
  0
ARC
  5
215
  8
0
  6
BYLAYER
 62
  256
 10
265.4057484350486
 20
63.14999966702283
 40
0
 50
0
 51
90
  0
ARC
  5
216
  8
0
  6
BYLAYER
 62
  256
 10
258.4057484350486
 20
48.14999966702283
 40
0
 50
180
 51
270
  0
ARC
  5
217
  8
0
  6
BYLAYER
 62
  256
 10
265.4057484350486
 20
48.14999966702283
 40
0
 50
270
 51
360
  0
LINE
  5
218
  8
0
  6
BYLAYER
 62
  256
 10
297.7999984350485
 20
64.14999966702283
 11
311.7999984350485
 21
64.14999966702283
  0
LINE
  5
219
  8
0
  6
BYLAYER
 62
  256
 10
297.7999984350485
 20
50.14999966702283
 11
311.7999984350485
 21
50.14999966702283
  0
LINE
  5
21A
  8
0
  6
BYLAYER
 62
  256
 10
297.7999984350485
 20
64.14999966702283
 11
297.7999984350485
 21
50.14999966702283
  0
LINE
  5
21B
  8
0
  6
BYLAYER
 62
  256
 10
311.7999984350485
 20
64.14999966702283
 11
311.7999984350485
 21
50.14999966702283
  0
ARC
  5
21C
  8
0
  6
BYLAYER
 62
  256
 10
297.7999984350485
 20
64.14999966702283
 40
0
 50
90
 51
180
  0
ARC
  5
21D
  8
0
  6
BYLAYER
 62
  256
 10
311.7999984350485
 20
64.14999966702283
 40
0
 50
0
 51
90
  0
ARC
  5
21E
  8
0
  6
BYLAYER
 62
  256
 10
297.7999984350485
 20
50.14999966702283
 40
0
 50
180
 51
270
  0
ARC
  5
21F
  8
0
  6
BYLAYER
 62
  256
 10
311.7999984350485
 20
50.14999966702283
 40
0
 50
270
 51
360
  0
LINE
  5
220
  8
0
  6
BYLAYER
 62
  256
 10
23.95624843504855
 20
45.09999966702283
 11
37.95624843504855
 21
45.09999966702283
  0
LINE
  5
221
  8
0
  6
BYLAYER
 62
  256
 10
23.95624843504855
 20
31.09999966702283
 11
37.95624843504855
 21
31.09999966702283
  0
LINE
  5
222
  8
0
  6
BYLAYER
 62
  256
 10
23.95624843504855
 20
45.09999966702283
 11
23.95624843504855
 21
31.09999966702283
  0
LINE
  5
223
  8
0
  6
BYLAYER
 62
  256
 10
37.95624843504855
 20
45.09999966702283
 11
37.95624843504855
 21
31.09999966702283
  0
ARC
  5
224
  8
0
  6
BYLAYER
 62
  256
 10
23.95624843504855
 20
45.09999966702283
 40
0
 50
90
 51
180
  0
ARC
  5
225
  8
0
  6
BYLAYER
 62
  256
 10
37.95624843504855
 20
45.09999966702283
 40
0
 50
0
 51
90
  0
ARC
  5
226
  8
0
  6
BYLAYER
 62
  256
 10
23.95624843504855
 20
31.09999966702283
 40
0
 50
180
 51
270
  0
ARC
  5
227
  8
0
  6
BYLAYER
 62
  256
 10
37.95624843504855
 20
31.09999966702283
 40
0
 50
270
 51
360
  0
LINE
  5
228
  8
0
  6
BYLAYER
 62
  256
 10
39.39424843504854
 20
44.09999966702283
 11
46.39424843504854
 21
44.09999966702283
  0
LINE
  5
229
  8
0
  6
BYLAYER
 62
  256
 10
39.39424843504854
 20
29.09999966702283
 11
46.39424843504854
 21
29.09999966702283
  0
LINE
  5
22A
  8
0
  6
BYLAYER
 62
  256
 10
39.39424843504854
 20
44.09999966702283
 11
39.39424843504854
 21
29.09999966702283
  0
LINE
  5
22B
  8
0
  6
BYLAYER
 62
  256
 10
46.39424843504854
 20
44.09999966702283
 11
46.39424843504854
 21
29.09999966702283
  0
ARC
  5
22C
  8
0
  6
BYLAYER
 62
  256
 10
39.39424843504854
 20
44.09999966702283
 40
0
 50
90
 51
180
  0
ARC
  5
22D
  8
0
  6
BYLAYER
 62
  256
 10
46.39424843504854
 20
44.09999966702283
 40
0
 50
0
 51
90
  0
ARC
  5
22E
  8
0
  6
BYLAYER
 62
  256
 10
39.39424843504854
 20
29.09999966702283
 40
0
 50
180
 51
270
  0
ARC
  5
22F
  8
0
  6
BYLAYER
 62
  256
 10
46.39424843504854
 20
29.09999966702283
 40
0
 50
270
 51
360
  0
LINE
  5
230
  8
0
  6
BYLAYER
 62
  256
 10
15.51824843504855
 20
44.09999966702283
 11
22.51824843504855
 21
44.09999966702283
  0
LINE
  5
231
  8
0
  6
BYLAYER
 62
  256
 10
15.51824843504855
 20
29.09999966702283
 11
22.51824843504855
 21
29.09999966702283
  0
LINE
  5
232
  8
0
  6
BYLAYER
 62
  256
 10
15.51824843504855
 20
44.09999966702283
 11
15.51824843504855
 21
29.09999966702283
  0
LINE
  5
233
  8
0
  6
BYLAYER
 62
  256
 10
22.51824843504855
 20
44.09999966702283
 11
22.51824843504855
 21
29.09999966702283
  0
ARC
  5
234
  8
0
  6
BYLAYER
 62
  256
 10
15.51824843504855
 20
44.09999966702283
 40
0
 50
90
 51
180
  0
ARC
  5
235
  8
0
  6
BYLAYER
 62
  256
 10
22.51824843504855
 20
44.09999966702283
 40
0
 50
0
 51
90
  0
ARC
  5
236
  8
0
  6
BYLAYER
 62
  256
 10
15.51824843504855
 20
29.09999966702283
 40
0
 50
180
 51
270
  0
ARC
  5
237
  8
0
  6
BYLAYER
 62
  256
 10
22.51824843504855
 20
29.09999966702283
 40
0
 50
270
 51
360
  0
LINE
  5
238
  8
0
  6
BYLAYER
 62
  256
 10
54.91249843504853
 20
45.09999966702283
 11
68.91249843504853
 21
45.09999966702283
  0
LINE
  5
239
  8
0
  6
BYLAYER
 62
  256
 10
54.91249843504853
 20
31.09999966702283
 11
68.91249843504853
 21
31.09999966702283
  0
LINE
  5
23A
  8
0
  6
BYLAYER
 62
  256
 10
54.91249843504853
 20
45.09999966702283
 11
54.91249843504853
 21
31.09999966702283
  0
LINE
  5
23B
  8
0
  6
BYLAYER
 62
  256
 10
68.91249843504853
 20
45.09999966702283
 11
68.91249843504853
 21
31.09999966702283
  0
ARC
  5
23C
  8
0
  6
BYLAYER
 62
  256
 10
54.91249843504853
 20
45.09999966702283
 40
0
 50
90
 51
180
  0
ARC
  5
23D
  8
0
  6
BYLAYER
 62
  256
 10
68.91249843504853
 20
45.09999966702283
 40
0
 50
0
 51
90
  0
ARC
  5
23E
  8
0
  6
BYLAYER
 62
  256
 10
54.91249843504853
 20
31.09999966702283
 40
0
 50
180
 51
270
  0
ARC
  5
23F
  8
0
  6
BYLAYER
 62
  256
 10
68.91249843504853
 20
31.09999966702283
 40
0
 50
270
 51
360
  0
LINE
  5
240
  8
0
  6
BYLAYER
 62
  256
 10
73.96249843504854
 20
45.09999966702283
 11
87.96249843504854
 21
45.09999966702283
  0
LINE
  5
241
  8
0
  6
BYLAYER
 62
  256
 10
73.96249843504854
 20
31.09999966702283
 11
87.96249843504854
 21
31.09999966702283
  0
LINE
  5
242
  8
0
  6
BYLAYER
 62
  256
 10
73.96249843504854
 20
45.09999966702283
 11
73.96249843504854
 21
31.09999966702283
  0
LINE
  5
243
  8
0
  6
BYLAYER
 62
  256
 10
87.96249843504854
 20
45.09999966702283
 11
87.96249843504854
 21
31.09999966702283
  0
ARC
  5
244
  8
0
  6
BYLAYER
 62
  256
 10
73.96249843504854
 20
45.09999966702283
 40
0
 50
90
 51
180
  0
ARC
  5
245
  8
0
  6
BYLAYER
 62
  256
 10
87.96249843504854
 20
45.09999966702283
 40
0
 50
0
 51
90
  0
ARC
  5
246
  8
0
  6
BYLAYER
 62
  256
 10
73.96249843504854
 20
31.09999966702283
 40
0
 50
180
 51
270
  0
ARC
  5
247
  8
0
  6
BYLAYER
 62
  256
 10
87.96249843504854
 20
31.09999966702283
 40
0
 50
270
 51
360
  0
LINE
  5
248
  8
0
  6
BYLAYER
 62
  256
 10
93.01249843504856
 20
45.09999966702283
 11
107.0124984350486
 21
45.09999966702283
  0
LINE
  5
249
  8
0
  6
BYLAYER
 62
  256
 10
93.01249843504856
 20
31.09999966702283
 11
107.0124984350486
 21
31.09999966702283
  0
LINE
  5
24A
  8
0
  6
BYLAYER
 62
  256
 10
93.01249843504856
 20
45.09999966702283
 11
93.01249843504856
 21
31.09999966702283
  0
LINE
  5
24B
  8
0
  6
BYLAYER
 62
  256
 10
107.0124984350486
 20
45.09999966702283
 11
107.0124984350486
 21
31.09999966702283
  0
ARC
  5
24C
  8
0
  6
BYLAYER
 62
  256
 10
93.01249843504856
 20
45.09999966702283
 40
0
 50
90
 51
180
  0
ARC
  5
24D
  8
0
  6
BYLAYER
 62
  256
 10
107.0124984350486
 20
45.09999966702283
 40
0
 50
0
 51
90
  0
ARC
  5
24E
  8
0
  6
BYLAYER
 62
  256
 10
93.01249843504856
 20
31.09999966702283
 40
0
 50
180
 51
270
  0
ARC
  5
24F
  8
0
  6
BYLAYER
 62
  256
 10
107.0124984350486
 20
31.09999966702283
 40
0
 50
270
 51
360
  0
LINE
  5
250
  8
0
  6
BYLAYER
 62
  256
 10
112.0624984350485
 20
45.09999966702283
 11
126.0624984350485
 21
45.09999966702283
  0
LINE
  5
251
  8
0
  6
BYLAYER
 62
  256
 10
112.0624984350485
 20
31.09999966702283
 11
126.0624984350485
 21
31.09999966702283
  0
LINE
  5
252
  8
0
  6
BYLAYER
 62
  256
 10
112.0624984350485
 20
45.09999966702283
 11
112.0624984350485
 21
31.09999966702283
  0
LINE
  5
253
  8
0
  6
BYLAYER
 62
  256
 10
126.0624984350485
 20
45.09999966702283
 11
126.0624984350485
 21
31.09999966702283
  0
ARC
  5
254
  8
0
  6
BYLAYER
 62
  256
 10
112.0624984350485
 20
45.09999966702283
 40
0
 50
90
 51
180
  0
ARC
  5
255
  8
0
  6
BYLAYER
 62
  256
 10
126.0624984350485
 20
45.09999966702283
 40
0
 50
0
 51
90
  0
ARC
  5
256
  8
0
  6
BYLAYER
 62
  256
 10
112.0624984350485
 20
31.09999966702283
 40
0
 50
180
 51
270
  0
ARC
  5
257
  8
0
  6
BYLAYER
 62
  256
 10
126.0624984350485
 20
31.09999966702283
 40
0
 50
270
 51
360
  0
LINE
  5
258
  8
0
  6
BYLAYER
 62
  256
 10
131.1124984350486
 20
45.09999966702283
 11
145.1124984350486
 21
45.09999966702283
  0
LINE
  5
259
  8
0
  6
BYLAYER
 62
  256
 10
131.1124984350486
 20
31.09999966702283
 11
145.1124984350486
 21
31.09999966702283
  0
LINE
  5
25A
  8
0
  6
BYLAYER
 62
  256
 10
131.1124984350486
 20
45.09999966702283
 11
131.1124984350486
 21
31.09999966702283
  0
LINE
  5
25B
  8
0
  6
BYLAYER
 62
  256
 10
145.1124984350486
 20
45.09999966702283
 11
145.1124984350486
 21
31.09999966702283
  0
ARC
  5
25C
  8
0
  6
BYLAYER
 62
  256
 10
131.1124984350486
 20
45.09999966702283
 40
0
 50
90
 51
180
  0
ARC
  5
25D
  8
0
  6
BYLAYER
 62
  256
 10
145.1124984350486
 20
45.09999966702283
 40
0
 50
0
 51
90
  0
ARC
  5
25E
  8
0
  6
BYLAYER
 62
  256
 10
131.1124984350486
 20
31.09999966702283
 40
0
 50
180
 51
270
  0
ARC
  5
25F
  8
0
  6
BYLAYER
 62
  256
 10
145.1124984350486
 20
31.09999966702283
 40
0
 50
270
 51
360
  0
LINE
  5
260
  8
0
  6
BYLAYER
 62
  256
 10
150.1624984350485
 20
45.09999966702283
 11
164.1624984350485
 21
45.09999966702283
  0
LINE
  5
261
  8
0
  6
BYLAYER
 62
  256
 10
150.1624984350485
 20
31.09999966702283
 11
164.1624984350485
 21
31.09999966702283
  0
LINE
  5
262
  8
0
  6
BYLAYER
 62
  256
 10
150.1624984350485
 20
45.09999966702283
 11
150.1624984350485
 21
31.09999966702283
  0
LINE
  5
263
  8
0
  6
BYLAYER
 62
  256
 10
164.1624984350485
 20
45.09999966702283
 11
164.1624984350485
 21
31.09999966702283
  0
ARC
  5
264
  8
0
  6
BYLAYER
 62
  256
 10
150.1624984350485
 20
45.09999966702283
 40
0
 50
90
 51
180
  0
ARC
  5
265
  8
0
  6
BYLAYER
 62
  256
 10
164.1624984350485
 20
45.09999966702283
 40
0
 50
0
 51
90
  0
ARC
  5
266
  8
0
  6
BYLAYER
 62
  256
 10
150.1624984350485
 20
31.09999966702283
 40
0
 50
180
 51
270
  0
ARC
  5
267
  8
0
  6
BYLAYER
 62
  256
 10
164.1624984350485
 20
31.09999966702283
 40
0
 50
270
 51
360
  0
LINE
  5
268
  8
0
  6
BYLAYER
 62
  256
 10
169.2124984350486
 20
45.09999966702283
 11
183.2124984350486
 21
45.09999966702283
  0
LINE
  5
269
  8
0
  6
BYLAYER
 62
  256
 10
169.2124984350486
 20
31.09999966702283
 11
183.2124984350486
 21
31.09999966702283
  0
LINE
  5
26A
  8
0
  6
BYLAYER
 62
  256
 10
169.2124984350486
 20
45.09999966702283
 11
169.2124984350486
 21
31.09999966702283
  0
LINE
  5
26B
  8
0
  6
BYLAYER
 62
  256
 10
183.2124984350486
 20
45.09999966702283
 11
183.2124984350486
 21
31.09999966702283
  0
ARC
  5
26C
  8
0
  6
BYLAYER
 62
  256
 10
169.2124984350486
 20
45.09999966702283
 40
0
 50
90
 51
180
  0
ARC
  5
26D
  8
0
  6
BYLAYER
 62
  256
 10
183.2124984350486
 20
45.09999966702283
 40
0
 50
0
 51
90
  0
ARC
  5
26E
  8
0
  6
BYLAYER
 62
  256
 10
169.2124984350486
 20
31.09999966702283
 40
0
 50
180
 51
270
  0
ARC
  5
26F
  8
0
  6
BYLAYER
 62
  256
 10
183.2124984350486
 20
31.09999966702283
 40
0
 50
270
 51
360
  0
LINE
  5
270
  8
0
  6
BYLAYER
 62
  256
 10
188.2624984350486
 20
45.09999966702283
 11
202.2624984350486
 21
45.09999966702283
  0
LINE
  5
271
  8
0
  6
BYLAYER
 62
  256
 10
188.2624984350486
 20
31.09999966702283
 11
202.2624984350486
 21
31.09999966702283
  0
LINE
  5
272
  8
0
  6
BYLAYER
 62
  256
 10
188.2624984350486
 20
45.09999966702283
 11
188.2624984350486
 21
31.09999966702283
  0
LINE
  5
273
  8
0
  6
BYLAYER
 62
  256
 10
202.2624984350486
 20
45.09999966702283
 11
202.2624984350486
 21
31.09999966702283
  0
ARC
  5
274
  8
0
  6
BYLAYER
 62
  256
 10
188.2624984350486
 20
45.09999966702283
 40
0
 50
90
 51
180
  0
ARC
  5
275
  8
0
  6
BYLAYER
 62
  256
 10
202.2624984350486
 20
45.09999966702283
 40
0
 50
0
 51
90
  0
ARC
  5
276
  8
0
  6
BYLAYER
 62
  256
 10
188.2624984350486
 20
31.09999966702283
 40
0
 50
180
 51
270
  0
ARC
  5
277
  8
0
  6
BYLAYER
 62
  256
 10
202.2624984350486
 20
31.09999966702283
 40
0
 50
270
 51
360
  0
LINE
  5
278
  8
0
  6
BYLAYER
 62
  256
 10
207.3124984350486
 20
45.09999966702283
 11
221.3124984350486
 21
45.09999966702283
  0
LINE
  5
279
  8
0
  6
BYLAYER
 62
  256
 10
207.3124984350486
 20
31.09999966702283
 11
221.3124984350486
 21
31.09999966702283
  0
LINE
  5
27A
  8
0
  6
BYLAYER
 62
  256
 10
207.3124984350486
 20
45.09999966702283
 11
207.3124984350486
 21
31.09999966702283
  0
LINE
  5
27B
  8
0
  6
BYLAYER
 62
  256
 10
221.3124984350486
 20
45.09999966702283
 11
221.3124984350486
 21
31.09999966702283
  0
ARC
  5
27C
  8
0
  6
BYLAYER
 62
  256
 10
207.3124984350486
 20
45.09999966702283
 40
0
 50
90
 51
180
  0
ARC
  5
27D
  8
0
  6
BYLAYER
 62
  256
 10
221.3124984350486
 20
45.09999966702283
 40
0
 50
0
 51
90
  0
ARC
  5
27E
  8
0
  6
BYLAYER
 62
  256
 10
207.3124984350486
 20
31.09999966702283
 40
0
 50
180
 51
270
  0
ARC
  5
27F
  8
0
  6
BYLAYER
 62
  256
 10
221.3124984350486
 20
31.09999966702283
 40
0
 50
270
 51
360
  0
LINE
  5
280
  8
0
  6
BYLAYER
 62
  256
 10
226.3624984350485
 20
45.09999966702283
 11
240.3624984350485
 21
45.09999966702283
  0
LINE
  5
281
  8
0
  6
BYLAYER
 62
  256
 10
226.3624984350485
 20
31.09999966702283
 11
240.3624984350485
 21
31.09999966702283
  0
LINE
  5
282
  8
0
  6
BYLAYER
 62
  256
 10
226.3624984350485
 20
45.09999966702283
 11
226.3624984350485
 21
31.09999966702283
  0
LINE
  5
283
  8
0
  6
BYLAYER
 62
  256
 10
240.3624984350485
 20
45.09999966702283
 11
240.3624984350485
 21
31.09999966702283
  0
ARC
  5
284
  8
0
  6
BYLAYER
 62
  256
 10
226.3624984350485
 20
45.09999966702283
 40
0
 50
90
 51
180
  0
ARC
  5
285
  8
0
  6
BYLAYER
 62
  256
 10
240.3624984350485
 20
45.09999966702283
 40
0
 50
0
 51
90
  0
ARC
  5
286
  8
0
  6
BYLAYER
 62
  256
 10
226.3624984350485
 20
31.09999966702283
 40
0
 50
180
 51
270
  0
ARC
  5
287
  8
0
  6
BYLAYER
 62
  256
 10
240.3624984350485
 20
31.09999966702283
 40
0
 50
270
 51
360
  0
LINE
  5
288
  8
0
  6
BYLAYER
 62
  256
 10
252.5562484350486
 20
45.09999966702283
 11
266.5562484350485
 21
45.09999966702283
  0
LINE
  5
289
  8
0
  6
BYLAYER
 62
  256
 10
252.5562484350486
 20
31.09999966702283
 11
266.5562484350485
 21
31.09999966702283
  0
LINE
  5
28A
  8
0
  6
BYLAYER
 62
  256
 10
252.5562484350486
 20
45.09999966702283
 11
252.5562484350486
 21
31.09999966702283
  0
LINE
  5
28B
  8
0
  6
BYLAYER
 62
  256
 10
266.5562484350485
 20
45.09999966702283
 11
266.5562484350485
 21
31.09999966702283
  0
ARC
  5
28C
  8
0
  6
BYLAYER
 62
  256
 10
252.5562484350486
 20
45.09999966702283
 40
0
 50
90
 51
180
  0
ARC
  5
28D
  8
0
  6
BYLAYER
 62
  256
 10
266.5562484350485
 20
45.09999966702283
 40
0
 50
0
 51
90
  0
ARC
  5
28E
  8
0
  6
BYLAYER
 62
  256
 10
252.5562484350486
 20
31.09999966702283
 40
0
 50
180
 51
270
  0
ARC
  5
28F
  8
0
  6
BYLAYER
 62
  256
 10
266.5562484350485
 20
31.09999966702283
 40
0
 50
270
 51
360
  0
LINE
  5
290
  8
0
  6
BYLAYER
 62
  256
 10
278.7499984350486
 20
45.09999966702283
 11
292.7499984350486
 21
45.09999966702283
  0
LINE
  5
291
  8
0
  6
BYLAYER
 62
  256
 10
278.7499984350486
 20
31.09999966702283
 11
292.7499984350486
 21
31.09999966702283
  0
LINE
  5
292
  8
0
  6
BYLAYER
 62
  256
 10
278.7499984350486
 20
45.09999966702283
 11
278.7499984350486
 21
31.09999966702283
  0
LINE
  5
293
  8
0
  6
BYLAYER
 62
  256
 10
292.7499984350486
 20
45.09999966702283
 11
292.7499984350486
 21
31.09999966702283
  0
ARC
  5
294
  8
0
  6
BYLAYER
 62
  256
 10
278.7499984350486
 20
45.09999966702283
 40
0
 50
90
 51
180
  0
ARC
  5
295
  8
0
  6
BYLAYER
 62
  256
 10
292.7499984350486
 20
45.09999966702283
 40
0
 50
0
 51
90
  0
ARC
  5
296
  8
0
  6
BYLAYER
 62
  256
 10
278.7499984350486
 20
31.09999966702283
 40
0
 50
180
 51
270
  0
ARC
  5
297
  8
0
  6
BYLAYER
 62
  256
 10
292.7499984350486
 20
31.09999966702283
 40
0
 50
270
 51
360
  0
LINE
  5
298
  8
0
  6
BYLAYER
 62
  256
 10
297.7999984350485
 20
45.09999966702283
 11
311.7999984350485
 21
45.09999966702283
  0
LINE
  5
299
  8
0
  6
BYLAYER
 62
  256
 10
297.7999984350485
 20
31.09999966702283
 11
311.7999984350485
 21
31.09999966702283
  0
LINE
  5
29A
  8
0
  6
BYLAYER
 62
  256
 10
297.7999984350485
 20
45.09999966702283
 11
297.7999984350485
 21
31.09999966702283
  0
LINE
  5
29B
  8
0
  6
BYLAYER
 62
  256
 10
311.7999984350485
 20
45.09999966702283
 11
311.7999984350485
 21
31.09999966702283
  0
ARC
  5
29C
  8
0
  6
BYLAYER
 62
  256
 10
297.7999984350485
 20
45.09999966702283
 40
0
 50
90
 51
180
  0
ARC
  5
29D
  8
0
  6
BYLAYER
 62
  256
 10
311.7999984350485
 20
45.09999966702283
 40
0
 50
0
 51
90
  0
ARC
  5
29E
  8
0
  6
BYLAYER
 62
  256
 10
297.7999984350485
 20
31.09999966702283
 40
0
 50
180
 51
270
  0
ARC
  5
29F
  8
0
  6
BYLAYER
 62
  256
 10
311.7999984350485
 20
31.09999966702283
 40
0
 50
270
 51
360
  0
LINE
  5
2A0
  8
0
  6
BYLAYER
 62
  256
 10
16.81249843504854
 20
26.04999966702283
 11
30.81249843504854
 21
26.04999966702283
  0
LINE
  5
2A1
  8
0
  6
BYLAYER
 62
  256
 10
16.81249843504854
 20
12.04999966702283
 11
30.81249843504854
 21
12.04999966702283
  0
LINE
  5
2A2
  8
0
  6
BYLAYER
 62
  256
 10
16.81249843504854
 20
26.04999966702283
 11
16.81249843504854
 21
12.04999966702283
  0
LINE
  5
2A3
  8
0
  6
BYLAYER
 62
  256
 10
30.81249843504854
 20
26.04999966702283
 11
30.81249843504854
 21
12.04999966702283
  0
ARC
  5
2A4
  8
0
  6
BYLAYER
 62
  256
 10
16.81249843504854
 20
26.04999966702283
 40
0
 50
90
 51
180
  0
ARC
  5
2A5
  8
0
  6
BYLAYER
 62
  256
 10
30.81249843504854
 20
26.04999966702283
 40
0
 50
0
 51
90
  0
ARC
  5
2A6
  8
0
  6
BYLAYER
 62
  256
 10
16.81249843504854
 20
12.04999966702283
 40
0
 50
180
 51
270
  0
ARC
  5
2A7
  8
0
  6
BYLAYER
 62
  256
 10
30.81249843504854
 20
12.04999966702283
 40
0
 50
270
 51
360
  0
LINE
  5
2A8
  8
0
  6
BYLAYER
 62
  256
 10
59.67499843504855
 20
26.04999966702283
 11
73.67499843504855
 21
26.04999966702283
  0
LINE
  5
2A9
  8
0
  6
BYLAYER
 62
  256
 10
59.67499843504855
 20
12.04999966702283
 11
73.67499843504855
 21
12.04999966702283
  0
LINE
  5
2AA
  8
0
  6
BYLAYER
 62
  256
 10
59.67499843504855
 20
26.04999966702283
 11
59.67499843504855
 21
12.04999966702283
  0
LINE
  5
2AB
  8
0
  6
BYLAYER
 62
  256
 10
73.67499843504855
 20
26.04999966702283
 11
73.67499843504855
 21
12.04999966702283
  0
ARC
  5
2AC
  8
0
  6
BYLAYER
 62
  256
 10
59.67499843504855
 20
26.04999966702283
 40
0
 50
90
 51
180
  0
ARC
  5
2AD
  8
0
  6
BYLAYER
 62
  256
 10
73.67499843504855
 20
26.04999966702283
 40
0
 50
0
 51
90
  0
ARC
  5
2AE
  8
0
  6
BYLAYER
 62
  256
 10
59.67499843504855
 20
12.04999966702283
 40
0
 50
180
 51
270
  0
ARC
  5
2AF
  8
0
  6
BYLAYER
 62
  256
 10
73.67499843504855
 20
12.04999966702283
 40
0
 50
270
 51
360
  0
LINE
  5
2B0
  8
0
  6
BYLAYER
 62
  256
 10
135.8749984350486
 20
26.04999966702283
 11
149.8749984350486
 21
26.04999966702283
  0
LINE
  5
2B1
  8
0
  6
BYLAYER
 62
  256
 10
135.8749984350486
 20
12.04999966702283
 11
149.8749984350486
 21
12.04999966702283
  0
LINE
  5
2B2
  8
0
  6
BYLAYER
 62
  256
 10
135.8749984350486
 20
26.04999966702283
 11
135.8749984350486
 21
12.04999966702283
  0
LINE
  5
2B3
  8
0
  6
BYLAYER
 62
  256
 10
149.8749984350486
 20
26.04999966702283
 11
149.8749984350486
 21
12.04999966702283
  0
ARC
  5
2B4
  8
0
  6
BYLAYER
 62
  256
 10
135.8749984350486
 20
26.04999966702283
 40
0
 50
90
 51
180
  0
ARC
  5
2B5
  8
0
  6
BYLAYER
 62
  256
 10
149.8749984350486
 20
26.04999966702283
 40
0
 50
0
 51
90
  0
ARC
  5
2B6
  8
0
  6
BYLAYER
 62
  256
 10
135.8749984350486
 20
12.04999966702283
 40
0
 50
180
 51
270
  0
ARC
  5
2B7
  8
0
  6
BYLAYER
 62
  256
 10
149.8749984350486
 20
12.04999966702283
 40
0
 50
270
 51
360
  0
LINE
  5
2B8
  8
0
  6
BYLAYER
 62
  256
 10
196.5249984350486
 20
25.04999966702283
 11
203.5249984350486
 21
25.04999966702283
  0
LINE
  5
2B9
  8
0
  6
BYLAYER
 62
  256
 10
196.5249984350486
 20
10.04999966702283
 11
203.5249984350486
 21
10.04999966702283
  0
LINE
  5
2BA
  8
0
  6
BYLAYER
 62
  256
 10
196.5249984350486
 20
25.04999966702283
 11
196.5249984350486
 21
10.04999966702283
  0
LINE
  5
2BB
  8
0
  6
BYLAYER
 62
  256
 10
203.5249984350486
 20
25.04999966702283
 11
203.5249984350486
 21
10.04999966702283
  0
ARC
  5
2BC
  8
0
  6
BYLAYER
 62
  256
 10
196.5249984350486
 20
25.04999966702283
 40
0
 50
90
 51
180
  0
ARC
  5
2BD
  8
0
  6
BYLAYER
 62
  256
 10
203.5249984350486
 20
25.04999966702283
 40
0
 50
0
 51
90
  0
ARC
  5
2BE
  8
0
  6
BYLAYER
 62
  256
 10
196.5249984350486
 20
10.04999966702283
 40
0
 50
180
 51
270
  0
ARC
  5
2BF
  8
0
  6
BYLAYER
 62
  256
 10
203.5249984350486
 20
10.04999966702283
 40
0
 50
270
 51
360
  0
LINE
  5
2C0
  8
0
  6
BYLAYER
 62
  256
 10
82.22499843504853
 20
25.04999966702283
 11
89.22499843504853
 21
25.04999966702283
  0
LINE
  5
2C1
  8
0
  6
BYLAYER
 62
  256
 10
82.22499843504853
 20
10.04999966702283
 11
89.22499843504853
 21
10.04999966702283
  0
LINE
  5
2C2
  8
0
  6
BYLAYER
 62
  256
 10
82.22499843504853
 20
25.04999966702283
 11
82.22499843504853
 21
10.04999966702283
  0
LINE
  5
2C3
  8
0
  6
BYLAYER
 62
  256
 10
89.22499843504853
 20
25.04999966702283
 11
89.22499843504853
 21
10.04999966702283
  0
ARC
  5
2C4
  8
0
  6
BYLAYER
 62
  256
 10
82.22499843504853
 20
25.04999966702283
 40
0
 50
90
 51
180
  0
ARC
  5
2C5
  8
0
  6
BYLAYER
 62
  256
 10
89.22499843504853
 20
25.04999966702283
 40
0
 50
0
 51
90
  0
ARC
  5
2C6
  8
0
  6
BYLAYER
 62
  256
 10
82.22499843504853
 20
10.04999966702283
 40
0
 50
180
 51
270
  0
ARC
  5
2C7
  8
0
  6
BYLAYER
 62
  256
 10
89.22499843504853
 20
10.04999966702283
 40
0
 50
270
 51
360
  0
LINE
  5
2C8
  8
0
  6
BYLAYER
 62
  256
 10
212.0749984350486
 20
26.04999966702283
 11
226.0749984350486
 21
26.04999966702283
  0
LINE
  5
2C9
  8
0
  6
BYLAYER
 62
  256
 10
212.0749984350486
 20
12.04999966702283
 11
226.0749984350486
 21
12.04999966702283
  0
LINE
  5
2CA
  8
0
  6
BYLAYER
 62
  256
 10
212.0749984350486
 20
26.04999966702283
 11
212.0749984350486
 21
12.04999966702283
  0
LINE
  5
2CB
  8
0
  6
BYLAYER
 62
  256
 10
226.0749984350486
 20
26.04999966702283
 11
226.0749984350486
 21
12.04999966702283
  0
ARC
  5
2CC
  8
0
  6
BYLAYER
 62
  256
 10
212.0749984350486
 20
26.04999966702283
 40
0
 50
90
 51
180
  0
ARC
  5
2CD
  8
0
  6
BYLAYER
 62
  256
 10
226.0749984350486
 20
26.04999966702283
 40
0
 50
0
 51
90
  0
ARC
  5
2CE
  8
0
  6
BYLAYER
 62
  256
 10
212.0749984350486
 20
12.04999966702283
 40
0
 50
180
 51
270
  0
ARC
  5
2CF
  8
0
  6
BYLAYER
 62
  256
 10
226.0749984350486
 20
12.04999966702283
 40
0
 50
270
 51
360
  0
LINE
  5
2D0
  8
0
  6
BYLAYER
 62
  256
 10
231.1249984350486
 20
26.04999966702283
 11
245.1249984350486
 21
26.04999966702283
  0
LINE
  5
2D1
  8
0
  6
BYLAYER
 62
  256
 10
231.1249984350486
 20
12.04999966702283
 11
245.1249984350486
 21
12.04999966702283
  0
LINE
  5
2D2
  8
0
  6
BYLAYER
 62
  256
 10
231.1249984350486
 20
26.04999966702283
 11
231.1249984350486
 21
12.04999966702283
  0
LINE
  5
2D3
  8
0
  6
BYLAYER
 62
  256
 10
245.1249984350486
 20
26.04999966702283
 11
245.1249984350486
 21
12.04999966702283
  0
ARC
  5
2D4
  8
0
  6
BYLAYER
 62
  256
 10
231.1249984350486
 20
26.04999966702283
 40
0
 50
90
 51
180
  0
ARC
  5
2D5
  8
0
  6
BYLAYER
 62
  256
 10
245.1249984350486
 20
26.04999966702283
 40
0
 50
0
 51
90
  0
ARC
  5
2D6
  8
0
  6
BYLAYER
 62
  256
 10
231.1249984350486
 20
12.04999966702283
 40
0
 50
180
 51
270
  0
ARC
  5
2D7
  8
0
  6
BYLAYER
 62
  256
 10
245.1249984350486
 20
12.04999966702283
 40
0
 50
270
 51
360
  0
LINE
  5
2D8
  8
0
  6
BYLAYER
 62
  256
 10
259.6999984350485
 20
26.04999966702283
 11
273.6999984350485
 21
26.04999966702283
  0
LINE
  5
2D9
  8
0
  6
BYLAYER
 62
  256
 10
259.6999984350485
 20
12.04999966702283
 11
273.6999984350485
 21
12.04999966702283
  0
LINE
  5
2DA
  8
0
  6
BYLAYER
 62
  256
 10
259.6999984350485
 20
26.04999966702283
 11
259.6999984350485
 21
12.04999966702283
  0
LINE
  5
2DB
  8
0
  6
BYLAYER
 62
  256
 10
273.6999984350485
 20
26.04999966702283
 11
273.6999984350485
 21
12.04999966702283
  0
ARC
  5
2DC
  8
0
  6
BYLAYER
 62
  256
 10
259.6999984350485
 20
26.04999966702283
 40
0
 50
90
 51
180
  0
ARC
  5
2DD
  8
0
  6
BYLAYER
 62
  256
 10
273.6999984350485
 20
26.04999966702283
 40
0
 50
0
 51
90
  0
ARC
  5
2DE
  8
0
  6
BYLAYER
 62
  256
 10
259.6999984350485
 20
12.04999966702283
 40
0
 50
180
 51
270
  0
ARC
  5
2DF
  8
0
  6
BYLAYER
 62
  256
 10
273.6999984350485
 20
12.04999966702283
 40
0
 50
270
 51
360
  0
LINE
  5
2E0
  8
0
  6
BYLAYER
 62
  256
 10
278.7499984350486
 20
26.04999966702283
 11
292.7499984350486
 21
26.04999966702283
  0
LINE
  5
2E1
  8
0
  6
BYLAYER
 62
  256
 10
278.7499984350486
 20
12.04999966702283
 11
292.7499984350486
 21
12.04999966702283
  0
LINE
  5
2E2
  8
0
  6
BYLAYER
 62
  256
 10
278.7499984350486
 20
26.04999966702283
 11
278.7499984350486
 21
12.04999966702283
  0
LINE
  5
2E3
  8
0
  6
BYLAYER
 62
  256
 10
292.7499984350486
 20
26.04999966702283
 11
292.7499984350486
 21
12.04999966702283
  0
ARC
  5
2E4
  8
0
  6
BYLAYER
 62
  256
 10
278.7499984350486
 20
26.04999966702283
 40
0
 50
90
 51
180
  0
ARC
  5
2E5
  8
0
  6
BYLAYER
 62
  256
 10
292.7499984350486
 20
26.04999966702283
 40
0
 50
0
 51
90
  0
ARC
  5
2E6
  8
0
  6
BYLAYER
 62
  256
 10
278.7499984350486
 20
12.04999966702283
 40
0
 50
180
 51
270
  0
ARC
  5
2E7
  8
0
  6
BYLAYER
 62
  256
 10
292.7499984350486
 20
12.04999966702283
 40
0
 50
270
 51
360
  0
LINE
  5
2E8
  8
0
  6
BYLAYER
 62
  256
 10
297.7999984350485
 20
26.04999966702283
 11
311.7999984350485
 21
26.04999966702283
  0
LINE
  5
2E9
  8
0
  6
BYLAYER
 62
  256
 10
297.7999984350485
 20
12.04999966702283
 11
311.7999984350485
 21
12.04999966702283
  0
LINE
  5
2EA
  8
0
  6
BYLAYER
 62
  256
 10
297.7999984350485
 20
26.04999966702283
 11
297.7999984350485
 21
12.04999966702283
  0
LINE
  5
2EB
  8
0
  6
BYLAYER
 62
  256
 10
311.7999984350485
 20
26.04999966702283
 11
311.7999984350485
 21
12.04999966702283
  0
ARC
  5
2EC
  8
0
  6
BYLAYER
 62
  256
 10
297.7999984350485
 20
26.04999966702283
 40
0
 50
90
 51
180
  0
ARC
  5
2ED
  8
0
  6
BYLAYER
 62
  256
 10
311.7999984350485
 20
26.04999966702283
 40
0
 50
0
 51
90
  0
ARC
  5
2EE
  8
0
  6
BYLAYER
 62
  256
 10
297.7999984350485
 20
12.04999966702283
 40
0
 50
180
 51
270
  0
ARC
  5
2EF
  8
0
  6
BYLAYER
 62
  256
 10
311.7999984350485
 20
12.04999966702283
 40
0
 50
270
 51
360
  0
CIRCLE
  5
2F0
  8
0
  6
BYLAYER
 62
  256
 10
19.04999897392461
 20
119.0625002058989
 40
2
  0
CIRCLE
  5
2F1
  8
0
  6
BYLAYER
 62
  256
 10
19.05
 20
95.25
 40
2
  0
CIRCLE
  5
2F2
  8
0
  6
BYLAYER
 62
  256
 10
38.09999799519002
 20
95.25
 40
2
  0
CIRCLE
  5
2F3
  8
0
  6
BYLAYER
 62
  256
 10
52.38749753605133
 20
119.0625
 40
2
  0
CIRCLE
  5
2F4
  8
0
  6
BYLAYER
 62
  256
 10
71.43749753605131
 20
119.0625017018329
 40
2
  0
CIRCLE
  5
2F5
  8
0
  6
BYLAYER
 62
  256
 10
90.48749753605132
 20
119.0625
 40
2
  0
CIRCLE
  5
2F6
  8
0
  6
BYLAYER
 62
  256
 10
109.5374975360513
 20
119.0625
 40
2
  0
CIRCLE
  5
2F7
  8
0
  6
BYLAYER
 62
  256
 10
138.1125002448826
 20
119.0625
 40
2
  0
CIRCLE
  5
2F8
  8
0
  6
BYLAYER
 62
  256
 10
157.1625007811167
 20
119.0625
 40
2
  0
CIRCLE
  5
2F9
  8
0
  6
BYLAYER
 62
  256
 10
176.2124975360513
 20
119.0625
 40
2
  0
CIRCLE
  5
2FA
  8
0
  6
BYLAYER
 62
  256
 10
195.2624981496395
 20
119.0625
 40
2
  0
CIRCLE
  5
2FB
  8
0
  6
BYLAYER
 62
  256
 10
223.8374975360513
 20
119.0625
 40
2
  0
CIRCLE
  5
2FC
  8
0
  6
BYLAYER
 62
  256
 10
242.8874975360513
 20
119.0625
 40
2
  0
CIRCLE
  5
2FD
  8
0
  6
BYLAYER
 62
  256
 10
261.9375007057314
 20
119.0625
 40
2
  0
CIRCLE
  5
2FE
  8
0
  6
BYLAYER
 62
  256
 10
280.9874975360513
 20
119.0625
 40
2
  0
CIRCLE
  5
2FF
  8
0
  6
BYLAYER
 62
  256
 10
304.8000003941323
 20
119.0625
 40
2
  0
CIRCLE
  5
300
  8
0
  6
BYLAYER
 62
  256
 10
57.14999753605132
 20
95.25
 40
2
  0
CIRCLE
  5
301
  8
0
  6
BYLAYER
 62
  256
 10
76.19999753605133
 20
95.25
 40
2
  0
CIRCLE
  5
302
  8
0
  6
BYLAYER
 62
  256
 10
95.24999753605131
 20
95.25
 40
2
  0
CIRCLE
  5
303
  8
0
  6
BYLAYER
 62
  256
 10
114.2999975360513
 20
95.25
 40
2
  0
CIRCLE
  5
304
  8
0
  6
BYLAYER
 62
  256
 10
133.3499975360513
 20
95.25
 40
2
  0
CIRCLE
  5
305
  8
0
  6
BYLAYER
 62
  256
 10
152.3999975360513
 20
95.25
 40
2
  0
CIRCLE
  5
306
  8
0
  6
BYLAYER
 62
  256
 10
171.4499975360513
 20
95.25
 40
2
  0
CIRCLE
  5
307
  8
0
  6
BYLAYER
 62
  256
 10
190.4999975360514
 20
95.25
 40
2
  0
CIRCLE
  5
308
  8
0
  6
BYLAYER
 62
  256
 10
209.5499996447786
 20
95.25
 40
2
  0
CIRCLE
  5
309
  8
0
  6
BYLAYER
 62
  256
 10
228.5999994075916
 20
95.25
 40
2
  0
CIRCLE
  5
30A
  8
0
  6
BYLAYER
 62
  256
 10
247.6499975360513
 20
95.25
 40
2
  0
CIRCLE
  5
30B
  8
0
  6
BYLAYER
 62
  256
 10
266.6999975360513
 20
95.2500040058659
 40
2
  0
CIRCLE
  5
30C
  8
0
  6
BYLAYER
 62
  256
 10
285.7500007057314
 20
95.25
 40
2
  0
CIRCLE
  5
30D
  8
0
  6
BYLAYER
 62
  256
 10
304.7999975360513
 20
95.25000478164038
 40
2
  0
CIRCLE
  5
30E
  8
0
  6
BYLAYER
 62
  256
 10
304.7999975360513
 20
76.20000304154684
 40
2
  0
CIRCLE
  5
30F
  8
0
  6
BYLAYER
 62
  256
 10
304.7999987566416
 20
57.15000000000001
 40
2
  0
CIRCLE
  5
310
  8
0
  6
BYLAYER
 62
  256
 10
304.7999975360513
 20
38.10000000000001
 40
2
  0
CIRCLE
  5
311
  8
0
  6
BYLAYER
 62
  256
 10
304.7999975360513
 20
19.05000277444249
 40
2
  0
CIRCLE
  5
312
  8
0
  6
BYLAYER
 62
  256
 10
285.7499975360514
 20
19.05000000000001
 40
2
  0
CIRCLE
  5
313
  8
0
  6
BYLAYER
 62
  256
 10
285.7499975360514
 20
38.10000000000001
 40
2
  0
CIRCLE
  5
314
  8
0
  6
BYLAYER
 62
  256
 10
273.8437503954926
 20
57.15000000000001
 40
2
  0
CIRCLE
  5
315
  8
0
  6
BYLAYER
 62
  256
 10
280.9874992793631
 20
76.20000000000002
 40
2
  0
CIRCLE
  5
316
  8
0
  6
BYLAYER
 62
  256
 10
257.1749975360514
 20
76.200002843248
 40
2
  0
CIRCLE
  5
317
  8
0
  6
BYLAYER
 62
  256
 10
238.1249975360514
 20
76.2
 40
2
  0
CIRCLE
  5
318
  8
0
  6
BYLAYER
 62
  256
 10
219.0749975360513
 20
76.2
 40
2
  0
CIRCLE
  5
319
  8
0
  6
BYLAYER
 62
  256
 10
200.0249975360513
 20
76.2
 40
2
  0
CIRCLE
  5
31A
  8
0
  6
BYLAYER
 62
  256
 10
180.9749975360513
 20
76.20000270883129
 40
2
  0
CIRCLE
  5
31B
  8
0
  6
BYLAYER
 62
  256
 10
161.9249975360513
 20
76.2
 40
2
  0
CIRCLE
  5
31C
  8
0
  6
BYLAYER
 62
  256
 10
142.8749989500619
 20
76.2
 40
2
  0
CIRCLE
  5
31D
  8
0
  6
BYLAYER
 62
  256
 10
123.8249975360513
 20
76.2
 40
2
  0
CIRCLE
  5
31E
  8
0
  6
BYLAYER
 62
  256
 10
104.7749975360513
 20
76.2
 40
2
  0
CIRCLE
  5
31F
  8
0
  6
BYLAYER
 62
  256
 10
85.7249975360513
 20
76.2
 40
2
  0
CIRCLE
  5
320
  8
0
  6
BYLAYER
 62
  256
 10
66.67499753605132
 20
76.2
 40
2
  0
CIRCLE
  5
321
  8
0
  6
BYLAYER
 62
  256
 10
47.62499753605131
 20
76.2
 40
2
  0
CIRCLE
  5
322
  8
0
  6
BYLAYER
 62
  256
 10
23.81249753605132
 20
76.2
 40
2
  0
CIRCLE
  5
323
  8
0
  6
BYLAYER
 62
  256
 10
21.43124753605132
 20
57.15000000000001
 40
2
  0
CIRCLE
  5
324
  8
0
  6
BYLAYER
 62
  256
 10
30.95624832635807
 20
38.10000000000001
 40
2
  0
CIRCLE
  5
325
  8
0
  6
BYLAYER
 62
  256
 10
52.38749753605133
 20
57.150001129639
 40
2
  0
CIRCLE
  5
326
  8
0
  6
BYLAYER
 62
  256
 10
71.43749753605131
 20
57.15000000000001
 40
2
  0
CIRCLE
  5
327
  8
0
  6
BYLAYER
 62
  256
 10
90.48749851555327
 20
57.15000000000001
 40
2
  0
CIRCLE
  5
328
  8
0
  6
BYLAYER
 62
  256
 10
61.9124975360513
 20
38.10000000000001
 40
2
  0
CIRCLE
  5
329
  8
0
  6
BYLAYER
 62
  256
 10
66.67499753605132
 20
19.05000088430014
 40
2
  0
CIRCLE
  5
32A
  8
0
  6
BYLAYER
 62
  256
 10
23.81249784772078
 20
19.05000000000001
 40
2
  0
CIRCLE
  5
32B
  8
0
  6
BYLAYER
 62
  256
 10
142.8749983640805
 20
19.05000000000002
 40
2
  0
CIRCLE
  5
32C
  8
0
  6
BYLAYER
 62
  256
 10
80.96249753605132
 20
38.10000000000001
 40
2
  0
CIRCLE
  5
32D
  8
0
  6
BYLAYER
 62
  256
 10
100.0124989783079
 20
38.10000000000001
 40
2
  0
CIRCLE
  5
32E
  8
0
  6
BYLAYER
 62
  256
 10
119.0624975360513
 20
38.10000000000001
 40
2
  0
CIRCLE
  5
32F
  8
0
  6
BYLAYER
 62
  256
 10
109.5374975360513
 20
57.15000000000001
 40
2
  0
CIRCLE
  5
330
  8
0
  6
BYLAYER
 62
  256
 10
128.5874975360513
 20
57.15000000000001
 40
2
  0
CIRCLE
  5
331
  8
0
  6
BYLAYER
 62
  256
 10
147.6374985441282
 20
57.15000000000001
 40
2
  0
CIRCLE
  5
332
  8
0
  6
BYLAYER
 62
  256
 10
138.1124975360513
 20
38.10000000000001
 40
2
  0
CIRCLE
  5
333
  8
0
  6
BYLAYER
 62
  256
 10
157.1624975360513
 20
38.10000000000001
 40
2
  0
CIRCLE
  5
334
  8
0
  6
BYLAYER
 62
  256
 10
166.6874989222363
 20
57.15000000000001
 40
2
  0
CIRCLE
  5
335
  8
0
  6
BYLAYER
 62
  256
 10
185.7374987181256
 20
57.15000000000001
 40
2
  0
CIRCLE
  5
336
  8
0
  6
BYLAYER
 62
  256
 10
204.7874975360513
 20
57.15000000000001
 40
2
  0
CIRCLE
  5
337
  8
0
  6
BYLAYER
 62
  256
 10
223.8374975360513
 20
57.15000000000001
 40
2
  0
CIRCLE
  5
338
  8
0
  6
BYLAYER
 62
  256
 10
242.8875014591375
 20
57.15000000000001
 40
2
  0
CIRCLE
  5
339
  8
0
  6
BYLAYER
 62
  256
 10
259.5562509804781
 20
38.10000000000001
 40
2
  0
CIRCLE
  5
33A
  8
0
  6
BYLAYER
 62
  256
 10
266.6999975360513
 20
19.05000000000001
 40
2
  0
CIRCLE
  5
33B
  8
0
  6
BYLAYER
 62
  256
 10
238.1250010477735
 20
19.05000000000002
 40
2
  0
CIRCLE
  5
33C
  8
0
  6
BYLAYER
 62
  256
 10
219.0749975360513
 20
19.05000000000001
 40
2
  0
CIRCLE
  5
33D
  8
0
  6
BYLAYER
 62
  256
 10
214.3124975360514
 20
38.10000000000001
 40
2
  0
CIRCLE
  5
33E
  8
0
  6
BYLAYER
 62
  256
 10
233.3624975360513
 20
38.10000080870439
 40
2
  0
CIRCLE
  5
33F
  8
0
  6
BYLAYER
 62
  256
 10
195.2624975360513
 20
38.10000000000001
 40
2
  0
CIRCLE
  5
340
  8
0
  6
BYLAYER
 62
  256
 10
176.21249839603
 20
38.10000000000001
 40
2
  0
ENDSEC
  0
EOF
