999
dxfrw 0.6.3
  0
SECTION
  2
HEADER
  9
$ACADVER
  1
AC1009
  9
$DWGCODEPAGE
  3
ANSI_1252
  9
$INSBASE
 10
0
 20
0
 30
0
  9
$EXTMIN
 10
1.049998434999986
 20
-13.66482339136667
 30
0
  9
$EXTMAX
 10
322.799998435
 20
137.0624996670001
 30
0
  9
$LIMMIN
 10
0
 20
0
  9
$LIMMAX
 10
420
 20
297
  9
$ORTHOMODE
 70
    0
  9
$REGENMODE
 70
    1
  9
$FILLMODE
 70
    1
  9
$QTEXTMODE
 70
    0
  9
$MIRRTEXT
 70
    1
  9
$DRAGMODE
 70
    2
  9
$LTSCALE
 40
1
  9
$OSMODE
 70
    0
  9
$ATTMODE
 70
    1
  9
$TEXTSIZE
 40
3.175
  9
$TRACEWID
 40
1
  9
$TEXTSTYLE
  7
STANDARD
  9
$CLAYER
  8
0
  9
$CELTYPE
  6
BYLAYER
  9
$CECOLOR
 62
  256
  9
$DIMSCALE
 40
1
  9
$DIMASZ
 40
3.302
  9
$DIMEXO
 40
1.27
  9
$DIMDLI
 40
3.75
  9
$DIMRND
 40
0
  9
$DIMDLE
 40
0
  9
$DIMEXE
 40
3.175
  9
$DIMTP
 40
0
  9
$DIMTM
 40
0
  9
$DIMTXT
 40
3.175
  9
$DIMCEN
 40
2.5
  9
$DIMTSZ
 40
0
  9
$DIMTOL
 70
    0
  9
$DIMLIM
 70
    0
  9
$DIMTIH
 70
    1
  9
$DIMTOH
 70
    1
  9
$DIMSE1
 70
    0
  9
$DIMSE2
 70
    0
  9
$DIMTAD
 70
    0
  9
$DIMZIN
 70
    0
  9
$DIMBLK
  1

  9
$DIMASO
 70
    1
  9
$DIMSHO
 70
    1
  9
$DIMPOST
  1

  9
$DIMAPOST
  1

  9
$DIMALT
 70
    0
  9
$DIMALTD
 70
    3
  9
$DIMALTF
 40
0.0393700787
  9
$DIMLFAC
 40
1
  9
$DIMTOFL
 70
    1
  9
$DIMTVP
 40
0
  9
$DIMTIX
 70
    0
  9
$DIMSOXD
 70
    0
  9
$DIMSAH
 70
    0
  9
$DIMBLK1
  1

  9
$DIMBLK2
  1

  9
$DIMSTYLE
  2
ISO-25
  9
$DIMCLRD
 70
    0
  9
$DIMCLRE
 70
    0
  9
$DIMCLRT
 70
    0
  9
$DIMTFAC
 40
1
  9
$DIMGAP
 40
1.524
  9
$LUNITS
 70
    2
  9
$LUPREC
 70
    2
  9
$SKETCHINC
 40
1
  9
$FILLETRAD
 40
10
  9
$AUNITS
 70
    0
  9
$AUPREC
 70
    2
  9
$MENU
  1
.
  9
$ELEVATION
 40
0
  9
$PELEVATION
 40
0
  9
$THICKNESS
 40
0
  9
$LIMCHECK
 70
    0
  9
$BLIPMODE
 70
    0
  9
$CHAMFERA
 40
0
  9
$CHAMFERB
 40
0
  9
$SKPOLY
 70
    0
  9
$USRTIMER
 70
    1
  9
$ANGBASE
 50
0
  9
$ANGDIR
 70
    0
  9
$PDMODE
 70
    0
  9
$PDSIZE
 40
-1
  9
$PLINEWID
 40
0
  9
$COORDS
 70
    2
  9
$SPLFRAME
 70
    0
  9
$SPLINETYPE
 70
    6
  9
$SPLINESEGS
 70
    8
  9
$ATTDIA
 70
    1
  9
$ATTREQ
 70
    1
  9
$HANDLING
 70
    1
  9
$HANDSEED
  5
20000
  9
$SURFTAB1
 70
    6
  9
$SURFTAB2
 70
    6
  9
$SURFTYPE
 70
    6
  9
$SURFU
 70
    6
  9
$SURFV
 70
    6
  9
$UCSNAME
  2

  9
$UCSORG
 10
0
 20
0
 30
0
  9
$UCSXDIR
 10
1
 20
0
 30
0
  9
$UCSYDIR
 10
0
 20
1
 30
0
  9
$PUCSNAME
  2

  9
$PUCSORG
 10
0
 20
0
 30
0
  9
$PUCSXDIR
 10
1
 20
0
 30
0
  9
$PUCSYDIR
 10
0
 20
1
 30
0
  9
$USERI1
 70
    0
  9
$USERI2
 70
    0
  9
$USERI3
 70
    0
  9
$USERI4
 70
    0
  9
$USERI5
 70
    0
  9
$USERR1
 40
0
  9
$USERR2
 40
0
  9
$USERR3
 40
0
  9
$USERR4
 40
0
  9
$USERR5
 40
0
  9
$WORLDVIEW
 70
    1
  9
$SHADEDGE
 70
    3
  9
$SHADEDIF
 70
   70
  9
$TILEMODE
 70
    1
  9
$MAXACTVP
 70
   64
  9
$PLIMCHECK
 70
    0
  9
$PEXTMIN
 10
1e+020
 20
1e+020
 30
1e+020
  9
$PEXTMAX
 10
-1e+020
 20
-1e+020
 30
-1e+020
  9
$GRIDMODE
 70
    0
  9
$SNAPSTYLE
 70
    0
  9
$PLIMMIN
 10
0
 20
0
  9
$PLIMMAX
 10
420
 20
297
  9
$UNITMODE
 70
    0
  9
$VISRETAIN
 70
    1
  9
$PLINEGEN
 70
    0
  9
$PSLTSCALE
 70
    1
  0
ENDSEC
  0
SECTION
  2
TABLES
  0
TABLE
  2
VPORT
 70
    1
  0
VPORT
  2
*ACTIVE
 70
    0
 10
0
 20
0
 11
1
 21
1
 12
226.0963308661297
 22
93.40901045676273
 13
0
 23
0
 14
10
 24
10
 15
10
 25
10
 16
0
 26
0
 36
1
 17
0
 27
0
 37
0
 40
335.8787598224974
 41
1.856686201385189
 42
50
 43
0
 44
0
 50
0
 51
0
 71
    0
 72
  100
 73
    1
 74
    3
 75
    0
 76
    0
 77
    0
 78
    0
  0
ENDTAB
  0
TABLE
  2
LTYPE
 70
    4
  0
LTYPE
  2
BYBLOCK
 70
    0
  3

 72
   65
 73
    0
 40
0
  0
LTYPE
  2
BYLAYER
 70
    0
  3

 72
   65
 73
    0
 40
0
  0
LTYPE
  2
CONTINUOUS
 70
    0
  3
Solid line
 72
   65
 73
    0
 40
0
  0
LTYPE
  2
DOT
 70
    0
  3
Dot . . . . . . . . . . . . . . . . . . . . . .
 72
   65
 73
    2
 40
6.35
 49
0
 49
-6.35
  0
LTYPE
  2
DOTTINY
 70
    0
  3
Dot (.15x) .....................................
 72
   65
 73
    2
 40
0.9525
 49
0
 49
-0.9525
  0
LTYPE
  2
DOT2
 70
    0
  3
Dot (.5x) .....................................
 72
   65
 73
    2
 40
3.175
 49
0
 49
-3.175
  0
LTYPE
  2
DOTX2
 70
    0
  3
Dot (2x) .  .  .  .  .  .  .  .  .  .  .  .  .
 72
   65
 73
    2
 40
12.7
 49
0
 49
-12.7
  0
LTYPE
  2
DASHED
 70
    0
  3
Dashed _ _ _ _ _ _ _ _ _ _ _ _ _ _ _ _ _
 72
   65
 73
    2
 40
19.05
 49
12.7
 49
-6.35
  0
LTYPE
  2
DASHEDTINY
 70
    0
  3
Dashed (.15x) _ _ _ _ _ _ _ _ _ _ _ _ _ _ _ _ _
 72
   65
 73
    2
 40
2.8575
 49
1.905
 49
-0.9525
  0
LTYPE
  2
DASHED2
 70
    0
  3
Dashed (.5x) _ _ _ _ _ _ _ _ _ _ _ _ _ _ _ _ _
 72
   65
 73
    2
 40
9.524999999999999
 49
6.35
 49
-3.175
  0
LTYPE
  2
DASHEDX2
 70
    0
  3
Dashed (2x) ____  ____  ____  ____  ____  ___
 72
   65
 73
    2
 40
38.09999999999999
 49
25.4
 49
-12.7
  0
LTYPE
  2
DASHDOT
 70
    0
  3
Dash dot __ . __ . __ . __ . __ . __ . __ . __
 72
   65
 73
    4
 40
25.4
 49
12.7
 49
-6.35
 49
0
 49
-6.35
  0
LTYPE
  2
DASHDOTTINY
 70
    0
  3
Dash dot (.15x) _._._._._._._._._._._._._._._.
 72
   65
 73
    4
 40
3.81
 49
1.905
 49
-0.9525
 49
0
 49
-0.9525
  0
LTYPE
  2
DASHDOT2
 70
    0
  3
Dash dot (.5x) _._._._._._._._._._._._._._._.
 72
   65
 73
    4
 40
12.7
 49
6.35
 49
-3.175
 49
0
 49
-3.175
  0
LTYPE
  2
DASHDOTX2
 70
    0
  3
Dash dot (2x) ____  .  ____  .  ____  .  ___
 72
   65
 73
    4
 40
50.8
 49
25.4
 49
-12.7
 49
0
 49
-12.7
  0
LTYPE
  2
DIVIDE
 70
    0
  3
Divide ____ . . ____ . . ____ . . ____ . . ____
 72
   65
 73
    6
 40
31.75
 49
12.7
 49
-6.35
 49
0
 49
-6.35
 49
0
 49
-6.35
  0
LTYPE
  2
DIVIDETINY
 70
    0
  3
Divide (.15x) __..__..__..__..__..__..__..__.._
 72
   65
 73
    6
 40
4.7625
 49
1.905
 49
-0.9525
 49
0
 49
-0.9525
 49
0
 49
-0.9525
  0
LTYPE
  2
DIVIDE2
 70
    0
  3
Divide (.5x) __..__..__..__..__..__..__..__.._
 72
   65
 73
    6
 40
15.875
 49
6.35
 49
-3.175
 49
0
 49
-3.175
 49
0
 49
-3.175
  0
LTYPE
  2
DIVIDEX2
 70
    0
  3
Divide (2x) ________  .  .  ________  .  .  _
 72
   65
 73
    6
 40
63.5
 49
25.4
 49
-12.7
 49
0
 49
-12.7
 49
0
 49
-12.7
  0
LTYPE
  2
BORDER
 70
    0
  3
Border __ __ . __ __ . __ __ . __ __ . __ __ .
 72
   65
 73
    6
 40
44.45
 49
12.7
 49
-6.35
 49
12.7
 49
-6.35
 49
0
 49
-6.35
  0
LTYPE
  2
BORDERTINY
 70
    0
  3
Border (.15x) __.__.__.__.__.__.__.__.__.__.__.
 72
   65
 73
    6
 40
6.6675
 49
1.905
 49
-0.9525
 49
1.905
 49
-0.9525
 49
0
 49
-0.9525
  0
LTYPE
  2
BORDER2
 70
    0
  3
Border (.5x) __.__.__.__.__.__.__.__.__.__.__.
 72
   65
 73
    6
 40
22.225
 49
6.35
 49
-3.175
 49
6.35
 49
-3.175
 49
0
 49
-3.175
  0
LTYPE
  2
BORDERX2
 70
    0
  3
Border (2x) ____  ____  .  ____  ____  .  ___
 72
   65
 73
    6
 40
88.89999999999999
 49
25.4
 49
-12.7
 49
25.4
 49
-12.7
 49
0
 49
-12.7
  0
LTYPE
  2
CENTER
 70
    0
  3
Center ____ _ ____ _ ____ _ ____ _ ____ _ ____
 72
   65
 73
    4
 40
50.8
 49
31.75
 49
-6.35
 49
6.35
 49
-6.35
  0
LTYPE
  2
CENTERTINY
 70
    0
  3
Center (.15x) ___ _ ___ _ ___ _ ___ _ ___ _ ___
 72
   65
 73
    4
 40
7.62
 49
4.7625
 49
-0.9525
 49
0.9525
 49
-0.9525
  0
LTYPE
  2
CENTER2
 70
    0
  3
Center (.5x) ___ _ ___ _ ___ _ ___ _ ___ _ ___
 72
   65
 73
    4
 40
28.575
 49
19.05
 49
-3.175
 49
3.175
 49
-3.175
  0
LTYPE
  2
CENTERX2
 70
    0
  3
Center (2x) ________  __  ________  __  _____
 72
   65
 73
    4
 40
101.6
 49
63.5
 49
-12.7
 49
12.7
 49
-12.7
  0
ENDTAB
  0
TABLE
  2
LAYER
 70
    1
  0
LAYER
  2
0
 70
    0
 62
    7
  6
CONTINUOUS
  0
ENDTAB
  0
TABLE
  2
STYLE
 70
    3
  0
STYLE
  2
STANDARD
 70
    0
 40
0
 41
1
 50
0
 71
    0
 42
1
  3
TXT
  4

  0
ENDTAB
  0
TABLE
  2
VIEW
 70
    0
  0
ENDTAB
  0
TABLE
  2
UCS
 70
    0
  0
ENDTAB
  0
TABLE
  2
APPID
 70
    1
  0
APPID
  2
ACAD
 70
    0
  0
APPID
  2
LIBRECAD
 70
    0
  0
ENDTAB
  0
TABLE
  2
DIMSTYLE
 70
    1
  0
DIMSTYLE
  2
STANDARD
 70
    0
  3

  4

  5

  6

  7

 40
1
 41
3.302
 42
1.27
 43
0.38
 44
3.175
 45
0
 46
0
 47
0
 48
0
 49
1
140
3.175
141
0.09
142
0
143
25.4
144
1
145
0
146
1
147
1.524
 71
    0
 72
    0
 73
    1
 74
    1
 75
    0
 76
    0
 77
    0
 78
    0
170
    0
171
    2
172
    0
173
    0
174
    0
175
    0
176
    0
177
    0
178
    0
  0
ENDTAB
  0
ENDSEC
  0
SECTION
  2
BLOCKS
  0
BLOCK
  8
0
  2
$MODEL_SPACE
 70
    0
 10
0
 20
0
 30
0
  3
$MODEL_SPACE
  1

  0
ENDBLK
  8
0
  0
BLOCK
  8
0
  2
$PAPER_SPACE
 70
    0
 10
0
 20
0
 30
0
  3
$PAPER_SPACE
  1

  0
ENDBLK
  8
0
  0
ENDSEC
  0
SECTION
  2
ENTITIES
  0
CIRCLE
  5
31
  8
0
  6
CONTINUOUS
 62
    7
 10
5.549998435
 20
28.049999667
 40
1.450000000000003
  0
CIRCLE
  5
32
  8
0
  6
CONTINUOUS
 62
    7
 10
38.049998435
 20
5.549999667
 40
1.449999999999996
  0
CIRCLE
  5
33
  8
0
  6
CONTINUOUS
 62
    7
 10
161.924998435
 20
5.549999667
 40
1.450000000000017
  0
CIRCLE
  5
34
  8
0
  6
CONTINUOUS
 62
    7
 10
285.799998435
 20
5.549999667
 40
1.449999999999989
  0
CIRCLE
  5
35
  8
0
  6
CONTINUOUS
 62
    7
 10
318.299998435
 20
28.049999667
 40
1.450000000000045
  0
CIRCLE
  5
36
  8
0
  6
CONTINUOUS
 62
    7
 10
318.299998435
 20
110.062499667
 40
1.450000000000045
  0
CIRCLE
  5
37
  8
0
  6
CONTINUOUS
 62
    7
 10
285.799998435
 20
132.562499667
 40
1.449999999999932
  0
CIRCLE
  5
38
  8
0
  6
CONTINUOUS
 62
    7
 10
161.924998435
 20
132.562499667
 40
1.449999999999989
  0
CIRCLE
  5
39
  8
0
  6
CONTINUOUS
 62
    7
 10
5.549998435
 20
110.062499667
 40
1.449999999999996
  0
CIRCLE
  5
3A
  8
0
  6
CONTINUOUS
 62
    7
 10
38.049998435
 20
132.562499667
 40
1.449999999999967
  0
LINE
  5
3B
  8
0
  6
CONTINUOUS
 62
    7
 10
178.449998435
 20
88.749999667
 11
178.449998435
 21
101.749999667
  0
LINE
  5
3C
  8
0
  6
CONTINUOUS
 62
    7
 10
177.949998435
 20
102.249999667
 11
164.949998435
 21
102.249999667
  0
LINE
  5
3D
  8
0
  6
CONTINUOUS
 62
    7
 10
164.449998435
 20
101.749999667
 11
164.449998435
 21
88.749999667
  0
LINE
  5
3E
  8
0
  6
CONTINUOUS
 62
    7
 10
164.949998435
 20
88.249999667
 11
177.949998435
 21
88.249999667
  0
LINE
  5
3F
  8
0
  6
CONTINUOUS
 62
    7
 10
160.187498435
 20
50.149999667
 11
173.187498435
 21
50.149999667
  0
LINE
  5
40
  8
0
  6
CONTINUOUS
 62
    7
 10
173.687498435
 20
50.649999667
 11
173.687498435
 21
63.649999667
  0
LINE
  5
41
  8
0
  6
CONTINUOUS
 62
    7
 10
173.187498435
 20
64.149999667
 11
160.187498435
 21
64.149999667
  0
LINE
  5
42
  8
0
  6
CONTINUOUS
 62
    7
 10
159.687498435
 20
63.649999667
 11
159.687498435
 21
50.649999667
  0
LINE
  5
43
  8
0
  6
CONTINUOUS
 62
    7
 10
150.662498435
 20
31.099999667
 11
163.662498435
 21
31.099999667
  0
LINE
  5
44
  8
0
  6
CONTINUOUS
 62
    7
 10
164.162498435
 20
31.599999667
 11
164.162498435
 21
44.599999667
  0
LINE
  5
45
  8
0
  6
CONTINUOUS
 62
    7
 10
163.662498435
 20
45.099999667
 11
150.662498435
 21
45.099999667
  0
LINE
  5
46
  8
0
  6
CONTINUOUS
 62
    7
 10
150.162498435
 20
44.599999667
 11
150.162498435
 21
31.599999667
  0
LINE
  5
47
  8
0
  6
CONTINUOUS
 62
    7
 10
136.374998435
 20
12.049999667
 11
149.374998435
 21
12.049999667
  0
LINE
  5
48
  8
0
  6
CONTINUOUS
 62
    7
 10
149.874998435
 20
12.549999667
 11
149.874998435
 21
25.549999667
  0
LINE
  5
49
  8
0
  6
CONTINUOUS
 62
    7
 10
149.374998435
 20
26.049999667
 11
136.374998435
 21
26.049999667
  0
LINE
  5
4A
  8
0
  6
CONTINUOUS
 62
    7
 10
135.874998435
 20
25.549999667
 11
135.874998435
 21
12.549999667
  0
LINE
  5
4B
  8
0
  6
CONTINUOUS
 62
    7
 10
145.112498435
 20
31.599999667
 11
145.112498435
 21
44.599999667
  0
LINE
  5
4C
  8
0
  6
CONTINUOUS
 62
    7
 10
144.612498435
 20
45.099999667
 11
131.612498435
 21
45.099999667
  0
LINE
  5
4D
  8
0
  6
CONTINUOUS
 62
    7
 10
131.112498435
 20
44.599999667
 11
131.112498435
 21
31.599999667
  0
LINE
  5
4E
  8
0
  6
CONTINUOUS
 62
    7
 10
131.612498435
 20
31.099999667
 11
144.612498435
 21
31.099999667
  0
LINE
  5
4F
  8
0
  6
CONTINUOUS
 62
    7
 10
169.712498435
 20
31.099999667
 11
182.712498435
 21
31.099999667
  0
LINE
  5
50
  8
0
  6
CONTINUOUS
 62
    7
 10
183.212498435
 20
31.599999667
 11
183.212498435
 21
44.599999667
  0
LINE
  5
51
  8
0
  6
CONTINUOUS
 62
    7
 10
182.712498435
 20
45.099999667
 11
169.712498435
 21
45.099999667
  0
LINE
  5
52
  8
0
  6
CONTINUOUS
 62
    7
 10
169.212498435
 20
44.599999667
 11
169.212498435
 21
31.599999667
  0
LINE
  5
53
  8
0
  6
CONTINUOUS
 62
    7
 10
159.399998435
 20
88.749999667
 11
159.399998435
 21
101.749999667
  0
LINE
  5
54
  8
0
  6
CONTINUOUS
 62
    7
 10
158.899998435
 20
102.249999667
 11
145.899998435
 21
102.249999667
  0
LINE
  5
55
  8
0
  6
CONTINUOUS
 62
    7
 10
145.399998435
 20
101.749999667
 11
145.399998435
 21
88.749999667
  0
LINE
  5
56
  8
0
  6
CONTINUOUS
 62
    7
 10
145.899998435
 20
88.249999667
 11
158.899998435
 21
88.249999667
  0
LINE
  5
57
  8
0
  6
CONTINUOUS
 62
    7
 10
155.424998435
 20
69.199999667
 11
168.424998435
 21
69.199999667
  0
LINE
  5
58
  8
0
  6
CONTINUOUS
 62
    7
 10
168.924998435
 20
69.699999667
 11
168.924998435
 21
82.699999667
  0
LINE
  5
59
  8
0
  6
CONTINUOUS
 62
    7
 10
168.424998435
 20
83.199999667
 11
155.424998435
 21
83.199999667
  0
LINE
  5
5A
  8
0
  6
CONTINUOUS
 62
    7
 10
154.924998435
 20
82.699999667
 11
154.924998435
 21
69.699999667
  0
LINE
  5
5B
  8
0
  6
CONTINUOUS
 62
    7
 10
141.137498435
 20
50.149999667
 11
154.137498435
 21
50.149999667
  0
LINE
  5
5C
  8
0
  6
CONTINUOUS
 62
    7
 10
154.637498435
 20
50.649999667
 11
154.637498435
 21
63.649999667
  0
LINE
  5
5D
  8
0
  6
CONTINUOUS
 62
    7
 10
154.137498435
 20
64.149999667
 11
141.137498435
 21
64.149999667
  0
LINE
  5
5E
  8
0
  6
CONTINUOUS
 62
    7
 10
140.637498435
 20
63.649999667
 11
140.637498435
 21
50.649999667
  0
LINE
  5
5F
  8
0
  6
CONTINUOUS
 62
    7
 10
136.374998435
 20
69.199999667
 11
149.374998435
 21
69.199999667
  0
LINE
  5
60
  8
0
  6
CONTINUOUS
 62
    7
 10
149.874998435
 20
69.699999667
 11
149.874998435
 21
82.699999667
  0
LINE
  5
61
  8
0
  6
CONTINUOUS
 62
    7
 10
149.374998435
 20
83.199999667
 11
136.374998435
 21
83.199999667
  0
LINE
  5
62
  8
0
  6
CONTINUOUS
 62
    7
 10
135.874998435
 20
82.699999667
 11
135.874998435
 21
69.699999667
  0
LINE
  5
63
  8
0
  6
CONTINUOUS
 62
    7
 10
122.087498435
 20
50.149999667
 11
135.087498435
 21
50.149999667
  0
LINE
  5
64
  8
0
  6
CONTINUOUS
 62
    7
 10
135.587498435
 20
50.649999667
 11
135.587498435
 21
63.649999667
  0
LINE
  5
65
  8
0
  6
CONTINUOUS
 62
    7
 10
135.087498435
 20
64.149999667
 11
122.087498435
 21
64.149999667
  0
LINE
  5
66
  8
0
  6
CONTINUOUS
 62
    7
 10
121.587498435
 20
63.649999667
 11
121.587498435
 21
50.649999667
  0
LINE
  5
67
  8
0
  6
CONTINUOUS
 62
    7
 10
112.562498435
 20
31.099999667
 11
125.562498435
 21
31.099999667
  0
LINE
  5
68
  8
0
  6
CONTINUOUS
 62
    7
 10
126.062498435
 20
31.599999667
 11
126.062498435
 21
44.599999667
  0
LINE
  5
69
  8
0
  6
CONTINUOUS
 62
    7
 10
125.562498435
 20
45.099999667
 11
112.562498435
 21
45.099999667
  0
LINE
  5
6A
  8
0
  6
CONTINUOUS
 62
    7
 10
112.062498435
 20
44.599999667
 11
112.062498435
 21
31.599999667
  0
LINE
  5
6B
  8
0
  6
CONTINUOUS
 62
    7
 10
126.849998435
 20
88.249999667
 11
139.849998435
 21
88.249999667
  0
LINE
  5
6C
  8
0
  6
CONTINUOUS
 62
    7
 10
140.349998435
 20
88.749999667
 11
140.349998435
 21
101.749999667
  0
LINE
  5
6D
  8
0
  6
CONTINUOUS
 62
    7
 10
139.849998435
 20
102.249999667
 11
126.849998435
 21
102.249999667
  0
LINE
  5
6E
  8
0
  6
CONTINUOUS
 62
    7
 10
126.349998435
 20
101.749999667
 11
126.349998435
 21
88.749999667
  0
LINE
  5
6F
  8
0
  6
CONTINUOUS
 62
    7
 10
107.799998435
 20
88.249999667
 11
120.799998435
 21
88.249999667
  0
LINE
  5
70
  8
0
  6
CONTINUOUS
 62
    7
 10
121.299998435
 20
88.749999667
 11
121.299998435
 21
101.749999667
  0
LINE
  5
71
  8
0
  6
CONTINUOUS
 62
    7
 10
120.799998435
 20
102.249999667
 11
107.799998435
 21
102.249999667
  0
LINE
  5
72
  8
0
  6
CONTINUOUS
 62
    7
 10
107.299998435
 20
101.749999667
 11
107.299998435
 21
88.749999667
  0
LINE
  5
73
  8
0
  6
CONTINUOUS
 62
    7
 10
88.74999843499999
 20
88.249999667
 11
101.749998435
 21
88.249999667
  0
LINE
  5
74
  8
0
  6
CONTINUOUS
 62
    7
 10
102.249998435
 20
88.749999667
 11
102.249998435
 21
101.749999667
  0
LINE
  5
75
  8
0
  6
CONTINUOUS
 62
    7
 10
101.749998435
 20
102.249999667
 11
88.74999843499999
 21
102.249999667
  0
LINE
  5
76
  8
0
  6
CONTINUOUS
 62
    7
 10
88.24999843499999
 20
101.749999667
 11
88.24999843499999
 21
88.749999667
  0
LINE
  5
77
  8
0
  6
CONTINUOUS
 62
    7
 10
69.699998435
 20
88.249999667
 11
82.699998435
 21
88.249999667
  0
LINE
  5
78
  8
0
  6
CONTINUOUS
 62
    7
 10
83.199998435
 20
88.749999667
 11
83.199998435
 21
101.749999667
  0
LINE
  5
79
  8
0
  6
CONTINUOUS
 62
    7
 10
82.699998435
 20
102.249999667
 11
69.699998435
 21
102.249999667
  0
LINE
  5
7A
  8
0
  6
CONTINUOUS
 62
    7
 10
69.199998435
 20
101.749999667
 11
69.199998435
 21
88.749999667
  0
LINE
  5
7B
  8
0
  6
CONTINUOUS
 62
    7
 10
117.324998435
 20
69.199999667
 11
130.324998435
 21
69.199999667
  0
LINE
  5
7C
  8
0
  6
CONTINUOUS
 62
    7
 10
130.824998435
 20
69.699999667
 11
130.824998435
 21
82.699999667
  0
LINE
  5
7D
  8
0
  6
CONTINUOUS
 62
    7
 10
130.324998435
 20
83.199999667
 11
117.324998435
 21
83.199999667
  0
LINE
  5
7E
  8
0
  6
CONTINUOUS
 62
    7
 10
116.824998435
 20
82.699999667
 11
116.824998435
 21
69.699999667
  0
LINE
  5
7F
  8
0
  6
CONTINUOUS
 62
    7
 10
103.037498435
 20
50.149999667
 11
116.037498435
 21
50.149999667
  0
LINE
  5
80
  8
0
  6
CONTINUOUS
 62
    7
 10
116.537498435
 20
50.649999667
 11
116.537498435
 21
63.649999667
  0
LINE
  5
81
  8
0
  6
CONTINUOUS
 62
    7
 10
116.037498435
 20
64.149999667
 11
103.037498435
 21
64.149999667
  0
LINE
  5
82
  8
0
  6
CONTINUOUS
 62
    7
 10
102.537498435
 20
63.649999667
 11
102.537498435
 21
50.649999667
  0
LINE
  5
83
  8
0
  6
CONTINUOUS
 62
    7
 10
98.274998435
 20
69.199999667
 11
111.274998435
 21
69.199999667
  0
LINE
  5
84
  8
0
  6
CONTINUOUS
 62
    7
 10
111.774998435
 20
69.699999667
 11
111.774998435
 21
82.699999667
  0
LINE
  5
85
  8
0
  6
CONTINUOUS
 62
    7
 10
111.274998435
 20
83.199999667
 11
98.274998435
 21
83.199999667
  0
LINE
  5
86
  8
0
  6
CONTINUOUS
 62
    7
 10
97.774998435
 20
82.699999667
 11
97.774998435
 21
69.699999667
  0
LINE
  5
87
  8
0
  6
CONTINUOUS
 62
    7
 10
93.512498435
 20
31.099999667
 11
106.512498435
 21
31.099999667
  0
LINE
  5
88
  8
0
  6
CONTINUOUS
 62
    7
 10
107.012498435
 20
31.599999667
 11
107.012498435
 21
44.599999667
  0
LINE
  5
89
  8
0
  6
CONTINUOUS
 62
    7
 10
106.512498435
 20
45.099999667
 11
93.512498435
 21
45.099999667
  0
LINE
  5
8A
  8
0
  6
CONTINUOUS
 62
    7
 10
93.012498435
 20
44.599999667
 11
93.012498435
 21
31.599999667
  0
LINE
  5
8B
  8
0
  6
CONTINUOUS
 62
    7
 10
83.98749843500001
 20
50.149999667
 11
96.98749843500001
 21
50.149999667
  0
LINE
  5
8C
  8
0
  6
CONTINUOUS
 62
    7
 10
97.48749843500001
 20
50.649999667
 11
97.48749843500001
 21
63.649999667
  0
LINE
  5
8D
  8
0
  6
CONTINUOUS
 62
    7
 10
96.98749843500001
 20
64.149999667
 11
83.98749843500001
 21
64.149999667
  0
LINE
  5
8E
  8
0
  6
CONTINUOUS
 62
    7
 10
83.48749843500001
 20
63.649999667
 11
83.48749843500001
 21
50.649999667
  0
LINE
  5
8F
  8
0
  6
CONTINUOUS
 62
    7
 10
79.224998435
 20
69.199999667
 11
92.224998435
 21
69.199999667
  0
LINE
  5
90
  8
0
  6
CONTINUOUS
 62
    7
 10
92.724998435
 20
69.699999667
 11
92.724998435
 21
82.699999667
  0
LINE
  5
91
  8
0
  6
CONTINUOUS
 62
    7
 10
92.224998435
 20
83.199999667
 11
79.224998435
 21
83.199999667
  0
LINE
  5
92
  8
0
  6
CONTINUOUS
 62
    7
 10
78.724998435
 20
82.699999667
 11
78.724998435
 21
69.699999667
  0
LINE
  5
93
  8
0
  6
CONTINUOUS
 62
    7
 10
60.174998435
 20
69.199999667
 11
73.17499843500001
 21
69.199999667
  0
LINE
  5
94
  8
0
  6
CONTINUOUS
 62
    7
 10
73.67499843500001
 20
69.699999667
 11
73.67499843500001
 21
82.699999667
  0
LINE
  5
95
  8
0
  6
CONTINUOUS
 62
    7
 10
73.17499843500001
 20
83.199999667
 11
60.174998435
 21
83.199999667
  0
LINE
  5
96
  8
0
  6
CONTINUOUS
 62
    7
 10
59.674998435
 20
82.699999667
 11
59.674998435
 21
69.699999667
  0
LINE
  5
97
  8
0
  6
CONTINUOUS
 62
    7
 10
64.93749843499999
 20
50.149999667
 11
77.93749843499999
 21
50.149999667
  0
LINE
  5
98
  8
0
  6
CONTINUOUS
 62
    7
 10
78.43749843499999
 20
50.649999667
 11
78.43749843499999
 21
63.649999667
  0
LINE
  5
99
  8
0
  6
CONTINUOUS
 62
    7
 10
77.93749843499999
 20
64.149999667
 11
64.93749843499999
 21
64.149999667
  0
LINE
  5
9A
  8
0
  6
CONTINUOUS
 62
    7
 10
64.43749843499999
 20
63.649999667
 11
64.43749843499999
 21
50.649999667
  0
LINE
  5
9B
  8
0
  6
CONTINUOUS
 62
    7
 10
87.962498435
 20
31.599999667
 11
87.962498435
 21
44.599999667
  0
LINE
  5
9C
  8
0
  6
CONTINUOUS
 62
    7
 10
87.462498435
 20
45.099999667
 11
74.462498435
 21
45.099999667
  0
LINE
  5
9D
  8
0
  6
CONTINUOUS
 62
    7
 10
73.962498435
 20
44.599999667
 11
73.962498435
 21
31.599999667
  0
LINE
  5
9E
  8
0
  6
CONTINUOUS
 62
    7
 10
74.462498435
 20
31.099999667
 11
87.462498435
 21
31.099999667
  0
LINE
  5
9F
  8
0
  6
CONTINUOUS
 62
    7
 10
82.724998435
 20
10.049999667
 11
88.724998435
 21
10.049999667
  0
LINE
  5
A0
  8
0
  6
CONTINUOUS
 62
    7
 10
89.224998435
 20
10.549999667
 11
89.224998435
 21
24.549999667
  0
LINE
  5
A1
  8
0
  6
CONTINUOUS
 62
    7
 10
88.724998435
 20
25.049999667
 11
82.724998435
 21
25.049999667
  0
LINE
  5
A2
  8
0
  6
CONTINUOUS
 62
    7
 10
82.224998435
 20
24.549999667
 11
82.224998435
 21
10.549999667
  0
LINE
  5
A3
  8
0
  6
CONTINUOUS
 62
    7
 10
73.67499843500001
 20
12.549999667
 11
73.67499843500001
 21
25.549999667
  0
LINE
  5
A4
  8
0
  6
CONTINUOUS
 62
    7
 10
73.17499843500001
 20
26.049999667
 11
60.174998435
 21
26.049999667
  0
LINE
  5
A5
  8
0
  6
CONTINUOUS
 62
    7
 10
59.674998435
 20
25.549999667
 11
59.674998435
 21
12.549999667
  0
LINE
  5
A6
  8
0
  6
CONTINUOUS
 62
    7
 10
60.174998435
 20
12.049999667
 11
73.17499843500001
 21
12.049999667
  0
LINE
  5
A7
  8
0
  6
CONTINUOUS
 62
    7
 10
55.412498435
 20
31.099999667
 11
68.412498435
 21
31.099999667
  0
LINE
  5
A8
  8
0
  6
CONTINUOUS
 62
    7
 10
68.912498435
 20
31.599999667
 11
68.912498435
 21
44.599999667
  0
LINE
  5
A9
  8
0
  6
CONTINUOUS
 62
    7
 10
68.412498435
 20
45.099999667
 11
55.412498435
 21
45.099999667
  0
LINE
  5
AA
  8
0
  6
CONTINUOUS
 62
    7
 10
54.912498435
 20
44.599999667
 11
54.912498435
 21
31.599999667
  0
LINE
  5
AB
  8
0
  6
CONTINUOUS
 62
    7
 10
41.124998435
 20
69.199999667
 11
54.124998435
 21
69.199999667
  0
LINE
  5
AC
  8
0
  6
CONTINUOUS
 62
    7
 10
54.624998435
 20
69.699999667
 11
54.624998435
 21
82.699999667
  0
LINE
  5
AD
  8
0
  6
CONTINUOUS
 62
    7
 10
54.124998435
 20
83.199999667
 11
41.124998435
 21
83.199999667
  0
LINE
  5
AE
  8
0
  6
CONTINUOUS
 62
    7
 10
40.624998435
 20
82.699999667
 11
40.624998435
 21
69.699999667
  0
LINE
  5
AF
  8
0
  6
CONTINUOUS
 62
    7
 10
50.649998435
 20
88.249999667
 11
63.649998435
 21
88.249999667
  0
LINE
  5
B0
  8
0
  6
CONTINUOUS
 62
    7
 10
64.149998435
 20
88.749999667
 11
64.149998435
 21
101.749999667
  0
LINE
  5
B1
  8
0
  6
CONTINUOUS
 62
    7
 10
63.649998435
 20
102.249999667
 11
50.649998435
 21
102.249999667
  0
LINE
  5
B2
  8
0
  6
CONTINUOUS
 62
    7
 10
50.149998435
 20
101.749999667
 11
50.149998435
 21
88.749999667
  0
LINE
  5
B3
  8
0
  6
CONTINUOUS
 62
    7
 10
31.599998435
 20
88.249999667
 11
44.599998435
 21
88.249999667
  0
LINE
  5
B4
  8
0
  6
CONTINUOUS
 62
    7
 10
45.099998435
 20
88.749999667
 11
45.099998435
 21
101.749999667
  0
LINE
  5
B5
  8
0
  6
CONTINUOUS
 62
    7
 10
44.599998435
 20
102.249999667
 11
31.599998435
 21
102.249999667
  0
LINE
  5
B6
  8
0
  6
CONTINUOUS
 62
    7
 10
31.099998435
 20
101.749999667
 11
31.099998435
 21
88.749999667
  0
LINE
  5
B7
  8
0
  6
CONTINUOUS
 62
    7
 10
12.549998435
 20
88.249999667
 11
25.549998435
 21
88.249999667
  0
LINE
  5
B8
  8
0
  6
CONTINUOUS
 62
    7
 10
26.049998435
 20
88.749999667
 11
26.049998435
 21
101.749999667
  0
LINE
  5
B9
  8
0
  6
CONTINUOUS
 62
    7
 10
25.549998435
 20
102.249999667
 11
12.549998435
 21
102.249999667
  0
LINE
  5
BA
  8
0
  6
CONTINUOUS
 62
    7
 10
12.049998435
 20
101.749999667
 11
12.049998435
 21
88.749999667
  0
LINE
  5
BB
  8
0
  6
CONTINUOUS
 62
    7
 10
17.312498435
 20
69.199999667
 11
30.312498435
 21
69.199999667
  0
LINE
  5
BC
  8
0
  6
CONTINUOUS
 62
    7
 10
30.812498435
 20
69.699999667
 11
30.812498435
 21
82.699999667
  0
LINE
  5
BD
  8
0
  6
CONTINUOUS
 62
    7
 10
30.312498435
 20
83.199999667
 11
17.312498435
 21
83.199999667
  0
LINE
  5
BE
  8
0
  6
CONTINUOUS
 62
    7
 10
16.812498435
 20
82.699999667
 11
16.812498435
 21
69.699999667
  0
LINE
  5
BF
  8
0
  6
CONTINUOUS
 62
    7
 10
14.931248435
 20
50.149999667
 11
27.931248435
 21
50.149999667
  0
LINE
  5
C0
  8
0
  6
CONTINUOUS
 62
    7
 10
28.431248435
 20
50.649999667
 11
28.431248435
 21
63.649999667
  0
LINE
  5
C1
  8
0
  6
CONTINUOUS
 62
    7
 10
27.931248435
 20
64.149999667
 11
14.931248435
 21
64.149999667
  0
LINE
  5
C2
  8
0
  6
CONTINUOUS
 62
    7
 10
14.431248435
 20
63.649999667
 11
14.431248435
 21
50.649999667
  0
LINE
  5
C3
  8
0
  6
CONTINUOUS
 62
    7
 10
45.887498435
 20
50.149999667
 11
58.887498435
 21
50.149999667
  0
LINE
  5
C4
  8
0
  6
CONTINUOUS
 62
    7
 10
59.387498435
 20
50.649999667
 11
59.387498435
 21
63.649999667
  0
LINE
  5
C5
  8
0
  6
CONTINUOUS
 62
    7
 10
58.887498435
 20
64.149999667
 11
45.887498435
 21
64.149999667
  0
LINE
  5
C6
  8
0
  6
CONTINUOUS
 62
    7
 10
45.387498435
 20
63.649999667
 11
45.387498435
 21
50.649999667
  0
LINE
  5
C7
  8
0
  6
CONTINUOUS
 62
    7
 10
39.894248435
 20
29.099999667
 11
45.894248435
 21
29.099999667
  0
LINE
  5
C8
  8
0
  6
CONTINUOUS
 62
    7
 10
46.394248435
 20
29.599999667
 11
46.394248435
 21
43.599999667
  0
LINE
  5
C9
  8
0
  6
CONTINUOUS
 62
    7
 10
45.894248435
 20
44.099999667
 11
39.894248435
 21
44.099999667
  0
LINE
  5
CA
  8
0
  6
CONTINUOUS
 62
    7
 10
39.394248435
 20
43.599999667
 11
39.394248435
 21
29.599999667
  0
LINE
  5
CB
  8
0
  6
CONTINUOUS
 62
    7
 10
24.456248435
 20
31.099999667
 11
37.456248435
 21
31.099999667
  0
LINE
  5
CC
  8
0
  6
CONTINUOUS
 62
    7
 10
37.956248435
 20
31.599999667
 11
37.956248435
 21
44.599999667
  0
LINE
  5
CD
  8
0
  6
CONTINUOUS
 62
    7
 10
37.456248435
 20
45.099999667
 11
24.456248435
 21
45.099999667
  0
LINE
  5
CE
  8
0
  6
CONTINUOUS
 62
    7
 10
23.956248435
 20
44.599999667
 11
23.956248435
 21
31.599999667
  0
LINE
  5
CF
  8
0
  6
CONTINUOUS
 62
    7
 10
16.018248435
 20
29.099999667
 11
22.018248435
 21
29.099999667
  0
LINE
  5
D0
  8
0
  6
CONTINUOUS
 62
    7
 10
22.518248435
 20
29.599999667
 11
22.518248435
 21
43.599999667
  0
LINE
  5
D1
  8
0
  6
CONTINUOUS
 62
    7
 10
22.018248435
 20
44.099999667
 11
16.018248435
 21
44.099999667
  0
LINE
  5
D2
  8
0
  6
CONTINUOUS
 62
    7
 10
15.518248435
 20
43.599999667
 11
15.518248435
 21
29.599999667
  0
LINE
  5
D3
  8
0
  6
CONTINUOUS
 62
    7
 10
17.312498435
 20
12.049999667
 11
30.312498435
 21
12.049999667
  0
LINE
  5
D4
  8
0
  6
CONTINUOUS
 62
    7
 10
30.812498435
 20
12.549999667
 11
30.812498435
 21
25.549999667
  0
LINE
  5
D5
  8
0
  6
CONTINUOUS
 62
    7
 10
30.312498435
 20
26.049999667
 11
17.312498435
 21
26.049999667
  0
LINE
  5
D6
  8
0
  6
CONTINUOUS
 62
    7
 10
16.812498435
 20
25.549999667
 11
16.812498435
 21
12.549999667
  0
LINE
  5
D7
  8
0
  6
CONTINUOUS
 62
    7
 10
179.237498435
 20
50.149999667
 11
192.237498435
 21
50.149999667
  0
LINE
  5
D8
  8
0
  6
CONTINUOUS
 62
    7
 10
192.737498435
 20
50.649999667
 11
192.737498435
 21
63.649999667
  0
LINE
  5
D9
  8
0
  6
CONTINUOUS
 62
    7
 10
192.237498435
 20
64.149999667
 11
179.237498435
 21
64.149999667
  0
LINE
  5
DA
  8
0
  6
CONTINUOUS
 62
    7
 10
178.737498435
 20
63.649999667
 11
178.737498435
 21
50.649999667
  0
LINE
  5
DB
  8
0
  6
CONTINUOUS
 62
    7
 10
193.524998435
 20
69.199999667
 11
206.524998435
 21
69.199999667
  0
LINE
  5
DC
  8
0
  6
CONTINUOUS
 62
    7
 10
207.024998435
 20
69.699999667
 11
207.024998435
 21
82.699999667
  0
LINE
  5
DD
  8
0
  6
CONTINUOUS
 62
    7
 10
206.524998435
 20
83.199999667
 11
193.524998435
 21
83.199999667
  0
LINE
  5
DE
  8
0
  6
CONTINUOUS
 62
    7
 10
193.024998435
 20
82.699999667
 11
193.024998435
 21
69.699999667
  0
LINE
  5
DF
  8
0
  6
CONTINUOUS
 62
    7
 10
198.287498435
 20
50.149999667
 11
211.287498435
 21
50.149999667
  0
LINE
  5
E0
  8
0
  6
CONTINUOUS
 62
    7
 10
211.787498435
 20
50.649999667
 11
211.787498435
 21
63.649999667
  0
LINE
  5
E1
  8
0
  6
CONTINUOUS
 62
    7
 10
211.287498435
 20
64.149999667
 11
198.287498435
 21
64.149999667
  0
LINE
  5
E2
  8
0
  6
CONTINUOUS
 62
    7
 10
197.787498435
 20
63.649999667
 11
197.787498435
 21
50.649999667
  0
LINE
  5
E3
  8
0
  6
CONTINUOUS
 62
    7
 10
188.262498435
 20
44.599999667
 11
188.262498435
 21
31.599999667
  0
LINE
  5
E4
  8
0
  6
CONTINUOUS
 62
    7
 10
188.762498435
 20
31.099999667
 11
201.762498435
 21
31.099999667
  0
LINE
  5
E5
  8
0
  6
CONTINUOUS
 62
    7
 10
202.262498435
 20
31.599999667
 11
202.262498435
 21
44.599999667
  0
LINE
  5
E6
  8
0
  6
CONTINUOUS
 62
    7
 10
201.762498435
 20
45.099999667
 11
188.762498435
 21
45.099999667
  0
LINE
  5
E7
  8
0
  6
CONTINUOUS
 62
    7
 10
196.524998435
 20
24.549999667
 11
196.524998435
 21
10.549999667
  0
LINE
  5
E8
  8
0
  6
CONTINUOUS
 62
    7
 10
197.024998435
 20
10.049999667
 11
203.024998435
 21
10.049999667
  0
LINE
  5
E9
  8
0
  6
CONTINUOUS
 62
    7
 10
203.524998435
 20
10.549999667
 11
203.524998435
 21
24.549999667
  0
LINE
  5
EA
  8
0
  6
CONTINUOUS
 62
    7
 10
203.024998435
 20
25.049999667
 11
197.024998435
 21
25.049999667
  0
LINE
  5
EB
  8
0
  6
CONTINUOUS
 62
    7
 10
216.837498435
 20
63.649999667
 11
216.837498435
 21
50.649999667
  0
LINE
  5
EC
  8
0
  6
CONTINUOUS
 62
    7
 10
217.337498435
 20
50.149999667
 11
230.337498435
 21
50.149999667
  0
LINE
  5
ED
  8
0
  6
CONTINUOUS
 62
    7
 10
230.837498435
 20
50.649999667
 11
230.837498435
 21
63.649999667
  0
LINE
  5
EE
  8
0
  6
CONTINUOUS
 62
    7
 10
230.337498435
 20
64.149999667
 11
217.337498435
 21
64.149999667
  0
LINE
  5
EF
  8
0
  6
CONTINUOUS
 62
    7
 10
212.574998435
 20
69.199999667
 11
225.574998435
 21
69.199999667
  0
LINE
  5
F0
  8
0
  6
CONTINUOUS
 62
    7
 10
226.074998435
 20
69.699999667
 11
226.074998435
 21
82.699999667
  0
LINE
  5
F1
  8
0
  6
CONTINUOUS
 62
    7
 10
225.574998435
 20
83.199999667
 11
212.574998435
 21
83.199999667
  0
LINE
  5
F2
  8
0
  6
CONTINUOUS
 62
    7
 10
212.074998435
 20
82.699999667
 11
212.074998435
 21
69.699999667
  0
LINE
  5
F3
  8
0
  6
CONTINUOUS
 62
    7
 10
183.999998435
 20
88.249999667
 11
196.999998435
 21
88.249999667
  0
LINE
  5
F4
  8
0
  6
CONTINUOUS
 62
    7
 10
197.499998435
 20
88.749999667
 11
197.499998435
 21
101.749999667
  0
LINE
  5
F5
  8
0
  6
CONTINUOUS
 62
    7
 10
196.999998435
 20
102.249999667
 11
183.999998435
 21
102.249999667
  0
LINE
  5
F6
  8
0
  6
CONTINUOUS
 62
    7
 10
183.499998435
 20
101.749999667
 11
183.499998435
 21
88.749999667
  0
LINE
  5
F7
  8
0
  6
CONTINUOUS
 62
    7
 10
203.049998435
 20
88.249999667
 11
216.049998435
 21
88.249999667
  0
LINE
  5
F8
  8
0
  6
CONTINUOUS
 62
    7
 10
216.549998435
 20
88.749999667
 11
216.549998435
 21
101.749999667
  0
LINE
  5
F9
  8
0
  6
CONTINUOUS
 62
    7
 10
216.049998435
 20
102.249999667
 11
203.049998435
 21
102.249999667
  0
LINE
  5
FA
  8
0
  6
CONTINUOUS
 62
    7
 10
202.549998435
 20
101.749999667
 11
202.549998435
 21
88.749999667
  0
LINE
  5
FB
  8
0
  6
CONTINUOUS
 62
    7
 10
150.662498435
 20
112.062499667
 11
163.662498435
 21
112.062499667
  0
LINE
  5
FC
  8
0
  6
CONTINUOUS
 62
    7
 10
164.162498435
 20
112.562499667
 11
164.162498435
 21
125.562499667
  0
LINE
  5
FD
  8
0
  6
CONTINUOUS
 62
    7
 10
163.662498435
 20
126.062499667
 11
150.662498435
 21
126.062499667
  0
LINE
  5
FE
  8
0
  6
CONTINUOUS
 62
    7
 10
150.162498435
 20
125.562499667
 11
150.162498435
 21
112.562499667
  0
LINE
  5
FF
  8
0
  6
CONTINUOUS
 62
    7
 10
131.612498435
 20
112.062499667
 11
144.612498435
 21
112.062499667
  0
LINE
  5
100
  8
0
  6
CONTINUOUS
 62
    7
 10
145.112498435
 20
112.562499667
 11
145.112498435
 21
125.562499667
  0
LINE
  5
101
  8
0
  6
CONTINUOUS
 62
    7
 10
144.612498435
 20
126.062499667
 11
131.612498435
 21
126.062499667
  0
LINE
  5
102
  8
0
  6
CONTINUOUS
 62
    7
 10
131.112498435
 20
125.562499667
 11
131.112498435
 21
112.562499667
  0
LINE
  5
103
  8
0
  6
CONTINUOUS
 62
    7
 10
103.037498435
 20
112.062499667
 11
116.037498435
 21
112.062499667
  0
LINE
  5
104
  8
0
  6
CONTINUOUS
 62
    7
 10
116.537498435
 20
112.562499667
 11
116.537498435
 21
125.562499667
  0
LINE
  5
105
  8
0
  6
CONTINUOUS
 62
    7
 10
116.037498435
 20
126.062499667
 11
103.037498435
 21
126.062499667
  0
LINE
  5
106
  8
0
  6
CONTINUOUS
 62
    7
 10
102.537498435
 20
125.562499667
 11
102.537498435
 21
112.562499667
  0
LINE
  5
107
  8
0
  6
CONTINUOUS
 62
    7
 10
83.98749843500001
 20
112.062499667
 11
96.98749843500001
 21
112.062499667
  0
LINE
  5
108
  8
0
  6
CONTINUOUS
 62
    7
 10
97.48749843500001
 20
112.562499667
 11
97.48749843500001
 21
125.562499667
  0
LINE
  5
109
  8
0
  6
CONTINUOUS
 62
    7
 10
96.98749843500001
 20
126.062499667
 11
83.98749843500001
 21
126.062499667
  0
LINE
  5
10A
  8
0
  6
CONTINUOUS
 62
    7
 10
83.48749843500001
 20
125.562499667
 11
83.48749843500001
 21
112.562499667
  0
LINE
  5
10B
  8
0
  6
CONTINUOUS
 62
    7
 10
64.93749843499999
 20
112.062499667
 11
77.93749843499999
 21
112.062499667
  0
LINE
  5
10C
  8
0
  6
CONTINUOUS
 62
    7
 10
78.43749843499999
 20
112.562499667
 11
78.43749843499999
 21
125.562499667
  0
LINE
  5
10D
  8
0
  6
CONTINUOUS
 62
    7
 10
77.93749843499999
 20
126.062499667
 11
64.93749843499999
 21
126.062499667
  0
LINE
  5
10E
  8
0
  6
CONTINUOUS
 62
    7
 10
64.43749843499999
 20
125.562499667
 11
64.43749843499999
 21
112.562499667
  0
LINE
  5
10F
  8
0
  6
CONTINUOUS
 62
    7
 10
45.887498435
 20
112.062499667
 11
58.887498435
 21
112.062499667
  0
LINE
  5
110
  8
0
  6
CONTINUOUS
 62
    7
 10
59.387498435
 20
112.562499667
 11
59.387498435
 21
125.562499667
  0
LINE
  5
111
  8
0
  6
CONTINUOUS
 62
    7
 10
58.887498435
 20
126.062499667
 11
45.887498435
 21
126.062499667
  0
LINE
  5
112
  8
0
  6
CONTINUOUS
 62
    7
 10
45.387498435
 20
125.562499667
 11
45.387498435
 21
112.562499667
  0
LINE
  5
113
  8
0
  6
CONTINUOUS
 62
    7
 10
12.549998435
 20
112.062499667
 11
25.549998435
 21
112.062499667
  0
LINE
  5
114
  8
0
  6
CONTINUOUS
 62
    7
 10
26.049998435
 20
112.562499667
 11
26.049998435
 21
125.562499667
  0
LINE
  5
115
  8
0
  6
CONTINUOUS
 62
    7
 10
25.549998435
 20
126.062499667
 11
12.549998435
 21
126.062499667
  0
LINE
  5
116
  8
0
  6
CONTINUOUS
 62
    7
 10
12.049998435
 20
125.562499667
 11
12.049998435
 21
112.562499667
  0
LINE
  5
117
  8
0
  6
CONTINUOUS
 62
    7
 10
169.212498435
 20
125.562499667
 11
169.212498435
 21
112.562499667
  0
LINE
  5
118
  8
0
  6
CONTINUOUS
 62
    7
 10
169.712498435
 20
112.062499667
 11
182.712498435
 21
112.062499667
  0
LINE
  5
119
  8
0
  6
CONTINUOUS
 62
    7
 10
183.212498435
 20
112.562499667
 11
183.212498435
 21
125.562499667
  0
LINE
  5
11A
  8
0
  6
CONTINUOUS
 62
    7
 10
182.712498435
 20
126.062499667
 11
169.712498435
 21
126.062499667
  0
LINE
  5
11B
  8
0
  6
CONTINUOUS
 62
    7
 10
201.762498435
 20
126.062499667
 11
188.762498435
 21
126.062499667
  0
LINE
  5
11C
  8
0
  6
CONTINUOUS
 62
    7
 10
188.262498435
 20
125.562499667
 11
188.262498435
 21
112.562499667
  0
LINE
  5
11D
  8
0
  6
CONTINUOUS
 62
    7
 10
188.762498435
 20
112.062499667
 11
201.762498435
 21
112.062499667
  0
LINE
  5
11E
  8
0
  6
CONTINUOUS
 62
    7
 10
202.262498435
 20
112.562499667
 11
202.262498435
 21
125.562499667
  0
LINE
  5
11F
  8
0
  6
CONTINUOUS
 62
    7
 10
216.837498435
 20
125.562499667
 11
216.837498435
 21
112.562499667
  0
LINE
  5
120
  8
0
  6
CONTINUOUS
 62
    7
 10
217.337498435
 20
112.062499667
 11
230.337498435
 21
112.062499667
  0
LINE
  5
121
  8
0
  6
CONTINUOUS
 62
    7
 10
230.837498435
 20
112.562499667
 11
230.837498435
 21
125.562499667
  0
LINE
  5
122
  8
0
  6
CONTINUOUS
 62
    7
 10
230.337498435
 20
126.062499667
 11
217.337498435
 21
126.062499667
  0
LINE
  5
123
  8
0
  6
CONTINUOUS
 62
    7
 10
235.887498435
 20
125.562499667
 11
235.887498435
 21
112.562499667
  0
LINE
  5
124
  8
0
  6
CONTINUOUS
 62
    7
 10
236.387498435
 20
112.062499667
 11
249.387498435
 21
112.062499667
  0
LINE
  5
125
  8
0
  6
CONTINUOUS
 62
    7
 10
249.887498435
 20
112.562499667
 11
249.887498435
 21
125.562499667
  0
LINE
  5
126
  8
0
  6
CONTINUOUS
 62
    7
 10
249.387498435
 20
126.062499667
 11
236.387498435
 21
126.062499667
  0
LINE
  5
127
  8
0
  6
CONTINUOUS
 62
    7
 10
268.437498435
 20
126.062499667
 11
255.437498435
 21
126.062499667
  0
LINE
  5
128
  8
0
  6
CONTINUOUS
 62
    7
 10
254.937498435
 20
125.562499667
 11
254.937498435
 21
112.562499667
  0
LINE
  5
129
  8
0
  6
CONTINUOUS
 62
    7
 10
255.437498435
 20
112.062499667
 11
268.437498435
 21
112.062499667
  0
LINE
  5
12A
  8
0
  6
CONTINUOUS
 62
    7
 10
268.937498435
 20
112.562499667
 11
268.937498435
 21
125.562499667
  0
LINE
  5
12B
  8
0
  6
CONTINUOUS
 62
    7
 10
221.599998435
 20
101.749999667
 11
221.599998435
 21
88.749999667
  0
LINE
  5
12C
  8
0
  6
CONTINUOUS
 62
    7
 10
222.099998435
 20
88.249999667
 11
235.099998435
 21
88.249999667
  0
LINE
  5
12D
  8
0
  6
CONTINUOUS
 62
    7
 10
235.599998435
 20
88.749999667
 11
235.599998435
 21
101.749999667
  0
LINE
  5
12E
  8
0
  6
CONTINUOUS
 62
    7
 10
235.099998435
 20
102.249999667
 11
222.099998435
 21
102.249999667
  0
LINE
  5
12F
  8
0
  6
CONTINUOUS
 62
    7
 10
231.624998435
 20
69.199999667
 11
244.624998435
 21
69.199999667
  0
LINE
  5
130
  8
0
  6
CONTINUOUS
 62
    7
 10
245.124998435
 20
69.699999667
 11
245.124998435
 21
82.699999667
  0
LINE
  5
131
  8
0
  6
CONTINUOUS
 62
    7
 10
244.624998435
 20
83.199999667
 11
231.624998435
 21
83.199999667
  0
LINE
  5
132
  8
0
  6
CONTINUOUS
 62
    7
 10
231.124998435
 20
82.699999667
 11
231.124998435
 21
69.699999667
  0
LINE
  5
133
  8
0
  6
CONTINUOUS
 62
    7
 10
240.649998435
 20
101.749999667
 11
240.649998435
 21
88.749999667
  0
LINE
  5
134
  8
0
  6
CONTINUOUS
 62
    7
 10
241.149998435
 20
88.249999667
 11
254.149998435
 21
88.249999667
  0
LINE
  5
135
  8
0
  6
CONTINUOUS
 62
    7
 10
254.649998435
 20
88.749999667
 11
254.649998435
 21
101.749999667
  0
LINE
  5
136
  8
0
  6
CONTINUOUS
 62
    7
 10
254.149998435
 20
102.249999667
 11
241.149998435
 21
102.249999667
  0
LINE
  5
137
  8
0
  6
CONTINUOUS
 62
    7
 10
264.174998435
 20
69.699999667
 11
264.174998435
 21
82.699999667
  0
LINE
  5
138
  8
0
  6
CONTINUOUS
 62
    7
 10
263.674998435
 20
83.199999667
 11
250.674998435
 21
83.199999667
  0
LINE
  5
139
  8
0
  6
CONTINUOUS
 62
    7
 10
250.174998435
 20
82.699999667
 11
250.174998435
 21
69.699999667
  0
LINE
  5
13A
  8
0
  6
CONTINUOUS
 62
    7
 10
250.674998435
 20
69.199999667
 11
263.674998435
 21
69.199999667
  0
LINE
  5
13B
  8
0
  6
CONTINUOUS
 62
    7
 10
249.387498435
 20
64.149999667
 11
236.387498435
 21
64.149999667
  0
LINE
  5
13C
  8
0
  6
CONTINUOUS
 62
    7
 10
235.887498435
 20
63.649999667
 11
235.887498435
 21
50.649999667
  0
LINE
  5
13D
  8
0
  6
CONTINUOUS
 62
    7
 10
236.387498435
 20
50.149999667
 11
249.387498435
 21
50.149999667
  0
LINE
  5
13E
  8
0
  6
CONTINUOUS
 62
    7
 10
249.887498435
 20
50.649999667
 11
249.887498435
 21
63.649999667
  0
LINE
  5
13F
  8
0
  6
CONTINUOUS
 62
    7
 10
240.362498435
 20
31.599999667
 11
240.362498435
 21
44.599999667
  0
LINE
  5
140
  8
0
  6
CONTINUOUS
 62
    7
 10
239.862498435
 20
45.099999667
 11
226.862498435
 21
45.099999667
  0
LINE
  5
141
  8
0
  6
CONTINUOUS
 62
    7
 10
226.362498435
 20
44.599999667
 11
226.362498435
 21
31.599999667
  0
LINE
  5
142
  8
0
  6
CONTINUOUS
 62
    7
 10
226.862498435
 20
31.099999667
 11
239.862498435
 21
31.099999667
  0
LINE
  5
143
  8
0
  6
CONTINUOUS
 62
    7
 10
220.812498435
 20
45.099999667
 11
207.812498435
 21
45.099999667
  0
LINE
  5
144
  8
0
  6
CONTINUOUS
 62
    7
 10
207.312498435
 20
44.599999667
 11
207.312498435
 21
31.599999667
  0
LINE
  5
145
  8
0
  6
CONTINUOUS
 62
    7
 10
207.812498435
 20
31.099999667
 11
220.812498435
 21
31.099999667
  0
LINE
  5
146
  8
0
  6
CONTINUOUS
 62
    7
 10
221.312498435
 20
31.599999667
 11
221.312498435
 21
44.599999667
  0
LINE
  5
147
  8
0
  6
CONTINUOUS
 62
    7
 10
212.074998435
 20
25.549999667
 11
212.074998435
 21
12.549999667
  0
LINE
  5
148
  8
0
  6
CONTINUOUS
 62
    7
 10
212.574998435
 20
12.049999667
 11
225.574998435
 21
12.049999667
  0
LINE
  5
149
  8
0
  6
CONTINUOUS
 62
    7
 10
226.074998435
 20
12.549999667
 11
226.074998435
 21
25.549999667
  0
LINE
  5
14A
  8
0
  6
CONTINUOUS
 62
    7
 10
225.574998435
 20
26.049999667
 11
212.574998435
 21
26.049999667
  0
LINE
  5
14B
  8
0
  6
CONTINUOUS
 62
    7
 10
231.124998435
 20
25.549999667
 11
231.124998435
 21
12.549999667
  0
LINE
  5
14C
  8
0
  6
CONTINUOUS
 62
    7
 10
231.624998435
 20
12.049999667
 11
244.624998435
 21
12.049999667
  0
LINE
  5
14D
  8
0
  6
CONTINUOUS
 62
    7
 10
245.124998435
 20
12.549999667
 11
245.124998435
 21
25.549999667
  0
LINE
  5
14E
  8
0
  6
CONTINUOUS
 62
    7
 10
244.624998435
 20
26.049999667
 11
231.624998435
 21
26.049999667
  0
LINE
  5
14F
  8
0
  6
CONTINUOUS
 62
    7
 10
259.699998435
 20
25.549999667
 11
259.699998435
 21
12.549999667
  0
LINE
  5
150
  8
0
  6
CONTINUOUS
 62
    7
 10
260.199998435
 20
12.049999667
 11
273.199998435
 21
12.049999667
  0
LINE
  5
151
  8
0
  6
CONTINUOUS
 62
    7
 10
273.699998435
 20
12.549999667
 11
273.699998435
 21
25.549999667
  0
LINE
  5
152
  8
0
  6
CONTINUOUS
 62
    7
 10
273.199998435
 20
26.049999667
 11
260.199998435
 21
26.049999667
  0
LINE
  5
153
  8
0
  6
CONTINUOUS
 62
    7
 10
278.749998435
 20
25.549999667
 11
278.749998435
 21
12.549999667
  0
LINE
  5
154
  8
0
  6
CONTINUOUS
 62
    7
 10
279.249998435
 20
12.049999667
 11
292.249998435
 21
12.049999667
  0
LINE
  5
155
  8
0
  6
CONTINUOUS
 62
    7
 10
292.749998435
 20
12.549999667
 11
292.749998435
 21
25.549999667
  0
LINE
  5
156
  8
0
  6
CONTINUOUS
 62
    7
 10
292.249998435
 20
26.049999667
 11
279.249998435
 21
26.049999667
  0
LINE
  5
157
  8
0
  6
CONTINUOUS
 62
    7
 10
279.249998435
 20
31.099999667
 11
292.249998435
 21
31.099999667
  0
LINE
  5
158
  8
0
  6
CONTINUOUS
 62
    7
 10
292.749998435
 20
31.599999667
 11
292.749998435
 21
44.599999667
  0
LINE
  5
159
  8
0
  6
CONTINUOUS
 62
    7
 10
292.249998435
 20
45.099999667
 11
279.249998435
 21
45.099999667
  0
LINE
  5
15A
  8
0
  6
CONTINUOUS
 62
    7
 10
278.749998435
 20
44.599999667
 11
278.749998435
 21
31.599999667
  0
LINE
  5
15B
  8
0
  6
CONTINUOUS
 62
    7
 10
253.056248435
 20
31.099999667
 11
266.056248435
 21
31.099999667
  0
LINE
  5
15C
  8
0
  6
CONTINUOUS
 62
    7
 10
266.556248435
 20
31.599999667
 11
266.556248435
 21
44.599999667
  0
LINE
  5
15D
  8
0
  6
CONTINUOUS
 62
    7
 10
266.056248435
 20
45.099999667
 11
253.056248435
 21
45.099999667
  0
LINE
  5
15E
  8
0
  6
CONTINUOUS
 62
    7
 10
252.556248435
 20
44.599999667
 11
252.556248435
 21
31.599999667
  0
LINE
  5
15F
  8
0
  6
CONTINUOUS
 62
    7
 10
258.405748435
 20
62.649999667
 11
258.405748435
 21
48.649999667
  0
LINE
  5
160
  8
0
  6
CONTINUOUS
 62
    7
 10
258.905748435
 20
48.149999667
 11
264.905748435
 21
48.149999667
  0
LINE
  5
161
  8
0
  6
CONTINUOUS
 62
    7
 10
265.405748435
 20
48.649999667
 11
265.405748435
 21
62.649999667
  0
LINE
  5
162
  8
0
  6
CONTINUOUS
 62
    7
 10
264.905748435
 20
63.149999667
 11
258.905748435
 21
63.149999667
  0
LINE
  5
163
  8
0
  6
CONTINUOUS
 62
    7
 10
266.843748435
 20
63.649999667
 11
266.843748435
 21
50.649999667
  0
LINE
  5
164
  8
0
  6
CONTINUOUS
 62
    7
 10
267.343748435
 20
50.149999667
 11
280.343748435
 21
50.149999667
  0
LINE
  5
165
  8
0
  6
CONTINUOUS
 62
    7
 10
280.843748435
 20
50.649999667
 11
280.843748435
 21
63.649999667
  0
LINE
  5
166
  8
0
  6
CONTINUOUS
 62
    7
 10
280.343748435
 20
64.149999667
 11
267.343748435
 21
64.149999667
  0
LINE
  5
167
  8
0
  6
CONTINUOUS
 62
    7
 10
282.781748435
 20
48.149999667
 11
288.781748435
 21
48.149999667
  0
LINE
  5
168
  8
0
  6
CONTINUOUS
 62
    7
 10
289.281748435
 20
48.649999667
 11
289.281748435
 21
62.649999667
  0
LINE
  5
169
  8
0
  6
CONTINUOUS
 62
    7
 10
288.781748435
 20
63.149999667
 11
282.781748435
 21
63.149999667
  0
LINE
  5
16A
  8
0
  6
CONTINUOUS
 62
    7
 10
282.281748435
 20
62.649999667
 11
282.281748435
 21
48.649999667
  0
LINE
  5
16B
  8
0
  6
CONTINUOUS
 62
    7
 10
274.487498435
 20
69.199999667
 11
287.487498435
 21
69.199999667
  0
LINE
  5
16C
  8
0
  6
CONTINUOUS
 62
    7
 10
287.987498435
 20
69.699999667
 11
287.987498435
 21
82.699999667
  0
LINE
  5
16D
  8
0
  6
CONTINUOUS
 62
    7
 10
287.487498435
 20
83.199999667
 11
274.487498435
 21
83.199999667
  0
LINE
  5
16E
  8
0
  6
CONTINUOUS
 62
    7
 10
273.987498435
 20
82.699999667
 11
273.987498435
 21
69.699999667
  0
LINE
  5
16F
  8
0
  6
CONTINUOUS
 62
    7
 10
260.199998435
 20
88.249999667
 11
273.199998435
 21
88.249999667
  0
LINE
  5
170
  8
0
  6
CONTINUOUS
 62
    7
 10
273.699998435
 20
88.749999667
 11
273.699998435
 21
101.749999667
  0
LINE
  5
171
  8
0
  6
CONTINUOUS
 62
    7
 10
273.199998435
 20
102.249999667
 11
260.199998435
 21
102.249999667
  0
LINE
  5
172
  8
0
  6
CONTINUOUS
 62
    7
 10
259.699998435
 20
101.749999667
 11
259.699998435
 21
88.749999667
  0
LINE
  5
173
  8
0
  6
CONTINUOUS
 62
    7
 10
279.249998435
 20
88.249999667
 11
292.249998435
 21
88.249999667
  0
LINE
  5
174
  8
0
  6
CONTINUOUS
 62
    7
 10
292.749998435
 20
88.749999667
 11
292.749998435
 21
101.749999667
  0
LINE
  5
175
  8
0
  6
CONTINUOUS
 62
    7
 10
292.249998435
 20
102.249999667
 11
279.249998435
 21
102.249999667
  0
LINE
  5
176
  8
0
  6
CONTINUOUS
 62
    7
 10
278.749998435
 20
101.749999667
 11
278.749998435
 21
88.749999667
  0
LINE
  5
177
  8
0
  6
CONTINUOUS
 62
    7
 10
273.987498435
 20
125.562499667
 11
273.987498435
 21
112.562499667
  0
LINE
  5
178
  8
0
  6
CONTINUOUS
 62
    7
 10
274.487498435
 20
112.062499667
 11
287.487498435
 21
112.062499667
  0
LINE
  5
179
  8
0
  6
CONTINUOUS
 62
    7
 10
287.987498435
 20
112.562499667
 11
287.987498435
 21
125.562499667
  0
LINE
  5
17A
  8
0
  6
CONTINUOUS
 62
    7
 10
287.487498435
 20
126.062499667
 11
274.487498435
 21
126.062499667
  0
LINE
  5
17B
  8
0
  6
CONTINUOUS
 62
    7
 10
311.299998435
 20
126.062499667
 11
298.299998435
 21
126.062499667
  0
LINE
  5
17C
  8
0
  6
CONTINUOUS
 62
    7
 10
297.799998435
 20
125.562499667
 11
297.799998435
 21
112.562499667
  0
LINE
  5
17D
  8
0
  6
CONTINUOUS
 62
    7
 10
298.299998435
 20
112.062499667
 11
311.299998435
 21
112.062499667
  0
LINE
  5
17E
  8
0
  6
CONTINUOUS
 62
    7
 10
311.799998435
 20
112.562499667
 11
311.799998435
 21
125.562499667
  0
LINE
  5
17F
  8
0
  6
CONTINUOUS
 62
    7
 10
311.299998435
 20
102.249999667
 11
298.299998435
 21
102.249999667
  0
LINE
  5
180
  8
0
  6
CONTINUOUS
 62
    7
 10
297.799998435
 20
101.749999667
 11
297.799998435
 21
88.749999667
  0
LINE
  5
181
  8
0
  6
CONTINUOUS
 62
    7
 10
298.299998435
 20
88.249999667
 11
311.299998435
 21
88.249999667
  0
LINE
  5
182
  8
0
  6
CONTINUOUS
 62
    7
 10
311.799998435
 20
88.749999667
 11
311.799998435
 21
101.749999667
  0
LINE
  5
183
  8
0
  6
CONTINUOUS
 62
    7
 10
297.799998435
 20
82.699999667
 11
297.799998435
 21
69.699999667
  0
LINE
  5
184
  8
0
  6
CONTINUOUS
 62
    7
 10
298.299998435
 20
69.199999667
 11
311.299998435
 21
69.199999667
  0
LINE
  5
185
  8
0
  6
CONTINUOUS
 62
    7
 10
311.799998435
 20
69.699999667
 11
311.799998435
 21
82.699999667
  0
LINE
  5
186
  8
0
  6
CONTINUOUS
 62
    7
 10
311.299998435
 20
83.199999667
 11
298.299998435
 21
83.199999667
  0
LINE
  5
187
  8
0
  6
CONTINUOUS
 62
    7
 10
297.799998435
 20
63.649999667
 11
297.799998435
 21
50.649999667
  0
LINE
  5
188
  8
0
  6
CONTINUOUS
 62
    7
 10
298.299998435
 20
50.149999667
 11
311.299998435
 21
50.149999667
  0
LINE
  5
189
  8
0
  6
CONTINUOUS
 62
    7
 10
311.799998435
 20
50.649999667
 11
311.799998435
 21
63.649999667
  0
LINE
  5
18A
  8
0
  6
CONTINUOUS
 62
    7
 10
311.299998435
 20
64.149999667
 11
298.299998435
 21
64.149999667
  0
LINE
  5
18B
  8
0
  6
CONTINUOUS
 62
    7
 10
297.799998435
 20
44.599999667
 11
297.799998435
 21
31.599999667
  0
LINE
  5
18C
  8
0
  6
CONTINUOUS
 62
    7
 10
298.299998435
 20
31.099999667
 11
311.299998435
 21
31.099999667
  0
LINE
  5
18D
  8
0
  6
CONTINUOUS
 62
    7
 10
311.799998435
 20
31.599999667
 11
311.799998435
 21
44.599999667
  0
LINE
  5
18E
  8
0
  6
CONTINUOUS
 62
    7
 10
311.299998435
 20
45.099999667
 11
298.299998435
 21
45.099999667
  0
LINE
  5
18F
  8
0
  6
CONTINUOUS
 62
    7
 10
297.799998435
 20
25.549999667
 11
297.799998435
 21
12.549999667
  0
LINE
  5
190
  8
0
  6
CONTINUOUS
 62
    7
 10
298.299998435
 20
12.049999667
 11
311.299998435
 21
12.049999667
  0
LINE
  5
191
  8
0
  6
CONTINUOUS
 62
    7
 10
311.799998435
 20
12.549999667
 11
311.799998435
 21
25.549999667
  0
LINE
  5
192
  8
0
  6
CONTINUOUS
 62
    7
 10
311.299998435
 20
26.049999667
 11
298.299998435
 21
26.049999667
  0
LINE
  5
193
  8
0
  6
CONTINUOUS
 62
    7
 10
174.474998435
 20
69.199999667
 11
187.474998435
 21
69.199999667
  0
LINE
  5
194
  8
0
  6
CONTINUOUS
 62
    7
 10
187.974998435
 20
69.699999667
 11
187.974998435
 21
82.699999667
  0
LINE
  5
195
  8
0
  6
CONTINUOUS
 62
    7
 10
187.474998435
 20
83.199999667
 11
174.474998435
 21
83.199999667
  0
LINE
  5
196
  8
0
  6
CONTINUOUS
 62
    7
 10
173.974998435
 20
82.699999667
 11
173.974998435
 21
69.699999667
  0
LINE
  5
197
  8
0
  6
CONTINUOUS
 62
    7
 10
315.799998435
 20
116.562499667
 11
315.799998435
 21
128.062499667
  0
LINE
  5
198
  8
0
  6
CONTINUOUS
 62
    7
 10
318.299998435
 20
114.562499667
 11
317.799998435
 21
114.562499667
  0
LINE
  5
199
  8
0
  6
CONTINUOUS
 62
    7
 10
317.799998435
 20
105.562499667
 11
318.299998435
 21
105.562499667
  0
LINE
  5
19A
  8
0
  6
CONTINUOUS
 62
    7
 10
318.299998435
 20
32.549999667
 11
317.799998435
 21
32.549999667
  0
LINE
  5
19B
  8
0
  6
CONTINUOUS
 62
    7
 10
317.799998435
 20
23.549999667
 11
318.299998435
 21
23.549999667
  0
LINE
  5
19C
  8
0
  6
CONTINUOUS
 62
    7
 10
292.299998435
 20
8.049999667
 11
313.799998435
 21
8.049999667
  0
LINE
  5
19D
  8
0
  6
CONTINUOUS
 62
    7
 10
290.299998435
 20
5.549999667
 11
290.299998435
 21
6.049999667
  0
LINE
  5
19E
  8
0
  6
CONTINUOUS
 62
    7
 10
281.299998435
 20
6.049999667
 11
281.299998435
 21
5.549999667
  0
LINE
  5
19F
  8
0
  6
CONTINUOUS
 62
    7
 10
166.424998435
 20
5.549999667
 11
166.424998435
 21
6.049999667
  0
LINE
  5
1A0
  8
0
  6
CONTINUOUS
 62
    7
 10
157.424998435
 20
6.049999667
 11
157.424998435
 21
5.549999667
  0
LINE
  5
1A1
  8
0
  6
CONTINUOUS
 62
    7
 10
42.549998435
 20
5.549999667
 11
42.549998435
 21
6.049999667
  0
LINE
  5
1A2
  8
0
  6
CONTINUOUS
 62
    7
 10
33.549998435
 20
6.049999667
 11
33.549998435
 21
5.549999667
  0
LINE
  5
1A3
  8
0
  6
CONTINUOUS
 62
    7
 10
8.049998434999999
 20
21.549999667
 11
8.049998434999999
 21
10.049999667
  0
LINE
  5
1A4
  8
0
  6
CONTINUOUS
 62
    7
 10
5.549998435
 20
23.549999667
 11
6.049998435
 21
23.549999667
  0
LINE
  5
1A5
  8
0
  6
CONTINUOUS
 62
    7
 10
6.049998435
 20
32.549999667
 11
5.549998435
 21
32.549999667
  0
LINE
  5
1A6
  8
0
  6
CONTINUOUS
 62
    7
 10
5.549998435
 20
105.562499667
 11
6.049998435
 21
105.562499667
  0
LINE
  5
1A7
  8
0
  6
CONTINUOUS
 62
    7
 10
6.049998435
 20
114.562499667
 11
5.549998435
 21
114.562499667
  0
LINE
  5
1A8
  8
0
  6
CONTINUOUS
 62
    7
 10
31.549998435
 20
130.062499667
 11
10.049998435
 21
130.062499667
  0
LINE
  5
1A9
  8
0
  6
CONTINUOUS
 62
    7
 10
33.549998435
 20
132.562499667
 11
33.549998435
 21
132.062499667
  0
LINE
  5
1AA
  8
0
  6
CONTINUOUS
 62
    7
 10
42.549998435
 20
132.062499667
 11
42.549998435
 21
132.562499667
  0
LINE
  5
1AB
  8
0
  6
CONTINUOUS
 62
    7
 10
157.424998435
 20
132.562499667
 11
157.424998435
 21
132.062499667
  0
LINE
  5
1AC
  8
0
  6
CONTINUOUS
 62
    7
 10
166.424998435
 20
132.062499667
 11
166.424998435
 21
132.562499667
  0
LINE
  5
1AD
  8
0
  6
CONTINUOUS
 62
    7
 10
281.299998435
 20
132.562499667
 11
281.299998435
 21
132.062499667
  0
LINE
  5
1AE
  8
0
  6
CONTINUOUS
 62
    7
 10
290.299998435
 20
132.062499667
 11
290.299998435
 21
132.562499667
  0
LINE
  5
1AF
  8
0
  6
CONTINUOUS
 62
    7
 10
155.424998435
 20
130.062499667
 11
44.549998435
 21
130.062499667
  0
LINE
  5
1B0
  8
0
  6
CONTINUOUS
 62
    7
 10
313.799998435
 20
130.062499667
 11
292.299998435
 21
130.062499667
  0
LINE
  5
1B1
  8
0
  6
CONTINUOUS
 62
    7
 10
279.299998435
 20
130.062499667
 11
168.424998435
 21
130.062499667
  0
LINE
  5
1B2
  8
0
  6
CONTINUOUS
 62
    7
 10
44.549998435
 20
8.049999667
 11
155.424998435
 21
8.049999667
  0
LINE
  5
1B3
  8
0
  6
CONTINUOUS
 62
    7
 10
168.424998435
 20
8.049999667
 11
279.299998435
 21
8.049999667
  0
LINE
  5
1B4
  8
0
  6
CONTINUOUS
 62
    7
 10
10.049998435
 20
8.049999667
 11
31.549998435
 21
8.049999667
  0
LINE
  5
1B5
  8
0
  6
CONTINUOUS
 62
    7
 10
8.049998434999999
 20
128.062499667
 11
8.049998434999999
 21
116.562499667
  0
LINE
  5
1B6
  8
0
  6
CONTINUOUS
 62
    7
 10
8.049998434999999
 20
103.562499667
 11
8.049998434999999
 21
34.549999667
  0
LINE
  5
1B7
  8
0
  6
CONTINUOUS
 62
    7
 10
315.799998435
 20
10.049999667
 11
315.799998435
 21
21.549999667
  0
LINE
  5
1B8
  8
0
  6
CONTINUOUS
 62
    7
 10
315.799998435
 20
34.549999667
 11
315.799998435
 21
103.562499667
  0
ARC
  5
1B9
  8
0
  6
CONTINUOUS
 62
    7
 10
177.949998435
 20
88.749999667
 40
0.4999999999999858
 50
270
 51
0
  0
ARC
  5
1BA
  8
0
  6
CONTINUOUS
 62
    7
 10
177.949998435
 20
101.749999667
 40
0.5
 50
0
 51
90
  0
ARC
  5
1BB
  8
0
  6
CONTINUOUS
 62
    7
 10
164.949998435
 20
101.749999667
 40
0.5000000000000284
 50
90
 51
180
  0
ARC
  5
1BC
  8
0
  6
CONTINUOUS
 62
    7
 10
164.949998435
 20
88.749999667
 40
0.4999999999999858
 50
180
 51
270
  0
ARC
  5
1BD
  8
0
  6
CONTINUOUS
 62
    7
 10
160.187498435
 20
50.649999667
 40
0.5000000000000284
 50
180
 51
270
  0
ARC
  5
1BE
  8
0
  6
CONTINUOUS
 62
    7
 10
173.187498435
 20
50.649999667
 40
0.5000000000000284
 50
270
 51
360
  0
ARC
  5
1BF
  8
0
  6
CONTINUOUS
 62
    7
 10
173.187498435
 20
63.649999667
 40
0.5
 50
0
 51
90
  0
ARC
  5
1C0
  8
0
  6
CONTINUOUS
 62
    7
 10
160.187498435
 20
63.649999667
 40
0.5000000000000284
 50
90
 51
180
  0
ARC
  5
1C1
  8
0
  6
CONTINUOUS
 62
    7
 10
150.662498435
 20
31.599999667
 40
0.500000000000032
 50
180
 51
270
  0
ARC
  5
1C2
  8
0
  6
CONTINUOUS
 62
    7
 10
163.662498435
 20
31.599999667
 40
0.5000000000000284
 50
270
 51
360
  0
ARC
  5
1C3
  8
0
  6
CONTINUOUS
 62
    7
 10
163.662498435
 20
44.599999667
 40
0.5000000000000568
 50
0
 51
90
  0
ARC
  5
1C4
  8
0
  6
CONTINUOUS
 62
    7
 10
150.662498435
 20
44.599999667
 40
0.5000000000000284
 50
90
 51
180
  0
ARC
  5
1C5
  8
0
  6
CONTINUOUS
 62
    7
 10
136.374998435
 20
12.549999667
 40
0.4999999999999769
 50
180
 51
270
  0
ARC
  5
1C6
  8
0
  6
CONTINUOUS
 62
    7
 10
149.374998435
 20
12.549999667
 40
0.4999999999999769
 50
270
 51
0
  0
ARC
  5
1C7
  8
0
  6
CONTINUOUS
 62
    7
 10
149.374998435
 20
25.549999667
 40
0.4999999999999751
 50
360
 51
90
  0
ARC
  5
1C8
  8
0
  6
CONTINUOUS
 62
    7
 10
136.374998435
 20
25.549999667
 40
0.4999999999999751
 50
90
 51
180
  0
ARC
  5
1C9
  8
0
  6
CONTINUOUS
 62
    7
 10
144.612498435
 20
31.599999667
 40
0.500000000000032
 50
270
 51
360
  0
ARC
  5
1CA
  8
0
  6
CONTINUOUS
 62
    7
 10
144.612498435
 20
44.599999667
 40
0.5000000000000284
 50
0
 51
90
  0
ARC
  5
1CB
  8
0
  6
CONTINUOUS
 62
    7
 10
131.612498435
 20
44.599999667
 40
0.5000000000000284
 50
90
 51
180
  0
ARC
  5
1CC
  8
0
  6
CONTINUOUS
 62
    7
 10
131.612498435
 20
31.599999667
 40
0.5000000000000284
 50
180
 51
270
  0
ARC
  5
1CD
  8
0
  6
CONTINUOUS
 62
    7
 10
169.712498435
 20
31.599999667
 40
0.500000000000032
 50
180
 51
270
  0
ARC
  5
1CE
  8
0
  6
CONTINUOUS
 62
    7
 10
182.712498435
 20
31.599999667
 40
0.500000000000032
 50
270
 51
360
  0
ARC
  5
1CF
  8
0
  6
CONTINUOUS
 62
    7
 10
182.712498435
 20
44.599999667
 40
0.5000000000000284
 50
0
 51
90
  0
ARC
  5
1D0
  8
0
  6
CONTINUOUS
 62
    7
 10
169.712498435
 20
44.599999667
 40
0.5000000000000284
 50
90
 51
180
  0
ARC
  5
1D1
  8
0
  6
CONTINUOUS
 62
    7
 10
158.899998435
 20
88.749999667
 40
0.4999999999999858
 50
270
 51
0
  0
ARC
  5
1D2
  8
0
  6
CONTINUOUS
 62
    7
 10
158.899998435
 20
101.749999667
 40
0.5
 50
0
 51
90
  0
ARC
  5
1D3
  8
0
  6
CONTINUOUS
 62
    7
 10
145.899998435
 20
101.749999667
 40
0.5
 50
90
 51
180
  0
ARC
  5
1D4
  8
0
  6
CONTINUOUS
 62
    7
 10
145.899998435
 20
88.749999667
 40
0.5
 50
180
 51
270
  0
ARC
  5
1D5
  8
0
  6
CONTINUOUS
 62
    7
 10
155.424998435
 20
69.699999667
 40
0.5
 50
180
 51
270
  0
ARC
  5
1D6
  8
0
  6
CONTINUOUS
 62
    7
 10
168.424998435
 20
69.699999667
 40
0.4999999999999716
 50
270
 51
0
  0
ARC
  5
1D7
  8
0
  6
CONTINUOUS
 62
    7
 10
168.424998435
 20
82.699999667
 40
0.4999999999999716
 50
360
 51
90
  0
ARC
  5
1D8
  8
0
  6
CONTINUOUS
 62
    7
 10
155.424998435
 20
82.699999667
 40
0.5
 50
90
 51
180
  0
ARC
  5
1D9
  8
0
  6
CONTINUOUS
 62
    7
 10
141.137498435
 20
50.649999667
 40
0.5000000000000284
 50
180
 51
270
  0
ARC
  5
1DA
  8
0
  6
CONTINUOUS
 62
    7
 10
154.137498435
 20
50.649999667
 40
0.5000000000000284
 50
270
 51
360
  0
ARC
  5
1DB
  8
0
  6
CONTINUOUS
 62
    7
 10
154.137498435
 20
63.649999667
 40
0.5000000000000284
 50
0
 51
90
  0
ARC
  5
1DC
  8
0
  6
CONTINUOUS
 62
    7
 10
141.137498435
 20
63.649999667
 40
0.5000000000000284
 50
90
 51
180
  0
ARC
  5
1DD
  8
0
  6
CONTINUOUS
 62
    7
 10
136.374998435
 20
69.699999667
 40
0.4999999999999716
 50
180
 51
270
  0
ARC
  5
1DE
  8
0
  6
CONTINUOUS
 62
    7
 10
149.374998435
 20
69.699999667
 40
0.4999999999999716
 50
270
 51
0
  0
ARC
  5
1DF
  8
0
  6
CONTINUOUS
 62
    7
 10
149.374998435
 20
82.699999667
 40
0.4999999999999858
 50
360
 51
90
  0
ARC
  5
1E0
  8
0
  6
CONTINUOUS
 62
    7
 10
136.374998435
 20
82.699999667
 40
0.4999999999999716
 50
90
 51
180
  0
ARC
  5
1E1
  8
0
  6
CONTINUOUS
 62
    7
 10
122.087498435
 20
50.649999667
 40
0.5000000000000142
 50
180
 51
270
  0
ARC
  5
1E2
  8
0
  6
CONTINUOUS
 62
    7
 10
135.087498435
 20
50.649999667
 40
0.5000000000000284
 50
270
 51
360
  0
ARC
  5
1E3
  8
0
  6
CONTINUOUS
 62
    7
 10
135.087498435
 20
63.649999667
 40
0.5000000000000284
 50
0
 51
90
  0
ARC
  5
1E4
  8
0
  6
CONTINUOUS
 62
    7
 10
122.087498435
 20
63.649999667
 40
0.4999999999999858
 50
90
 51
180
  0
ARC
  5
1E5
  8
0
  6
CONTINUOUS
 62
    7
 10
112.562498435
 20
31.599999667
 40
0.5
 50
180
 51
270
  0
ARC
  5
1E6
  8
0
  6
CONTINUOUS
 62
    7
 10
125.562498435
 20
31.599999667
 40
0.5000000000000213
 50
270
 51
360
  0
ARC
  5
1E7
  8
0
  6
CONTINUOUS
 62
    7
 10
125.562498435
 20
44.599999667
 40
0.5000000000000213
 50
0
 51
90
  0
ARC
  5
1E8
  8
0
  6
CONTINUOUS
 62
    7
 10
112.562498435
 20
44.599999667
 40
0.4999999999999929
 50
90
 51
180
  0
ARC
  5
1E9
  8
0
  6
CONTINUOUS
 62
    7
 10
126.849998435
 20
88.749999667
 40
0.5000000000000142
 50
180
 51
270
  0
ARC
  5
1EA
  8
0
  6
CONTINUOUS
 62
    7
 10
139.849998435
 20
88.749999667
 40
0.5
 50
270
 51
0
  0
ARC
  5
1EB
  8
0
  6
CONTINUOUS
 62
    7
 10
139.849998435
 20
101.749999667
 40
0.4999999999999716
 50
360
 51
90
  0
ARC
  5
1EC
  8
0
  6
CONTINUOUS
 62
    7
 10
126.849998435
 20
101.749999667
 40
0.5
 50
90
 51
180
  0
ARC
  5
1ED
  8
0
  6
CONTINUOUS
 62
    7
 10
107.799998435
 20
88.749999667
 40
0.5000000000000142
 50
180
 51
270
  0
ARC
  5
1EE
  8
0
  6
CONTINUOUS
 62
    7
 10
120.799998435
 20
88.749999667
 40
0.5000000000000426
 50
270
 51
360
  0
ARC
  5
1EF
  8
0
  6
CONTINUOUS
 62
    7
 10
120.799998435
 20
101.749999667
 40
0.5000000000000426
 50
0
 51
90
  0
ARC
  5
1F0
  8
0
  6
CONTINUOUS
 62
    7
 10
107.799998435
 20
101.749999667
 40
0.5
 50
90
 51
180
  0
ARC
  5
1F1
  8
0
  6
CONTINUOUS
 62
    7
 10
88.74999843499999
 20
88.749999667
 40
0.5000000000000142
 50
180
 51
270
  0
ARC
  5
1F2
  8
0
  6
CONTINUOUS
 62
    7
 10
101.749998435
 20
88.749999667
 40
0.5000000000000426
 50
270
 51
360
  0
ARC
  5
1F3
  8
0
  6
CONTINUOUS
 62
    7
 10
101.749998435
 20
101.749999667
 40
0.5000000000000426
 50
0
 51
90
  0
ARC
  5
1F4
  8
0
  6
CONTINUOUS
 62
    7
 10
88.74999843499999
 20
101.749999667
 40
0.5
 50
90
 51
180
  0
ARC
  5
1F5
  8
0
  6
CONTINUOUS
 62
    7
 10
69.699998435
 20
88.749999667
 40
0.5000000000000142
 50
180
 51
270
  0
ARC
  5
1F6
  8
0
  6
CONTINUOUS
 62
    7
 10
82.699998435
 20
88.749999667
 40
0.5000000000000284
 50
270
 51
360
  0
ARC
  5
1F7
  8
0
  6
CONTINUOUS
 62
    7
 10
82.699998435
 20
101.749999667
 40
0.5000000000000426
 50
0
 51
90
  0
ARC
  5
1F8
  8
0
  6
CONTINUOUS
 62
    7
 10
69.699998435
 20
101.749999667
 40
0.5
 50
90
 51
180
  0
ARC
  5
1F9
  8
0
  6
CONTINUOUS
 62
    7
 10
117.324998435
 20
69.699999667
 40
0.5
 50
180
 51
270
  0
ARC
  5
1FA
  8
0
  6
CONTINUOUS
 62
    7
 10
130.324998435
 20
69.699999667
 40
0.4999999999999716
 50
270
 51
0
  0
ARC
  5
1FB
  8
0
  6
CONTINUOUS
 62
    7
 10
130.324998435
 20
82.699999667
 40
0.4999999999999858
 50
360
 51
90
  0
ARC
  5
1FC
  8
0
  6
CONTINUOUS
 62
    7
 10
117.324998435
 20
82.699999667
 40
0.4999999999999858
 50
90
 51
180
  0
ARC
  5
1FD
  8
0
  6
CONTINUOUS
 62
    7
 10
103.037498435
 20
50.649999667
 40
0.5000000000000142
 50
180
 51
270
  0
ARC
  5
1FE
  8
0
  6
CONTINUOUS
 62
    7
 10
116.037498435
 20
50.649999667
 40
0.5000000000000568
 50
270
 51
360
  0
ARC
  5
1FF
  8
0
  6
CONTINUOUS
 62
    7
 10
116.037498435
 20
63.649999667
 40
0.5000000000000142
 50
0
 51
90
  0
ARC
  5
200
  8
0
  6
CONTINUOUS
 62
    7
 10
103.037498435
 20
63.649999667
 40
0.5000000000000142
 50
90
 51
180
  0
ARC
  5
201
  8
0
  6
CONTINUOUS
 62
    7
 10
98.274998435
 20
69.699999667
 40
0.5
 50
180
 51
270
  0
ARC
  5
202
  8
0
  6
CONTINUOUS
 62
    7
 10
111.274998435
 20
69.699999667
 40
0.5000000000000284
 50
270
 51
360
  0
ARC
  5
203
  8
0
  6
CONTINUOUS
 62
    7
 10
111.274998435
 20
82.699999667
 40
0.5000000000000426
 50
0
 51
90
  0
ARC
  5
204
  8
0
  6
CONTINUOUS
 62
    7
 10
98.274998435
 20
82.699999667
 40
0.4999999999999858
 50
90
 51
180
  0
ARC
  5
205
  8
0
  6
CONTINUOUS
 62
    7
 10
93.512498435
 20
31.599999667
 40
0.5
 50
180
 51
270
  0
ARC
  5
206
  8
0
  6
CONTINUOUS
 62
    7
 10
106.512498435
 20
31.599999667
 40
0.4999999999999858
 50
270
 51
0
  0
ARC
  5
207
  8
0
  6
CONTINUOUS
 62
    7
 10
106.512498435
 20
44.599999667
 40
0.5000000000000071
 50
0
 51
90
  0
ARC
  5
208
  8
0
  6
CONTINUOUS
 62
    7
 10
93.512498435
 20
44.599999667
 40
0.5000000000000142
 50
90
 51
180
  0
ARC
  5
209
  8
0
  6
CONTINUOUS
 62
    7
 10
83.98749843500001
 20
50.649999667
 40
0.5000000000000142
 50
180
 51
270
  0
ARC
  5
20A
  8
0
  6
CONTINUOUS
 62
    7
 10
96.98749843500001
 20
50.649999667
 40
0.5000000000000426
 50
270
 51
360
  0
ARC
  5
20B
  8
0
  6
CONTINUOUS
 62
    7
 10
96.98749843500001
 20
63.649999667
 40
0.5000000000000142
 50
0
 51
90
  0
ARC
  5
20C
  8
0
  6
CONTINUOUS
 62
    7
 10
83.98749843500001
 20
63.649999667
 40
0.5000000000000142
 50
90
 51
180
  0
ARC
  5
20D
  8
0
  6
CONTINUOUS
 62
    7
 10
79.224998435
 20
69.699999667
 40
0.5
 50
180
 51
270
  0
ARC
  5
20E
  8
0
  6
CONTINUOUS
 62
    7
 10
92.224998435
 20
69.699999667
 40
0.5000000000000284
 50
270
 51
360
  0
ARC
  5
20F
  8
0
  6
CONTINUOUS
 62
    7
 10
92.224998435
 20
82.699999667
 40
0.5000000000000426
 50
0
 51
90
  0
ARC
  5
210
  8
0
  6
CONTINUOUS
 62
    7
 10
79.224998435
 20
82.699999667
 40
0.4999999999999858
 50
90
 51
180
  0
ARC
  5
211
  8
0
  6
CONTINUOUS
 62
    7
 10
60.174998435
 20
69.699999667
 40
0.4999999999999858
 50
180
 51
270
  0
ARC
  5
212
  8
0
  6
CONTINUOUS
 62
    7
 10
73.17499843500001
 20
69.699999667
 40
0.5000000000000284
 50
270
 51
360
  0
ARC
  5
213
  8
0
  6
CONTINUOUS
 62
    7
 10
73.17499843500001
 20
82.699999667
 40
0.5000000000000426
 50
0
 51
90
  0
ARC
  5
214
  8
0
  6
CONTINUOUS
 62
    7
 10
60.174998435
 20
82.699999667
 40
0.5
 50
90
 51
180
  0
ARC
  5
215
  8
0
  6
CONTINUOUS
 62
    7
 10
64.93749843499999
 20
50.649999667
 40
0.5000000000000142
 50
180
 51
270
  0
ARC
  5
216
  8
0
  6
CONTINUOUS
 62
    7
 10
77.93749843499999
 20
50.649999667
 40
0.5000000000000284
 50
270
 51
360
  0
ARC
  5
217
  8
0
  6
CONTINUOUS
 62
    7
 10
77.93749843499999
 20
63.649999667
 40
0.5000000000000142
 50
0
 51
90
  0
ARC
  5
218
  8
0
  6
CONTINUOUS
 62
    7
 10
64.93749843499999
 20
63.649999667
 40
0.5000000000000142
 50
90
 51
180
  0
ARC
  5
219
  8
0
  6
CONTINUOUS
 62
    7
 10
87.462498435
 20
31.599999667
 40
0.5000000000000284
 50
270
 51
360
  0
ARC
  5
21A
  8
0
  6
CONTINUOUS
 62
    7
 10
87.462498435
 20
44.599999667
 40
0.5000000000000355
 50
0
 51
90
  0
ARC
  5
21B
  8
0
  6
CONTINUOUS
 62
    7
 10
74.462498435
 20
44.599999667
 40
0.5000000000000142
 50
90
 51
180
  0
ARC
  5
21C
  8
0
  6
CONTINUOUS
 62
    7
 10
74.462498435
 20
31.599999667
 40
0.5
 50
180
 51
270
  0
ARC
  5
21D
  8
0
  6
CONTINUOUS
 62
    7
 10
82.724998435
 20
10.549999667
 40
0.5000000000000142
 50
180
 51
270
  0
ARC
  5
21E
  8
0
  6
CONTINUOUS
 62
    7
 10
88.724998435
 20
10.549999667
 40
0.4999999999999911
 50
270
 51
0
  0
ARC
  5
21F
  8
0
  6
CONTINUOUS
 62
    7
 10
88.724998435
 20
24.549999667
 40
0.5
 50
0
 51
90
  0
ARC
  5
220
  8
0
  6
CONTINUOUS
 62
    7
 10
82.724998435
 20
24.549999667
 40
0.4999999999999858
 50
90
 51
180
  0
ARC
  5
221
  8
0
  6
CONTINUOUS
 62
    7
 10
73.17499843500001
 20
12.549999667
 40
0.5000000000000142
 50
270
 51
0
  0
ARC
  5
222
  8
0
  6
CONTINUOUS
 62
    7
 10
73.17499843500001
 20
25.549999667
 40
0.5000000000000284
 50
0
 51
90
  0
ARC
  5
223
  8
0
  6
CONTINUOUS
 62
    7
 10
60.174998435
 20
25.549999667
 40
0.4999999999999893
 50
90
 51
180
  0
ARC
  5
224
  8
0
  6
CONTINUOUS
 62
    7
 10
60.174998435
 20
12.549999667
 40
0.4999999999999876
 50
180
 51
270
  0
ARC
  5
225
  8
0
  6
CONTINUOUS
 62
    7
 10
55.412498435
 20
31.599999667
 40
0.5000000000000284
 50
180
 51
270
  0
ARC
  5
226
  8
0
  6
CONTINUOUS
 62
    7
 10
68.412498435
 20
31.599999667
 40
0.5000000000000284
 50
270
 51
360
  0
ARC
  5
227
  8
0
  6
CONTINUOUS
 62
    7
 10
68.412498435
 20
44.599999667
 40
0.5000000000000355
 50
0
 51
90
  0
ARC
  5
228
  8
0
  6
CONTINUOUS
 62
    7
 10
55.412498435
 20
44.599999667
 40
0.5000000000000284
 50
90
 51
180
  0
ARC
  5
229
  8
0
  6
CONTINUOUS
 62
    7
 10
41.124998435
 20
69.699999667
 40
0.4999999999999858
 50
180
 51
270
  0
ARC
  5
22A
  8
0
  6
CONTINUOUS
 62
    7
 10
54.124998435
 20
69.699999667
 40
0.4999999999999858
 50
270
 51
0
  0
ARC
  5
22B
  8
0
  6
CONTINUOUS
 62
    7
 10
54.124998435
 20
82.699999667
 40
0.4999999999999858
 50
360
 51
90
  0
ARC
  5
22C
  8
0
  6
CONTINUOUS
 62
    7
 10
41.124998435
 20
82.699999667
 40
0.5
 50
90
 51
180
  0
ARC
  5
22D
  8
0
  6
CONTINUOUS
 62
    7
 10
50.649998435
 20
88.749999667
 40
0.5000000000000142
 50
180
 51
270
  0
ARC
  5
22E
  8
0
  6
CONTINUOUS
 62
    7
 10
63.649998435
 20
88.749999667
 40
0.5000000000000355
 50
270
 51
360
  0
ARC
  5
22F
  8
0
  6
CONTINUOUS
 62
    7
 10
63.649998435
 20
101.749999667
 40
0.5000000000000497
 50
0
 51
90
  0
ARC
  5
230
  8
0
  6
CONTINUOUS
 62
    7
 10
50.649998435
 20
101.749999667
 40
0.5000000000000142
 50
90
 51
180
  0
ARC
  5
231
  8
0
  6
CONTINUOUS
 62
    7
 10
31.599998435
 20
88.749999667
 40
0.5000000000000284
 50
180
 51
270
  0
ARC
  5
232
  8
0
  6
CONTINUOUS
 62
    7
 10
44.599998435
 20
88.749999667
 40
0.4999999999999858
 50
270
 51
0
  0
ARC
  5
233
  8
0
  6
CONTINUOUS
 62
    7
 10
44.599998435
 20
101.749999667
 40
0.5
 50
0
 51
90
  0
ARC
  5
234
  8
0
  6
CONTINUOUS
 62
    7
 10
31.599998435
 20
101.749999667
 40
0.5000000000000284
 50
90
 51
180
  0
ARC
  5
235
  8
0
  6
CONTINUOUS
 62
    7
 10
12.549998435
 20
88.749999667
 40
0.4999999999999858
 50
180
 51
270
  0
ARC
  5
236
  8
0
  6
CONTINUOUS
 62
    7
 10
25.549998435
 20
88.749999667
 40
0.4999999999999858
 50
270
 51
0
  0
ARC
  5
237
  8
0
  6
CONTINUOUS
 62
    7
 10
25.549998435
 20
101.749999667
 40
0.4999999999999858
 50
360
 51
90
  0
ARC
  5
238
  8
0
  6
CONTINUOUS
 62
    7
 10
12.549998435
 20
101.749999667
 40
0.4999999999999858
 50
90
 51
180
  0
ARC
  5
239
  8
0
  6
CONTINUOUS
 62
    7
 10
17.312498435
 20
69.699999667
 40
0.5000000000000142
 50
180
 51
270
  0
ARC
  5
23A
  8
0
  6
CONTINUOUS
 62
    7
 10
30.312498435
 20
69.699999667
 40
0.5000000000000142
 50
270
 51
0
  0
ARC
  5
23B
  8
0
  6
CONTINUOUS
 62
    7
 10
30.312498435
 20
82.699999667
 40
0.5000000000000284
 50
0
 51
90
  0
ARC
  5
23C
  8
0
  6
CONTINUOUS
 62
    7
 10
17.312498435
 20
82.699999667
 40
0.5000000000000284
 50
90
 51
180
  0
ARC
  5
23D
  8
0
  6
CONTINUOUS
 62
    7
 10
14.931248435
 20
50.649999667
 40
0.4999999999999645
 50
180
 51
270
  0
ARC
  5
23E
  8
0
  6
CONTINUOUS
 62
    7
 10
27.931248435
 20
50.649999667
 40
0.5000000000000071
 50
270
 51
0
  0
ARC
  5
23F
  8
0
  6
CONTINUOUS
 62
    7
 10
27.931248435
 20
63.649999667
 40
0.5000000000000036
 50
0
 51
90
  0
ARC
  5
240
  8
0
  6
CONTINUOUS
 62
    7
 10
14.931248435
 20
63.649999667
 40
0.4999999999999645
 50
90
 51
180
  0
ARC
  5
241
  8
0
  6
CONTINUOUS
 62
    7
 10
45.887498435
 20
50.649999667
 40
0.5
 50
180
 51
270
  0
ARC
  5
242
  8
0
  6
CONTINUOUS
 62
    7
 10
58.887498435
 20
50.649999667
 40
0.5000000000000142
 50
270
 51
0
  0
ARC
  5
243
  8
0
  6
CONTINUOUS
 62
    7
 10
58.887498435
 20
63.649999667
 40
0.5
 50
0
 51
90
  0
ARC
  5
244
  8
0
  6
CONTINUOUS
 62
    7
 10
45.887498435
 20
63.649999667
 40
0.5000000000000071
 50
90
 51
180
  0
ARC
  5
245
  8
0
  6
CONTINUOUS
 62
    7
 10
39.894248435
 20
29.599999667
 40
0.4999999999999858
 50
180
 51
270
  0
ARC
  5
246
  8
0
  6
CONTINUOUS
 62
    7
 10
45.894248435
 20
29.599999667
 40
0.5000000000000071
 50
270
 51
0
  0
ARC
  5
247
  8
0
  6
CONTINUOUS
 62
    7
 10
45.894248435
 20
43.599999667
 40
0.4999999999999929
 50
0
 51
90
  0
ARC
  5
248
  8
0
  6
CONTINUOUS
 62
    7
 10
39.894248435
 20
43.599999667
 40
0.4999999999999858
 50
90
 51
180
  0
ARC
  5
249
  8
0
  6
CONTINUOUS
 62
    7
 10
24.456248435
 20
31.599999667
 40
0.4999999999999609
 50
180
 51
270
  0
ARC
  5
24A
  8
0
  6
CONTINUOUS
 62
    7
 10
37.456248435
 20
31.599999667
 40
0.5000000000000142
 50
270
 51
0
  0
ARC
  5
24B
  8
0
  6
CONTINUOUS
 62
    7
 10
37.456248435
 20
44.599999667
 40
0.5000000000000142
 50
0
 51
90
  0
ARC
  5
24C
  8
0
  6
CONTINUOUS
 62
    7
 10
24.456248435
 20
44.599999667
 40
0.499999999999968
 50
90
 51
180
  0
ARC
  5
24D
  8
0
  6
CONTINUOUS
 62
    7
 10
16.018248435
 20
29.599999667
 40
0.5000000000000249
 50
180
 51
270
  0
ARC
  5
24E
  8
0
  6
CONTINUOUS
 62
    7
 10
22.018248435
 20
29.599999667
 40
0.4999999999999858
 50
270
 51
0
  0
ARC
  5
24F
  8
0
  6
CONTINUOUS
 62
    7
 10
22.018248435
 20
43.599999667
 40
0.4999999999999787
 50
360
 51
90
  0
ARC
  5
250
  8
0
  6
CONTINUOUS
 62
    7
 10
16.018248435
 20
43.599999667
 40
0.5000000000000249
 50
90
 51
180
  0
ARC
  5
251
  8
0
  6
CONTINUOUS
 62
    7
 10
17.312498435
 20
12.549999667
 40
0.5000000000000142
 50
180
 51
270
  0
ARC
  5
252
  8
0
  6
CONTINUOUS
 62
    7
 10
30.312498435
 20
12.549999667
 40
0.5000000000000053
 50
270
 51
0
  0
ARC
  5
253
  8
0
  6
CONTINUOUS
 62
    7
 10
30.312498435
 20
25.549999667
 40
0.5000000000000107
 50
0
 51
90
  0
ARC
  5
254
  8
0
  6
CONTINUOUS
 62
    7
 10
17.312498435
 20
25.549999667
 40
0.5000000000000107
 50
90
 51
180
  0
ARC
  5
255
  8
0
  6
CONTINUOUS
 62
    7
 10
179.237498435
 20
50.649999667
 40
0.5000000000000284
 50
180
 51
270
  0
ARC
  5
256
  8
0
  6
CONTINUOUS
 62
    7
 10
192.237498435
 20
50.649999667
 40
0.5000000000000284
 50
270
 51
360
  0
ARC
  5
257
  8
0
  6
CONTINUOUS
 62
    7
 10
192.237498435
 20
63.649999667
 40
0.5000000000000284
 50
0
 51
90
  0
ARC
  5
258
  8
0
  6
CONTINUOUS
 62
    7
 10
179.237498435
 20
63.649999667
 40
0.5000000000000284
 50
90
 51
180
  0
ARC
  5
259
  8
0
  6
CONTINUOUS
 62
    7
 10
193.524998435
 20
69.699999667
 40
0.5
 50
180
 51
270
  0
ARC
  5
25A
  8
0
  6
CONTINUOUS
 62
    7
 10
206.524998435
 20
69.699999667
 40
0.4999999999999716
 50
270
 51
0
  0
ARC
  5
25B
  8
0
  6
CONTINUOUS
 62
    7
 10
206.524998435
 20
82.699999667
 40
0.4999999999999716
 50
360
 51
90
  0
ARC
  5
25C
  8
0
  6
CONTINUOUS
 62
    7
 10
193.524998435
 20
82.699999667
 40
0.5
 50
90
 51
180
  0
ARC
  5
25D
  8
0
  6
CONTINUOUS
 62
    7
 10
198.287498435
 20
50.649999667
 40
0.5000000000000284
 50
180
 51
270
  0
ARC
  5
25E
  8
0
  6
CONTINUOUS
 62
    7
 10
211.287498435
 20
50.649999667
 40
0.5000000000000568
 50
270
 51
360
  0
ARC
  5
25F
  8
0
  6
CONTINUOUS
 62
    7
 10
211.287498435
 20
63.649999667
 40
0.5
 50
0
 51
90
  0
ARC
  5
260
  8
0
  6
CONTINUOUS
 62
    7
 10
198.287498435
 20
63.649999667
 40
0.5000000000000284
 50
90
 51
180
  0
ARC
  5
261
  8
0
  6
CONTINUOUS
 62
    7
 10
188.762498435
 20
44.599999667
 40
0.5000000000000284
 50
90
 51
180
  0
ARC
  5
262
  8
0
  6
CONTINUOUS
 62
    7
 10
188.762498435
 20
31.599999667
 40
0.500000000000032
 50
180
 51
270
  0
ARC
  5
263
  8
0
  6
CONTINUOUS
 62
    7
 10
201.762498435
 20
31.599999667
 40
0.500000000000032
 50
270
 51
360
  0
ARC
  5
264
  8
0
  6
CONTINUOUS
 62
    7
 10
201.762498435
 20
44.599999667
 40
0.5000000000000284
 50
0
 51
90
  0
ARC
  5
265
  8
0
  6
CONTINUOUS
 62
    7
 10
197.024998435
 20
24.549999667
 40
0.5000000000000284
 50
90
 51
180
  0
ARC
  5
266
  8
0
  6
CONTINUOUS
 62
    7
 10
197.024998435
 20
10.549999667
 40
0.5000000000000284
 50
180
 51
270
  0
ARC
  5
267
  8
0
  6
CONTINUOUS
 62
    7
 10
203.024998435
 20
10.549999667
 40
0.4999999999999787
 50
270
 51
0
  0
ARC
  5
268
  8
0
  6
CONTINUOUS
 62
    7
 10
203.024998435
 20
24.549999667
 40
0.4999999999999716
 50
360
 51
90
  0
ARC
  5
269
  8
0
  6
CONTINUOUS
 62
    7
 10
217.337498435
 20
63.649999667
 40
0.5000000000000284
 50
90
 51
180
  0
ARC
  5
26A
  8
0
  6
CONTINUOUS
 62
    7
 10
217.337498435
 20
50.649999667
 40
0.5000000000000284
 50
180
 51
270
  0
ARC
  5
26B
  8
0
  6
CONTINUOUS
 62
    7
 10
230.337498435
 20
50.649999667
 40
0.5000000000000284
 50
270
 51
360
  0
ARC
  5
26C
  8
0
  6
CONTINUOUS
 62
    7
 10
230.337498435
 20
63.649999667
 40
0.5000000000000284
 50
0
 51
90
  0
ARC
  5
26D
  8
0
  6
CONTINUOUS
 62
    7
 10
212.574998435
 20
69.699999667
 40
0.4999999999999858
 50
180
 51
270
  0
ARC
  5
26E
  8
0
  6
CONTINUOUS
 62
    7
 10
225.574998435
 20
69.699999667
 40
0.4999999999999716
 50
270
 51
0
  0
ARC
  5
26F
  8
0
  6
CONTINUOUS
 62
    7
 10
225.574998435
 20
82.699999667
 40
0.4999999999999716
 50
360
 51
90
  0
ARC
  5
270
  8
0
  6
CONTINUOUS
 62
    7
 10
212.574998435
 20
82.699999667
 40
0.5000000000000284
 50
90
 51
180
  0
ARC
  5
271
  8
0
  6
CONTINUOUS
 62
    7
 10
183.999998435
 20
88.749999667
 40
0.5
 50
180
 51
270
  0
ARC
  5
272
  8
0
  6
CONTINUOUS
 62
    7
 10
196.999998435
 20
88.749999667
 40
0.4999999999999858
 50
270
 51
0
  0
ARC
  5
273
  8
0
  6
CONTINUOUS
 62
    7
 10
196.999998435
 20
101.749999667
 40
0.5
 50
0
 51
90
  0
ARC
  5
274
  8
0
  6
CONTINUOUS
 62
    7
 10
183.999998435
 20
101.749999667
 40
0.5
 50
90
 51
180
  0
ARC
  5
275
  8
0
  6
CONTINUOUS
 62
    7
 10
203.049998435
 20
88.749999667
 40
0.5000000000000284
 50
180
 51
270
  0
ARC
  5
276
  8
0
  6
CONTINUOUS
 62
    7
 10
216.049998435
 20
88.749999667
 40
0.5
 50
270
 51
0
  0
ARC
  5
277
  8
0
  6
CONTINUOUS
 62
    7
 10
216.049998435
 20
101.749999667
 40
0.4999999999999574
 50
360
 51
90
  0
ARC
  5
278
  8
0
  6
CONTINUOUS
 62
    7
 10
203.049998435
 20
101.749999667
 40
0.5000000000000284
 50
90
 51
180
  0
ARC
  5
279
  8
0
  6
CONTINUOUS
 62
    7
 10
150.662498435
 20
112.562499667
 40
0.5000000000000284
 50
180
 51
270
  0
ARC
  5
27A
  8
0
  6
CONTINUOUS
 62
    7
 10
163.662498435
 20
112.562499667
 40
0.5000000000000284
 50
270
 51
360
  0
ARC
  5
27B
  8
0
  6
CONTINUOUS
 62
    7
 10
163.662498435
 20
125.562499667
 40
0.5000000000000284
 50
0
 51
90
  0
ARC
  5
27C
  8
0
  6
CONTINUOUS
 62
    7
 10
150.662498435
 20
125.562499667
 40
0.5000000000000284
 50
90
 51
180
  0
ARC
  5
27D
  8
0
  6
CONTINUOUS
 62
    7
 10
131.612498435
 20
112.562499667
 40
0.5000000000000568
 50
180
 51
270
  0
ARC
  5
27E
  8
0
  6
CONTINUOUS
 62
    7
 10
144.612498435
 20
112.562499667
 40
0.5000000000000284
 50
270
 51
360
  0
ARC
  5
27F
  8
0
  6
CONTINUOUS
 62
    7
 10
144.612498435
 20
125.562499667
 40
0.5000000000000284
 50
0
 51
90
  0
ARC
  5
280
  8
0
  6
CONTINUOUS
 62
    7
 10
131.612498435
 20
125.562499667
 40
0.5000000000000284
 50
90
 51
180
  0
ARC
  5
281
  8
0
  6
CONTINUOUS
 62
    7
 10
103.037498435
 20
112.562499667
 40
0.5
 50
180
 51
270
  0
ARC
  5
282
  8
0
  6
CONTINUOUS
 62
    7
 10
116.037498435
 20
112.562499667
 40
0.5000000000000568
 50
270
 51
360
  0
ARC
  5
283
  8
0
  6
CONTINUOUS
 62
    7
 10
116.037498435
 20
125.562499667
 40
0.5000000000000284
 50
0
 51
90
  0
ARC
  5
284
  8
0
  6
CONTINUOUS
 62
    7
 10
103.037498435
 20
125.562499667
 40
0.5000000000000142
 50
90
 51
180
  0
ARC
  5
285
  8
0
  6
CONTINUOUS
 62
    7
 10
83.98749843500001
 20
112.562499667
 40
0.5
 50
180
 51
270
  0
ARC
  5
286
  8
0
  6
CONTINUOUS
 62
    7
 10
96.98749843500001
 20
112.562499667
 40
0.5000000000000426
 50
270
 51
360
  0
ARC
  5
287
  8
0
  6
CONTINUOUS
 62
    7
 10
96.98749843500001
 20
125.562499667
 40
0.5000000000000284
 50
0
 51
90
  0
ARC
  5
288
  8
0
  6
CONTINUOUS
 62
    7
 10
83.98749843500001
 20
125.562499667
 40
0.5000000000000142
 50
90
 51
180
  0
ARC
  5
289
  8
0
  6
CONTINUOUS
 62
    7
 10
64.93749843499999
 20
112.562499667
 40
0.5
 50
180
 51
270
  0
ARC
  5
28A
  8
0
  6
CONTINUOUS
 62
    7
 10
77.93749843499999
 20
112.562499667
 40
0.5000000000000426
 50
270
 51
360
  0
ARC
  5
28B
  8
0
  6
CONTINUOUS
 62
    7
 10
77.93749843499999
 20
125.562499667
 40
0.5000000000000284
 50
0
 51
90
  0
ARC
  5
28C
  8
0
  6
CONTINUOUS
 62
    7
 10
64.93749843499999
 20
125.562499667
 40
0.5000000000000142
 50
90
 51
180
  0
ARC
  5
28D
  8
0
  6
CONTINUOUS
 62
    7
 10
45.887498435
 20
112.562499667
 40
0.5000000000000071
 50
180
 51
270
  0
ARC
  5
28E
  8
0
  6
CONTINUOUS
 62
    7
 10
58.887498435
 20
112.562499667
 40
0.5000000000000142
 50
270
 51
0
  0
ARC
  5
28F
  8
0
  6
CONTINUOUS
 62
    7
 10
58.887498435
 20
125.562499667
 40
0.5000000000000142
 50
0
 51
90
  0
ARC
  5
290
  8
0
  6
CONTINUOUS
 62
    7
 10
45.887498435
 20
125.562499667
 40
0.5000000000000142
 50
90
 51
180
  0
ARC
  5
291
  8
0
  6
CONTINUOUS
 62
    7
 10
12.549998435
 20
112.562499667
 40
0.4999999999999858
 50
180
 51
270
  0
ARC
  5
292
  8
0
  6
CONTINUOUS
 62
    7
 10
25.549998435
 20
112.562499667
 40
0.4999999999999858
 50
270
 51
0
  0
ARC
  5
293
  8
0
  6
CONTINUOUS
 62
    7
 10
25.549998435
 20
125.562499667
 40
0.4999999999999716
 50
360
 51
90
  0
ARC
  5
294
  8
0
  6
CONTINUOUS
 62
    7
 10
12.549998435
 20
125.562499667
 40
0.4999999999999716
 50
90
 51
180
  0
ARC
  5
295
  8
0
  6
CONTINUOUS
 62
    7
 10
169.712498435
 20
125.562499667
 40
0.5000000000000284
 50
90
 51
180
  0
ARC
  5
296
  8
0
  6
CONTINUOUS
 62
    7
 10
169.712498435
 20
112.562499667
 40
0.5000000000000284
 50
180
 51
270
  0
ARC
  5
297
  8
0
  6
CONTINUOUS
 62
    7
 10
182.712498435
 20
112.562499667
 40
0.5000000000000284
 50
270
 51
360
  0
ARC
  5
298
  8
0
  6
CONTINUOUS
 62
    7
 10
182.712498435
 20
125.562499667
 40
0.5000000000000284
 50
0
 51
90
  0
ARC
  5
299
  8
0
  6
CONTINUOUS
 62
    7
 10
201.762498435
 20
125.562499667
 40
0.5000000000000284
 50
0
 51
90
  0
ARC
  5
29A
  8
0
  6
CONTINUOUS
 62
    7
 10
188.762498435
 20
125.562499667
 40
0.5000000000000284
 50
90
 51
180
  0
ARC
  5
29B
  8
0
  6
CONTINUOUS
 62
    7
 10
188.762498435
 20
112.562499667
 40
0.5000000000000284
 50
180
 51
270
  0
ARC
  5
29C
  8
0
  6
CONTINUOUS
 62
    7
 10
201.762498435
 20
112.562499667
 40
0.5000000000000284
 50
270
 51
360
  0
ARC
  5
29D
  8
0
  6
CONTINUOUS
 62
    7
 10
217.337498435
 20
125.562499667
 40
0.5000000000000284
 50
90
 51
180
  0
ARC
  5
29E
  8
0
  6
CONTINUOUS
 62
    7
 10
217.337498435
 20
112.562499667
 40
0.5000000000000284
 50
180
 51
270
  0
ARC
  5
29F
  8
0
  6
CONTINUOUS
 62
    7
 10
230.337498435
 20
112.562499667
 40
0.5000000000000284
 50
270
 51
360
  0
ARC
  5
2A0
  8
0
  6
CONTINUOUS
 62
    7
 10
230.337498435
 20
125.562499667
 40
0.5000000000000284
 50
0
 51
90
  0
ARC
  5
2A1
  8
0
  6
CONTINUOUS
 62
    7
 10
236.387498435
 20
125.562499667
 40
0.5000000000000284
 50
90
 51
180
  0
ARC
  5
2A2
  8
0
  6
CONTINUOUS
 62
    7
 10
236.387498435
 20
112.562499667
 40
0.5000000000000284
 50
180
 51
270
  0
ARC
  5
2A3
  8
0
  6
CONTINUOUS
 62
    7
 10
249.387498435
 20
112.562499667
 40
0.5000000000000284
 50
270
 51
360
  0
ARC
  5
2A4
  8
0
  6
CONTINUOUS
 62
    7
 10
249.387498435
 20
125.562499667
 40
0.5000000000000284
 50
0
 51
90
  0
ARC
  5
2A5
  8
0
  6
CONTINUOUS
 62
    7
 10
268.437498435
 20
125.562499667
 40
0.5
 50
0
 51
90
  0
ARC
  5
2A6
  8
0
  6
CONTINUOUS
 62
    7
 10
255.437498435
 20
125.562499667
 40
0.5000000000000284
 50
90
 51
180
  0
ARC
  5
2A7
  8
0
  6
CONTINUOUS
 62
    7
 10
255.437498435
 20
112.562499667
 40
0.5000000000000284
 50
180
 51
270
  0
ARC
  5
2A8
  8
0
  6
CONTINUOUS
 62
    7
 10
268.437498435
 20
112.562499667
 40
0.5
 50
270
 51
0
  0
ARC
  5
2A9
  8
0
  6
CONTINUOUS
 62
    7
 10
222.099998435
 20
101.749999667
 40
0.5000000000000284
 50
90
 51
180
  0
ARC
  5
2AA
  8
0
  6
CONTINUOUS
 62
    7
 10
222.099998435
 20
88.749999667
 40
0.5000000000000284
 50
180
 51
270
  0
ARC
  5
2AB
  8
0
  6
CONTINUOUS
 62
    7
 10
235.099998435
 20
88.749999667
 40
0.5
 50
270
 51
0
  0
ARC
  5
2AC
  8
0
  6
CONTINUOUS
 62
    7
 10
235.099998435
 20
101.749999667
 40
0.4999999999999716
 50
360
 51
90
  0
ARC
  5
2AD
  8
0
  6
CONTINUOUS
 62
    7
 10
231.624998435
 20
69.699999667
 40
0.5
 50
180
 51
270
  0
ARC
  5
2AE
  8
0
  6
CONTINUOUS
 62
    7
 10
244.624998435
 20
69.699999667
 40
0.4999999999999716
 50
270
 51
0
  0
ARC
  5
2AF
  8
0
  6
CONTINUOUS
 62
    7
 10
244.624998435
 20
82.699999667
 40
0.4999999999999716
 50
360
 51
90
  0
ARC
  5
2B0
  8
0
  6
CONTINUOUS
 62
    7
 10
231.624998435
 20
82.699999667
 40
0.5
 50
90
 51
180
  0
ARC
  5
2B1
  8
0
  6
CONTINUOUS
 62
    7
 10
241.149998435
 20
101.749999667
 40
0.5000000000000284
 50
90
 51
180
  0
ARC
  5
2B2
  8
0
  6
CONTINUOUS
 62
    7
 10
241.149998435
 20
88.749999667
 40
0.5000000000000284
 50
180
 51
270
  0
ARC
  5
2B3
  8
0
  6
CONTINUOUS
 62
    7
 10
254.149998435
 20
88.749999667
 40
0.5
 50
270
 51
0
  0
ARC
  5
2B4
  8
0
  6
CONTINUOUS
 62
    7
 10
254.149998435
 20
101.749999667
 40
0.5
 50
360
 51
90
  0
ARC
  5
2B5
  8
0
  6
CONTINUOUS
 62
    7
 10
263.674998435
 20
69.699999667
 40
0.5000000000000568
 50
270
 51
360
  0
ARC
  5
2B6
  8
0
  6
CONTINUOUS
 62
    7
 10
263.674998435
 20
82.699999667
 40
0.5000000000000568
 50
0
 51
90
  0
ARC
  5
2B7
  8
0
  6
CONTINUOUS
 62
    7
 10
250.674998435
 20
82.699999667
 40
0.5000000000000568
 50
90
 51
180
  0
ARC
  5
2B8
  8
0
  6
CONTINUOUS
 62
    7
 10
250.674998435
 20
69.699999667
 40
0.5
 50
180
 51
270
  0
ARC
  5
2B9
  8
0
  6
CONTINUOUS
 62
    7
 10
249.387498435
 20
63.649999667
 40
0.5000000000000284
 50
0
 51
90
  0
ARC
  5
2BA
  8
0
  6
CONTINUOUS
 62
    7
 10
236.387498435
 20
63.649999667
 40
0.5000000000000284
 50
90
 51
180
  0
ARC
  5
2BB
  8
0
  6
CONTINUOUS
 62
    7
 10
236.387498435
 20
50.649999667
 40
0.5000000000000284
 50
180
 51
270
  0
ARC
  5
2BC
  8
0
  6
CONTINUOUS
 62
    7
 10
249.387498435
 20
50.649999667
 40
0.5000000000000284
 50
270
 51
360
  0
ARC
  5
2BD
  8
0
  6
CONTINUOUS
 62
    7
 10
239.862498435
 20
31.599999667
 40
0.500000000000032
 50
270
 51
360
  0
ARC
  5
2BE
  8
0
  6
CONTINUOUS
 62
    7
 10
239.862498435
 20
44.599999667
 40
0.5000000000000284
 50
0
 51
90
  0
ARC
  5
2BF
  8
0
  6
CONTINUOUS
 62
    7
 10
226.862498435
 20
44.599999667
 40
0.5000000000000284
 50
90
 51
180
  0
ARC
  5
2C0
  8
0
  6
CONTINUOUS
 62
    7
 10
226.862498435
 20
31.599999667
 40
0.500000000000032
 50
180
 51
270
  0
ARC
  5
2C1
  8
0
  6
CONTINUOUS
 62
    7
 10
220.812498435
 20
44.599999667
 40
0.5000000000000284
 50
0
 51
90
  0
ARC
  5
2C2
  8
0
  6
CONTINUOUS
 62
    7
 10
207.812498435
 20
44.599999667
 40
0.5000000000000284
 50
90
 51
180
  0
ARC
  5
2C3
  8
0
  6
CONTINUOUS
 62
    7
 10
207.812498435
 20
31.599999667
 40
0.5000000000000284
 50
180
 51
270
  0
ARC
  5
2C4
  8
0
  6
CONTINUOUS
 62
    7
 10
220.812498435
 20
31.599999667
 40
0.5000000000000284
 50
270
 51
360
  0
ARC
  5
2C5
  8
0
  6
CONTINUOUS
 62
    7
 10
212.574998435
 20
25.549999667
 40
0.4999999999999893
 50
90
 51
180
  0
ARC
  5
2C6
  8
0
  6
CONTINUOUS
 62
    7
 10
212.574998435
 20
12.549999667
 40
0.5
 50
180
 51
270
  0
ARC
  5
2C7
  8
0
  6
CONTINUOUS
 62
    7
 10
225.574998435
 20
12.549999667
 40
0.4999999999999716
 50
270
 51
0
  0
ARC
  5
2C8
  8
0
  6
CONTINUOUS
 62
    7
 10
225.574998435
 20
25.549999667
 40
0.4999999999999609
 50
360
 51
90
  0
ARC
  5
2C9
  8
0
  6
CONTINUOUS
 62
    7
 10
231.624998435
 20
25.549999667
 40
0.5000000000000036
 50
90
 51
180
  0
ARC
  5
2CA
  8
0
  6
CONTINUOUS
 62
    7
 10
231.624998435
 20
12.549999667
 40
0.5
 50
180
 51
270
  0
ARC
  5
2CB
  8
0
  6
CONTINUOUS
 62
    7
 10
244.624998435
 20
12.549999667
 40
0.4999999999999716
 50
270
 51
0
  0
ARC
  5
2CC
  8
0
  6
CONTINUOUS
 62
    7
 10
244.624998435
 20
25.549999667
 40
0.4999999999999716
 50
360
 51
90
  0
ARC
  5
2CD
  8
0
  6
CONTINUOUS
 62
    7
 10
260.199998435
 20
25.549999667
 40
0.5000000000000036
 50
90
 51
180
  0
ARC
  5
2CE
  8
0
  6
CONTINUOUS
 62
    7
 10
260.199998435
 20
12.549999667
 40
0.5
 50
180
 51
270
  0
ARC
  5
2CF
  8
0
  6
CONTINUOUS
 62
    7
 10
273.199998435
 20
12.549999667
 40
0.5
 50
270
 51
0
  0
ARC
  5
2D0
  8
0
  6
CONTINUOUS
 62
    7
 10
273.199998435
 20
25.549999667
 40
0.5000000000000036
 50
0
 51
90
  0
ARC
  5
2D1
  8
0
  6
CONTINUOUS
 62
    7
 10
279.249998435
 20
25.549999667
 40
0.5000000000000036
 50
90
 51
180
  0
ARC
  5
2D2
  8
0
  6
CONTINUOUS
 62
    7
 10
279.249998435
 20
12.549999667
 40
0.5
 50
180
 51
270
  0
ARC
  5
2D3
  8
0
  6
CONTINUOUS
 62
    7
 10
292.249998435
 20
12.549999667
 40
0.5
 50
270
 51
0
  0
ARC
  5
2D4
  8
0
  6
CONTINUOUS
 62
    7
 10
292.249998435
 20
25.549999667
 40
0.5000000000000036
 50
0
 51
90
  0
ARC
  5
2D5
  8
0
  6
CONTINUOUS
 62
    7
 10
279.249998435
 20
31.599999667
 40
0.5
 50
180
 51
270
  0
ARC
  5
2D6
  8
0
  6
CONTINUOUS
 62
    7
 10
292.249998435
 20
31.599999667
 40
0.5
 50
270
 51
0
  0
ARC
  5
2D7
  8
0
  6
CONTINUOUS
 62
    7
 10
292.249998435
 20
44.599999667
 40
0.5
 50
0
 51
90
  0
ARC
  5
2D8
  8
0
  6
CONTINUOUS
 62
    7
 10
279.249998435
 20
44.599999667
 40
0.5000000000000071
 50
90
 51
180
  0
ARC
  5
2D9
  8
0
  6
CONTINUOUS
 62
    7
 10
253.056248435
 20
31.599999667
 40
0.5000000000000568
 50
180
 51
270
  0
ARC
  5
2DA
  8
0
  6
CONTINUOUS
 62
    7
 10
266.056248435
 20
31.599999667
 40
0.4999999999999432
 50
270
 51
0
  0
ARC
  5
2DB
  8
0
  6
CONTINUOUS
 62
    7
 10
266.056248435
 20
44.599999667
 40
0.4999999999999076
 50
360
 51
90
  0
ARC
  5
2DC
  8
0
  6
CONTINUOUS
 62
    7
 10
253.056248435
 20
44.599999667
 40
0.5000000000000142
 50
90
 51
180
  0
ARC
  5
2DD
  8
0
  6
CONTINUOUS
 62
    7
 10
258.905748435
 20
62.649999667
 40
0.4999999999999361
 50
90
 51
180
  0
ARC
  5
2DE
  8
0
  6
CONTINUOUS
 62
    7
 10
258.905748435
 20
48.649999667
 40
0.4999999999999005
 50
180
 51
270
  0
ARC
  5
2DF
  8
0
  6
CONTINUOUS
 62
    7
 10
264.905748435
 20
48.649999667
 40
0.5000000000000568
 50
270
 51
0
  0
ARC
  5
2E0
  8
0
  6
CONTINUOUS
 62
    7
 10
264.905748435
 20
62.649999667
 40
0.5000000000000568
 50
0
 51
90
  0
ARC
  5
2E1
  8
0
  6
CONTINUOUS
 62
    7
 10
267.343748435
 20
63.649999667
 40
0.5
 50
90
 51
180
  0
ARC
  5
2E2
  8
0
  6
CONTINUOUS
 62
    7
 10
267.343748435
 20
50.649999667
 40
0.5
 50
180
 51
270
  0
ARC
  5
2E3
  8
0
  6
CONTINUOUS
 62
    7
 10
280.343748435
 20
50.649999667
 40
0.5
 50
270
 51
0
  0
ARC
  5
2E4
  8
0
  6
CONTINUOUS
 62
    7
 10
280.343748435
 20
63.649999667
 40
0.5
 50
0
 51
90
  0
ARC
  5
2E5
  8
0
  6
CONTINUOUS
 62
    7
 10
282.781748435
 20
48.649999667
 40
0.5000000000000142
 50
180
 51
270
  0
ARC
  5
2E6
  8
0
  6
CONTINUOUS
 62
    7
 10
288.781748435
 20
48.649999667
 40
0.4999999999999432
 50
270
 51
0
  0
ARC
  5
2E7
  8
0
  6
CONTINUOUS
 62
    7
 10
288.781748435
 20
62.649999667
 40
0.4999999999999574
 50
360
 51
90
  0
ARC
  5
2E8
  8
0
  6
CONTINUOUS
 62
    7
 10
282.781748435
 20
62.649999667
 40
0.5000000000000568
 50
90
 51
180
  0
ARC
  5
2E9
  8
0
  6
CONTINUOUS
 62
    7
 10
274.487498435
 20
69.699999667
 40
0.5
 50
180
 51
270
  0
ARC
  5
2EA
  8
0
  6
CONTINUOUS
 62
    7
 10
287.487498435
 20
69.699999667
 40
0.5
 50
270
 51
0
  0
ARC
  5
2EB
  8
0
  6
CONTINUOUS
 62
    7
 10
287.487498435
 20
82.699999667
 40
0.5
 50
0
 51
90
  0
ARC
  5
2EC
  8
0
  6
CONTINUOUS
 62
    7
 10
274.487498435
 20
82.699999667
 40
0.5
 50
90
 51
180
  0
ARC
  5
2ED
  8
0
  6
CONTINUOUS
 62
    7
 10
260.199998435
 20
88.749999667
 40
0.5000000000000142
 50
180
 51
270
  0
ARC
  5
2EE
  8
0
  6
CONTINUOUS
 62
    7
 10
273.199998435
 20
88.749999667
 40
0.5000000000000142
 50
270
 51
360
  0
ARC
  5
2EF
  8
0
  6
CONTINUOUS
 62
    7
 10
273.199998435
 20
101.749999667
 40
0.5
 50
0
 51
90
  0
ARC
  5
2F0
  8
0
  6
CONTINUOUS
 62
    7
 10
260.199998435
 20
101.749999667
 40
0.5
 50
90
 51
180
  0
ARC
  5
2F1
  8
0
  6
CONTINUOUS
 62
    7
 10
279.249998435
 20
88.749999667
 40
0.5000000000000142
 50
180
 51
270
  0
ARC
  5
2F2
  8
0
  6
CONTINUOUS
 62
    7
 10
292.249998435
 20
88.749999667
 40
0.5000000000000142
 50
270
 51
360
  0
ARC
  5
2F3
  8
0
  6
CONTINUOUS
 62
    7
 10
292.249998435
 20
101.749999667
 40
0.5
 50
0
 51
90
  0
ARC
  5
2F4
  8
0
  6
CONTINUOUS
 62
    7
 10
279.249998435
 20
101.749999667
 40
0.5
 50
90
 51
180
  0
ARC
  5
2F5
  8
0
  6
CONTINUOUS
 62
    7
 10
274.487498435
 20
125.562499667
 40
0.5
 50
90
 51
180
  0
ARC
  5
2F6
  8
0
  6
CONTINUOUS
 62
    7
 10
274.487498435
 20
112.562499667
 40
0.5
 50
180
 51
270
  0
ARC
  5
2F7
  8
0
  6
CONTINUOUS
 62
    7
 10
287.487498435
 20
112.562499667
 40
0.5
 50
270
 51
0
  0
ARC
  5
2F8
  8
0
  6
CONTINUOUS
 62
    7
 10
287.487498435
 20
125.562499667
 40
0.5
 50
0
 51
90
  0
ARC
  5
2F9
  8
0
  6
CONTINUOUS
 62
    7
 10
311.299998435
 20
125.562499667
 40
0.5
 50
0
 51
90
  0
ARC
  5
2FA
  8
0
  6
CONTINUOUS
 62
    7
 10
298.299998435
 20
125.562499667
 40
0.5
 50
90
 51
180
  0
ARC
  5
2FB
  8
0
  6
CONTINUOUS
 62
    7
 10
298.299998435
 20
112.562499667
 40
0.5
 50
180
 51
270
  0
ARC
  5
2FC
  8
0
  6
CONTINUOUS
 62
    7
 10
311.299998435
 20
112.562499667
 40
0.5
 50
270
 51
0
  0
ARC
  5
2FD
  8
0
  6
CONTINUOUS
 62
    7
 10
311.299998435
 20
101.749999667
 40
0.5
 50
0
 51
90
  0
ARC
  5
2FE
  8
0
  6
CONTINUOUS
 62
    7
 10
298.299998435
 20
101.749999667
 40
0.5
 50
90
 51
180
  0
ARC
  5
2FF
  8
0
  6
CONTINUOUS
 62
    7
 10
298.299998435
 20
88.749999667
 40
0.5000000000000142
 50
180
 51
270
  0
ARC
  5
300
  8
0
  6
CONTINUOUS
 62
    7
 10
311.299998435
 20
88.749999667
 40
0.5000000000000142
 50
270
 51
360
  0
ARC
  5
301
  8
0
  6
CONTINUOUS
 62
    7
 10
298.299998435
 20
82.699999667
 40
0.5
 50
90
 51
180
  0
ARC
  5
302
  8
0
  6
CONTINUOUS
 62
    7
 10
298.299998435
 20
69.699999667
 40
0.5
 50
180
 51
270
  0
ARC
  5
303
  8
0
  6
CONTINUOUS
 62
    7
 10
311.299998435
 20
69.699999667
 40
0.5
 50
270
 51
0
  0
ARC
  5
304
  8
0
  6
CONTINUOUS
 62
    7
 10
311.299998435
 20
82.699999667
 40
0.5
 50
0
 51
90
  0
ARC
  5
305
  8
0
  6
CONTINUOUS
 62
    7
 10
298.299998435
 20
63.649999667
 40
0.5
 50
90
 51
180
  0
ARC
  5
306
  8
0
  6
CONTINUOUS
 62
    7
 10
298.299998435
 20
50.649999667
 40
0.5
 50
180
 51
270
  0
ARC
  5
307
  8
0
  6
CONTINUOUS
 62
    7
 10
311.299998435
 20
50.649999667
 40
0.5
 50
270
 51
0
  0
ARC
  5
308
  8
0
  6
CONTINUOUS
 62
    7
 10
311.299998435
 20
63.649999667
 40
0.5
 50
0
 51
90
  0
ARC
  5
309
  8
0
  6
CONTINUOUS
 62
    7
 10
298.299998435
 20
44.599999667
 40
0.5000000000000071
 50
90
 51
180
  0
ARC
  5
30A
  8
0
  6
CONTINUOUS
 62
    7
 10
298.299998435
 20
31.599999667
 40
0.5
 50
180
 51
270
  0
ARC
  5
30B
  8
0
  6
CONTINUOUS
 62
    7
 10
311.299998435
 20
31.599999667
 40
0.5
 50
270
 51
0
  0
ARC
  5
30C
  8
0
  6
CONTINUOUS
 62
    7
 10
311.299998435
 20
44.599999667
 40
0.5
 50
0
 51
90
  0
ARC
  5
30D
  8
0
  6
CONTINUOUS
 62
    7
 10
298.299998435
 20
25.549999667
 40
0.5000000000000036
 50
90
 51
180
  0
ARC
  5
30E
  8
0
  6
CONTINUOUS
 62
    7
 10
298.299998435
 20
12.549999667
 40
0.5
 50
180
 51
270
  0
ARC
  5
30F
  8
0
  6
CONTINUOUS
 62
    7
 10
311.299998435
 20
12.549999667
 40
0.5
 50
270
 51
0
  0
ARC
  5
310
  8
0
  6
CONTINUOUS
 62
    7
 10
311.299998435
 20
25.549999667
 40
0.5000000000000036
 50
0
 51
90
  0
ARC
  5
311
  8
0
  6
CONTINUOUS
 62
    7
 10
174.474998435
 20
69.699999667
 40
0.5000000000000284
 50
180
 51
270
  0
ARC
  5
312
  8
0
  6
CONTINUOUS
 62
    7
 10
187.474998435
 20
69.699999667
 40
0.4999999999999716
 50
270
 51
0
  0
ARC
  5
313
  8
0
  6
CONTINUOUS
 62
    7
 10
187.474998435
 20
82.699999667
 40
0.4999999999999716
 50
360
 51
90
  0
ARC
  5
314
  8
0
  6
CONTINUOUS
 62
    7
 10
174.474998435
 20
82.699999667
 40
0.5000000000000284
 50
90
 51
180
  0
ARC
  5
315
  8
0
  6
CONTINUOUS
 62
    7
 10
313.799998435
 20
128.062499667
 40
1.999999999999943
 50
360
 51
90
  0
ARC
  5
316
  8
0
  6
CONTINUOUS
 62
    7
 10
317.799998435
 20
116.562499667
 40
2.000000000000071
 50
180
 51
270
  0
ARC
  5
317
  8
0
  6
CONTINUOUS
 62
    7
 10
318.299998435
 20
110.062499667
 40
4.500000000000014
 50
270
 51
90
  0
ARC
  5
318
  8
0
  6
CONTINUOUS
 62
    7
 10
317.799998435
 20
103.562499667
 40
2.000000000000114
 50
90
 51
180
  0
ARC
  5
319
  8
0
  6
CONTINUOUS
 62
    7
 10
317.799998435
 20
34.549999667
 40
2.000000000000057
 50
180
 51
270
  0
ARC
  5
31A
  8
0
  6
CONTINUOUS
 62
    7
 10
318.299998435
 20
28.049999667
 40
4.500000000000007
 50
270
 51
90
  0
ARC
  5
31B
  8
0
  6
CONTINUOUS
 62
    7
 10
317.799998435
 20
21.549999667
 40
2.000000000000071
 50
90
 51
180
  0
ARC
  5
31C
  8
0
  6
CONTINUOUS
 62
    7
 10
313.799998435
 20
10.049999667
 40
2.000000000000005
 50
270
 51
0
  0
ARC
  5
31D
  8
0
  6
CONTINUOUS
 62
    7
 10
292.299998435
 20
6.049999667
 40
1.999999999999965
 50
90
 51
180
  0
ARC
  5
31E
  8
0
  6
CONTINUOUS
 62
    7
 10
285.799998435
 20
5.549999667
 40
4.500000000000057
 50
180
 51
0
  0
ARC
  5
31F
  8
0
  6
CONTINUOUS
 62
    7
 10
279.299998435
 20
6.049999667
 40
2.000000000000077
 50
0
 51
90
  0
ARC
  5
320
  8
0
  6
CONTINUOUS
 62
    7
 10
168.424998435
 20
6.049999667
 40
2.000000000000028
 50
90
 51
180
  0
ARC
  5
321
  8
0
  6
CONTINUOUS
 62
    7
 10
161.924998435
 20
5.549999667
 40
4.500000000000028
 50
180
 51
0
  0
ARC
  5
322
  8
0
  6
CONTINUOUS
 62
    7
 10
155.424998435
 20
6.049999667
 40
2.000000000000001
 50
0
 51
90
  0
ARC
  5
323
  8
0
  6
CONTINUOUS
 62
    7
 10
44.549998435
 20
6.049999667
 40
1.999999999999993
 50
90
 51
180
  0
ARC
  5
324
  8
0
  6
CONTINUOUS
 62
    7
 10
38.049998435
 20
5.549999667
 40
4.500000000000043
 50
180
 51
0
  0
ARC
  5
325
  8
0
  6
CONTINUOUS
 62
    7
 10
31.549998435
 20
6.049999667
 40
2.000000000000014
 50
0
 51
90
  0
ARC
  5
326
  8
0
  6
CONTINUOUS
 62
    7
 10
10.049998435
 20
10.049999667
 40
2.000000000000012
 50
180
 51
270
  0
ARC
  5
327
  8
0
  6
CONTINUOUS
 62
    7
 10
6.049998435
 20
21.549999667
 40
1.999999999999996
 50
0
 51
90
  0
ARC
  5
328
  8
0
  6
CONTINUOUS
 62
    7
 10
5.549998435
 20
28.049999667
 40
4.500000000000011
 50
90
 51
270
  0
ARC
  5
329
  8
0
  6
CONTINUOUS
 62
    7
 10
6.049998435
 20
34.549999667
 40
1.999999999999974
 50
270
 51
0
  0
ARC
  5
32A
  8
0
  6
CONTINUOUS
 62
    7
 10
6.049998435
 20
103.562499667
 40
2.000000000000028
 50
0
 51
90
  0
ARC
  5
32B
  8
0
  6
CONTINUOUS
 62
    7
 10
5.549998435
 20
110.062499667
 40
4.500000000000014
 50
90
 51
270
  0
ARC
  5
32C
  8
0
  6
CONTINUOUS
 62
    7
 10
6.049998435
 20
116.562499667
 40
2.000000000000028
 50
270
 51
0
  0
ARC
  5
32D
  8
0
  6
CONTINUOUS
 62
    7
 10
10.049998435
 20
128.062499667
 40
2
 50
90
 51
180
  0
ARC
  5
32E
  8
0
  6
CONTINUOUS
 62
    7
 10
31.549998435
 20
132.062499667
 40
2.000000000000028
 50
270
 51
0
  0
ARC
  5
32F
  8
0
  6
CONTINUOUS
 62
    7
 10
38.049998435
 20
132.562499667
 40
4.500000000000014
 50
0
 51
180
  0
ARC
  5
330
  8
0
  6
CONTINUOUS
 62
    7
 10
44.549998435
 20
132.062499667
 40
2
 50
180
 51
270
  0
ARC
  5
331
  8
0
  6
CONTINUOUS
 62
    7
 10
155.424998435
 20
132.062499667
 40
2.000000000000028
 50
270
 51
0
  0
ARC
  5
332
  8
0
  6
CONTINUOUS
 62
    7
 10
161.924998435
 20
132.562499667
 40
4.500000000000028
 50
0
 51
180
  0
ARC
  5
333
  8
0
  6
CONTINUOUS
 62
    7
 10
168.424998435
 20
132.062499667
 40
2.000000000000057
 50
180
 51
270
  0
ARC
  5
334
  8
0
  6
CONTINUOUS
 62
    7
 10
279.299998435
 20
132.062499667
 40
2.000000000000057
 50
270
 51
0
  0
ARC
  5
335
  8
0
  6
CONTINUOUS
 62
    7
 10
285.799998435
 20
132.562499667
 40
4.500000000000057
 50
0
 51
180
  0
ARC
  5
336
  8
0
  6
CONTINUOUS
 62
    7
 10
292.299998435
 20
132.062499667
 40
2
 50
180
 51
270
  0
ENDSEC
  0
EOF
